<?xml version="1.0" encoding="utf-8"?>
<!-- Generator: Adobe Illustrator 22.1.0, SVG Export Plug-In . SVG Version: 6.00 Build 0)  -->
<svg version="1.1" xmlns="http://www.w3.org/2000/svg" xmlns:xlink="http://www.w3.org/1999/xlink" x="0px" y="0px"
	 viewBox="0 0 583.066 965.89" style="enable-background:new 0 0 583.066 965.89;" xml:space="preserve">
<style type="text/css">
	.st0{opacity:0.4;fill:url(#SVGID_1_);}
	.st1{fill:#7AF9E4;}
	.st2{opacity:0.4;fill:url(#SVGID_2_);}
	.st3{opacity:0.4;fill:url(#SVGID_3_);}
	.st4{opacity:0.4;fill:url(#SVGID_4_);}
	.st5{opacity:0.4;fill:url(#SVGID_5_);}
	.st6{fill:#F9674E;}
	.st7{fill:#B3DEE2;}
	.st8{fill:#C3EAEF;}
	.st9{fill:#9DDDE3;}
	.st10{fill:#E1FAFB;}
	.st11{fill:#F9C478;}
	.st12{fill:#F7B763;}
	.st13{fill:#FCD197;}
	.st14{fill:#F9AB55;}
	.st15{fill:#F9A035;}
	.st16{fill:#E08D86;}
	.st17{fill:#F96A58;}
	.st18{fill:#EF5C43;}
	.st19{opacity:0.21;fill:#15154F;}
	.st20{fill:#5AB5BF;}
	.st21{fill:#2A7E8C;}
	.st22{fill:#3C8DA0;}
	.st23{opacity:0.49;}
	.st24{fill:#76C2CE;}
	.st25{opacity:0.54;}
	.st26{fill:#F99F93;}
	.st27{opacity:0.4;fill:url(#SVGID_6_);}
	.st28{opacity:0.4;fill:url(#SVGID_7_);}
</style>
<g id="Warstwa_5">
</g>
<g id="Warstwa_6">
	<g>
		
			<linearGradient id="SVGID_1_" gradientUnits="userSpaceOnUse" x1="-1368.1072" y1="777.3821" x2="-1368.1072" y2="683.9958" gradientTransform="matrix(1 0 0 1 1495.9933 -55.5552)">
			<stop  offset="0" style="stop-color:#3CCCD7;stop-opacity:0"/>
			<stop  offset="1" style="stop-color:#3CBBA0"/>
		</linearGradient>
		<polyline class="st0" points="221.469,628.441 221.469,721.827 34.304,721.827 34.304,628.897 		"/>
		<g>
			<g>
				<ellipse class="st1" cx="175.264" cy="726.162" rx="1.128" ry="1.247"/>
				<g>
					
						<image style="overflow:visible;" width="75" height="76" xlink:href="14B02DA3A758424A.png"  transform="matrix(1 0 0 1 138 688)">
					</image>
				</g>
			</g>
			<g>
				<ellipse class="st1" cx="186.635" cy="668.864" rx="1.375" ry="1.339"/>
				<g>
					
						<image style="overflow:visible;" width="76" height="76" xlink:href="14B02DA3A758424E.png"  transform="matrix(1 0 0 1 149 631)">
					</image>
				</g>
			</g>
			<g>
				<ellipse class="st1" cx="151.659" cy="758.723" rx="0.687" ry="0.67"/>
				<g>
					
						<image style="overflow:visible;" width="75" height="74" xlink:href="14B02DA3A7584249.png"  transform="matrix(1 0 0 1 114 722)">
					</image>
				</g>
			</g>
			<g>
				<ellipse class="st1" cx="102.536" cy="688.561" rx="0.564" ry="0.623"/>
				<g>
					
						<image style="overflow:visible;" width="75" height="75" xlink:href="14B02DA3A758424B.png"  transform="matrix(1 0 0 1 65 651)">
					</image>
				</g>
			</g>
			<g>
				<ellipse class="st1" cx="77.534" cy="716.727" rx="1.375" ry="1.339"/>
				<g>
					
						<image style="overflow:visible;" width="75" height="76" xlink:href="14B02DA3A7584248.png"  transform="matrix(1 0 0 1 40 679)">
					</image>
				</g>
			</g>
			<g>
				<ellipse class="st1" cx="52.137" cy="667.595" rx="1.375" ry="1.339"/>
				<g>
					
						<image style="overflow:visible;" width="76" height="75" xlink:href="14B02DA3A7584256.png"  transform="matrix(1 0 0 1 14 630)">
					</image>
				</g>
			</g>
			<g>
				<ellipse class="st1" cx="70.537" cy="630.928" rx="1.375" ry="1.339"/>
				<g>
					
						<image style="overflow:visible;" width="75" height="76" xlink:href="14B02DA3A7584259.png"  transform="matrix(1 0 0 1 33 593)">
					</image>
				</g>
			</g>
			<g>
				<ellipse class="st1" cx="70.537" cy="696.964" rx="0.687" ry="0.67"/>
				<g>
					
						<image style="overflow:visible;" width="75" height="74" xlink:href="14B02DA3A758425A.png"  transform="matrix(1 0 0 1 33 660)">
					</image>
				</g>
			</g>
			<g>
				<ellipse class="st1" cx="53.511" cy="647.755" rx="0.687" ry="0.67"/>
				<g>
					
						<image style="overflow:visible;" width="75" height="74" xlink:href="14B02DA3A7584258.png"  transform="matrix(1 0 0 1 16 611)">
					</image>
				</g>
			</g>
			<g>
				<ellipse class="st1" cx="187.729" cy="697.805" rx="0.687" ry="0.67"/>
				<g>
					
						<image style="overflow:visible;" width="74" height="74" xlink:href="FD7698A72FC1950D.png"  transform="matrix(1 0 0 1 151 661)">
					</image>
				</g>
			</g>
			<g>
				<ellipse class="st1" cx="150.026" cy="695.344" rx="0.687" ry="0.67"/>
				<g>
					
						<image style="overflow:visible;" width="74" height="75" xlink:href="FD7698A72FC19503.png"  transform="matrix(1 0 0 1 113 658)">
					</image>
				</g>
			</g>
			<g>
				<ellipse class="st1" cx="171.327" cy="708.475" rx="0.687" ry="0.67"/>
				<g>
					
						<image style="overflow:visible;" width="75" height="75" xlink:href="FD7698A72FC19505.png"  transform="matrix(1 0 0 1 134 671)">
					</image>
				</g>
			</g>
			<g>
				<ellipse class="st1" cx="113.228" cy="734.949" rx="0.687" ry="0.67"/>
				<g>
					
						<image style="overflow:visible;" width="74" height="74" xlink:href="FD7698A72FC19507.png"  transform="matrix(1 0 0 1 76 698)">
					</image>
				</g>
			</g>
			<g>
				<ellipse class="st1" cx="142.425" cy="722.875" rx="1.375" ry="1.339"/>
				<g>
					
						<image style="overflow:visible;" width="75" height="76" xlink:href="FD7698A72FC19504.png"  transform="matrix(1 0 0 1 105 685)">
					</image>
				</g>
			</g>
		</g>
		
			<linearGradient id="SVGID_2_" gradientUnits="userSpaceOnUse" x1="-1040.9509" y1="780.8428" x2="-1040.9509" y2="687.4564" gradientTransform="matrix(1 0 0 1 1495.9933 -55.5552)">
			<stop  offset="0" style="stop-color:#3CCCD7;stop-opacity:0"/>
			<stop  offset="1" style="stop-color:#3CBBA0"/>
		</linearGradient>
		<polyline class="st2" points="548.625,631.901 548.625,725.288 361.46,725.288 361.46,632.357 		"/>
		<g>
			<g>
				<ellipse class="st1" cx="502.42" cy="729.623" rx="1.128" ry="1.247"/>
				<g>
					
						<image style="overflow:visible;" width="75" height="75" xlink:href="FD7698A72FC1951C.png"  transform="matrix(1 0 0 1 465 692)">
					</image>
				</g>
			</g>
			<g>
				<ellipse class="st1" cx="513.792" cy="672.325" rx="1.375" ry="1.339"/>
				<g>
					
						<image style="overflow:visible;" width="76" height="76" xlink:href="FD7698A72FC1951D.png"  transform="matrix(1 0 0 1 476 634)">
					</image>
				</g>
			</g>
			<g>
				<ellipse class="st1" cx="478.816" cy="762.184" rx="0.687" ry="0.67"/>
				<g>
					
						<image style="overflow:visible;" width="74" height="74" xlink:href="FD7698A72FC1951F.png"  transform="matrix(1 0 0 1 442 725)">
					</image>
				</g>
			</g>
			<g>
				<ellipse class="st1" cx="429.693" cy="692.021" rx="0.564" ry="0.623"/>
				<g>
					
						<image style="overflow:visible;" width="74" height="74" xlink:href="FD7698A72FC1951B.png"  transform="matrix(1 0 0 1 393 655)">
					</image>
				</g>
			</g>
			<g>
				<ellipse class="st1" cx="404.69" cy="720.188" rx="1.375" ry="1.339"/>
				<g>
					
						<image style="overflow:visible;" width="76" height="76" xlink:href="FD7698A72FC19506.png"  transform="matrix(1 0 0 1 367 682)">
					</image>
				</g>
			</g>
			<g>
				<ellipse class="st1" cx="379.293" cy="671.056" rx="1.375" ry="1.339"/>
				<g>
					
						<image style="overflow:visible;" width="76" height="76" xlink:href="FD7698A72FC19538.png"  transform="matrix(1 0 0 1 341 633)">
					</image>
				</g>
			</g>
			<g>
				<ellipse class="st1" cx="397.693" cy="634.389" rx="1.375" ry="1.339"/>
				<g>
					
						<image style="overflow:visible;" width="76" height="75" xlink:href="FD7698A72FC1953B.png"  transform="matrix(1 0 0 1 360 597)">
					</image>
				</g>
			</g>
			<g>
				<ellipse class="st1" cx="397.693" cy="700.424" rx="0.687" ry="0.67"/>
				<g>
					
						<image style="overflow:visible;" width="74" height="75" xlink:href="FD7698A72FC19539.png"  transform="matrix(1 0 0 1 361 663)">
					</image>
				</g>
			</g>
			<g>
				<ellipse class="st1" cx="380.668" cy="651.216" rx="0.687" ry="0.67"/>
				<g>
					
						<image style="overflow:visible;" width="75" height="74" xlink:href="FD7698A72FC19537.png"  transform="matrix(1 0 0 1 343 614)">
					</image>
				</g>
			</g>
			<g>
				<ellipse class="st1" cx="514.885" cy="701.266" rx="0.687" ry="0.67"/>
				<g>
					
						<image style="overflow:visible;" width="74" height="74" xlink:href="FD7698A72FC19528.png"  transform="matrix(1 0 0 1 478 664)">
					</image>
				</g>
			</g>
			<g>
				<ellipse class="st1" cx="477.182" cy="698.805" rx="0.687" ry="0.67"/>
				<g>
					
						<image style="overflow:visible;" width="74" height="74" xlink:href="FD7698A72FC1952B.png"  transform="matrix(1 0 0 1 440 662)">
					</image>
				</g>
			</g>
			<g>
				<ellipse class="st1" cx="498.483" cy="711.935" rx="0.687" ry="0.67"/>
				<g>
					
						<image style="overflow:visible;" width="75" height="74" xlink:href="FD7698A72FC19529.png"  transform="matrix(1 0 0 1 461 675)">
					</image>
				</g>
			</g>
			<g>
				<ellipse class="st1" cx="440.384" cy="738.41" rx="0.687" ry="0.67"/>
				<g>
					
						<image style="overflow:visible;" width="75" height="75" xlink:href="FD7698A72FC1952F.png"  transform="matrix(1 0 0 1 403 701)">
					</image>
				</g>
			</g>
			<g>
				<ellipse class="st1" cx="469.581" cy="726.335" rx="1.375" ry="1.339"/>
				<g>
					
						<image style="overflow:visible;" width="75" height="76" xlink:href="FD7698A72FC1952A.png"  transform="matrix(1 0 0 1 432 688)">
					</image>
				</g>
			</g>
		</g>
		
			<linearGradient id="SVGID_3_" gradientUnits="userSpaceOnUse" x1="-1979.0741" y1="1255.9956" x2="-1979.0741" y2="1162.6093" gradientTransform="matrix(-1 0 0 -1 -1851.1881 1490.7241)">
			<stop  offset="0" style="stop-color:#3CCCD7;stop-opacity:0"/>
			<stop  offset="1" style="stop-color:#3CBBA0"/>
		</linearGradient>
		<polyline class="st3" points="34.304,328.115 34.304,234.729 221.469,234.729 221.469,327.659 		"/>
		
			<linearGradient id="SVGID_4_" gradientUnits="userSpaceOnUse" x1="-2306.7561" y1="1253.8982" x2="-2306.7561" y2="1160.5118" gradientTransform="matrix(-1 0 0 -1 -1851.1881 1490.7241)">
			<stop  offset="0" style="stop-color:#3CCCD7;stop-opacity:0"/>
			<stop  offset="1" style="stop-color:#3CBBA0"/>
		</linearGradient>
		<polyline class="st4" points="361.985,330.212 361.985,236.826 549.151,236.826 549.151,329.756 		"/>
		
			<linearGradient id="SVGID_5_" gradientUnits="userSpaceOnUse" x1="-2244.3308" y1="587.1037" x2="-2244.3308" y2="493.7174" gradientTransform="matrix(1 0 0 1 2535.7834 303.3103)">
			<stop  offset="0" style="stop-color:#F9674E;stop-opacity:0"/>
			<stop  offset="1" style="stop-color:#E8502F"/>
		</linearGradient>
		<polyline class="st5" points="385.367,797.028 385.367,890.414 197.538,890.414 197.538,797.484 		"/>
		<g>
			<g>
				<circle class="st6" cx="348.946" cy="854.516" r="1.339"/>
				<g>
					
						<image style="overflow:visible;" width="76" height="75" xlink:href="FD7698A72FC19515.png"  transform="matrix(1 0 0 1 311 817)">
					</image>
				</g>
			</g>
			<g>
				<circle class="st6" cx="365.349" cy="827.451" r="1.339"/>
				<g>
					
						<image style="overflow:visible;" width="75" height="75" xlink:href="FD7698A72FC1954F.png"  transform="matrix(1 0 0 1 328 790)">
					</image>
				</g>
			</g>
			<g>
				<circle class="st6" cx="314.702" cy="777.31" r="0.67"/>
				<g>
					
						<image style="overflow:visible;" width="74" height="74" xlink:href="FD7698A72FC1954D.png"  transform="matrix(1 0 0 1 278 740)">
					</image>
				</g>
			</g>
			<g>
				<circle class="st6" cx="354.414" cy="837.194" r="0.67"/>
				<g>
					
						<image style="overflow:visible;" width="75" height="74" xlink:href="FD7698A72FC19573.png"  transform="matrix(1 0 0 1 317 800)">
					</image>
				</g>
			</g>
			<g>
				<circle class="st6" cx="242.472" cy="885.314" r="1.339"/>
				<g>
					
						<image style="overflow:visible;" width="75" height="76" xlink:href="FD7698A72FC19575.png"  transform="matrix(1 0 0 1 205 847)">
					</image>
				</g>
			</g>
			<g>
				<circle class="st6" cx="217.724" cy="836.182" r="1.339"/>
				<g>
					
						<image style="overflow:visible;" width="76" height="76" xlink:href="FD7698A72FC19577.png"  transform="matrix(1 0 0 1 180 798)">
					</image>
				</g>
			</g>
			<g>
				<circle class="st6" cx="235.654" cy="799.515" r="1.339"/>
				<g>
					
						<image style="overflow:visible;" width="75" height="75" xlink:href="FD7698A72FC19572.png"  transform="matrix(1 0 0 1 198 762)">
					</image>
				</g>
			</g>
			<g>
				<circle class="st6" cx="235.654" cy="865.551" r="0.67"/>
				<g>
					
						<image style="overflow:visible;" width="75" height="75" xlink:href="FD7698A72FC19571.png"  transform="matrix(1 0 0 1 198 828)">
					</image>
				</g>
			</g>
			<g>
				<circle class="st6" cx="219.063" cy="816.342" r="0.67"/>
				<g>
					
						<image style="overflow:visible;" width="74" height="75" xlink:href="FD7698A72FC1957D.png"  transform="matrix(1 0 0 1 182 779)">
					</image>
				</g>
			</g>
			<g>
				<circle class="st6" cx="359.594" cy="876.392" r="0.67"/>
				<g>
					
						<image style="overflow:visible;" width="75" height="75" xlink:href="FD7698A72FC1957F.png"  transform="matrix(1 0 0 1 322 839)">
					</image>
				</g>
			</g>
			<g>
				<circle class="st6" cx="304.34" cy="891.931" r="0.67"/>
				<g>
					
						<image style="overflow:visible;" width="75" height="74" xlink:href="FD7698A72FC19570.png"  transform="matrix(1 0 0 1 267 855)">
					</image>
				</g>
			</g>
			<g>
				<circle class="st6" cx="333.866" cy="877.062" r="0.67"/>
				<g>
					
						<image style="overflow:visible;" width="74" height="74" xlink:href="FD7698A72FC1955E.png"  transform="matrix(1 0 0 1 297 840)">
					</image>
				</g>
			</g>
			<g>
				<circle class="st6" cx="277.253" cy="903.536" r="0.67"/>
				<g>
					
						<image style="overflow:visible;" width="74" height="75" xlink:href="FD7698A72FC1955D.png"  transform="matrix(1 0 0 1 240 866)">
					</image>
				</g>
			</g>
			<g>
				<circle class="st6" cx="296.934" cy="909.462" r="1.339"/>
				<g>
					
						<image style="overflow:visible;" width="76" height="75" xlink:href="FD7698A72FC19552.png"  transform="matrix(1 0 0 1 259 872)">
					</image>
				</g>
			</g>
		</g>
		<g>
			<polygon class="st7" points="127.838,575.802 127.839,575.801 127.843,575.804 128.634,575.349 221.73,521.782 127.831,467.138 
				127.83,467.139 127.83,467.139 127.827,467.138 127.826,467.138 33.915,521.143 127.826,575.794 			"/>
			<polygon class="st8" points="127.882,684.456 127.882,684.454 127.886,684.456 127.886,575.808 127.886,575.808 33.963,521.15 
				33.963,521.15 33.96,521.149 33.96,629.796 34.004,629.823 			"/>
			<polygon class="st9" points="221.784,521.784 127.872,575.789 127.86,575.797 127.86,684.445 127.88,684.455 127.881,684.455 
				127.883,684.456 221.789,630.454 221.789,630.455 221.789,630.442 221.789,521.785 221.784,521.788 			"/>
		</g>
		<g>
			<g>
				<g>
					<polygon class="st10" points="130.063,384.457 130.063,384.457 130.065,384.458 130.449,384.237 175.677,358.214 
						130.059,331.666 130.059,331.667 130.059,331.667 130.057,331.666 130.057,331.666 84.433,357.903 130.057,384.454 					"/>
					<polygon class="st8" points="130.084,437.244 130.084,437.243 130.086,437.244 130.086,384.461 130.086,384.461 
						84.456,357.906 84.456,357.906 84.455,357.906 84.455,410.689 84.476,410.702 					"/>
					<polygon class="st9" points="175.703,358.215 130.079,384.451 130.073,384.455 130.073,437.238 130.083,437.243 
						130.083,437.243 130.084,437.244 175.706,411.009 175.706,411.009 175.706,411.003 175.706,358.215 175.703,358.217 					"/>
				</g>
				<g>
					<g>
						<polygon class="st11" points="180.418,412.69 180.418,412.689 180.42,412.691 180.805,412.47 226.032,386.446 
							180.414,359.899 180.414,359.899 180.414,359.899 180.412,359.899 180.412,359.899 134.788,386.135 180.412,412.686 						"/>
						<polygon class="st11" points="180.439,465.476 180.439,465.475 180.441,465.476 180.441,412.693 180.441,412.693 
							134.811,386.139 134.811,386.139 134.81,386.138 134.81,438.922 134.831,438.934 						"/>
						<polygon class="st12" points="226.058,386.447 180.434,412.684 180.429,412.688 180.429,465.471 180.438,465.476 
							180.439,465.476 180.439,465.476 226.061,439.241 226.061,439.242 226.061,439.235 226.061,386.448 226.058,386.449 						"/>
					</g>
					<g>
						<polygon class="st10" points="79.707,412.69 79.708,412.689 79.71,412.691 80.094,412.47 125.322,386.446 79.704,359.899 
							79.703,359.899 79.703,359.899 79.702,359.899 79.701,359.899 34.077,386.135 79.701,412.686 						"/>
						<polygon class="st8" points="79.729,465.476 79.729,465.475 79.731,465.476 79.731,412.693 79.731,412.693 34.101,386.139 
							34.101,386.139 34.099,386.138 34.099,438.922 34.121,438.934 						"/>
						<polygon class="st9" points="125.348,386.447 79.723,412.684 79.718,412.688 79.718,465.471 79.727,465.476 79.728,465.476 
							79.729,465.476 125.35,439.241 125.35,439.242 125.35,439.235 125.35,386.448 125.348,386.449 						"/>
					</g>
				</g>
				<g>
					<polygon class="st10" points="130.063,440.922 130.063,440.922 130.065,440.923 130.449,440.702 175.677,414.679 
						130.059,388.131 130.059,388.132 130.059,388.132 130.057,388.131 130.057,388.131 84.433,414.368 130.057,440.919 					"/>
					<polygon class="st8" points="130.084,493.709 130.084,493.708 130.086,493.709 130.086,440.926 130.086,440.926 
						84.456,414.371 84.456,414.371 84.455,414.371 84.455,467.154 84.476,467.167 					"/>
					<polygon class="st9" points="175.703,414.68 130.079,440.916 130.073,440.92 130.073,493.703 130.083,493.708 130.083,493.708 
						130.084,493.709 175.706,467.474 175.706,467.474 175.706,467.468 175.706,414.68 175.703,414.682 					"/>
				</g>
			</g>
			<g>
				<g>
					<polygon class="st10" points="129.945,326.282 129.945,326.281 129.947,326.283 130.332,326.062 175.56,300.038 
						129.942,273.491 129.941,273.491 129.941,273.491 129.94,273.491 129.939,273.491 84.315,299.727 129.939,326.278 					"/>
					<polygon class="st8" points="129.966,379.068 129.966,379.067 129.968,379.068 129.968,326.285 129.968,326.285 
						84.339,299.731 84.339,299.731 84.337,299.73 84.337,352.513 84.359,352.526 					"/>
					<polygon class="st9" points="175.586,300.039 129.961,326.276 129.956,326.28 129.956,379.063 129.965,379.068 
						129.966,379.068 129.967,379.068 175.588,352.833 175.588,352.833 175.588,352.827 175.588,300.04 175.586,300.041 					"/>
				</g>
				<g>
					<g>
						<polygon class="st10" points="180.3,354.514 180.301,354.514 180.303,354.515 180.687,354.294 225.915,328.271 
							180.297,301.723 180.296,301.724 180.296,301.724 180.295,301.723 180.294,301.723 134.671,327.96 180.294,354.511 						"/>
						<polygon class="st8" points="180.322,407.301 180.322,407.3 180.324,407.301 180.324,354.518 180.324,354.518 
							134.694,327.963 134.694,327.963 134.692,327.963 134.692,380.746 134.714,380.759 						"/>
						<polygon class="st9" points="225.941,328.272 180.317,354.508 180.311,354.512 180.311,407.295 180.32,407.3 180.321,407.3 
							180.322,407.301 225.943,381.066 225.943,381.066 225.943,381.06 225.943,328.272 225.941,328.274 						"/>
					</g>
					<g>
						<polygon class="st10" points="79.59,354.514 79.59,354.514 79.592,354.515 79.976,354.294 125.204,328.271 79.586,301.723 
							79.586,301.724 79.586,301.724 79.584,301.723 79.584,301.723 33.96,327.96 79.584,354.511 						"/>
						<polygon class="st8" points="79.611,407.301 79.611,407.3 79.613,407.301 79.613,354.518 79.613,354.518 33.983,327.963 
							33.983,327.963 33.982,327.963 33.982,380.746 34.003,380.759 						"/>
						<polygon class="st9" points="125.23,328.272 79.606,354.508 79.601,354.512 79.601,407.295 79.61,407.3 79.61,407.3 
							79.611,407.301 125.233,381.066 125.233,381.066 125.233,381.06 125.233,328.272 125.23,328.274 						"/>
					</g>
				</g>
				<g>
					<polygon class="st13" points="129.945,382.747 129.945,382.746 129.947,382.748 130.332,382.527 175.56,356.503 
						129.942,329.956 129.941,329.956 129.941,329.956 129.94,329.956 129.939,329.956 84.315,356.193 129.939,382.743 					"/>
					<polygon class="st11" points="129.966,435.533 129.966,435.532 129.968,435.533 129.968,382.75 129.968,382.75 84.339,356.196 
						84.339,356.196 84.337,356.195 84.337,408.979 84.359,408.991 					"/>
					<polygon class="st12" points="175.586,356.504 129.961,382.741 129.956,382.745 129.956,435.528 129.965,435.533 
						129.966,435.533 129.967,435.533 175.588,409.298 175.588,409.299 175.588,409.292 175.588,356.505 175.586,356.506 					"/>
				</g>
			</g>
		</g>
		<g>
			<g>
				<g>
					<polygon class="st10" points="453.152,576.091 453.153,576.09 453.155,576.092 453.539,575.871 498.767,549.847 453.149,523.3 
						453.148,523.3 453.148,523.3 453.147,523.3 453.146,523.3 407.522,549.536 453.146,576.087 					"/>
					<polygon class="st8" points="453.173,628.877 453.173,628.876 453.175,628.877 453.175,576.094 453.175,576.094 
						407.546,549.54 407.546,549.54 407.544,549.539 407.544,602.323 407.566,602.335 					"/>
					<polygon class="st9" points="498.793,549.848 453.168,576.085 453.163,576.089 453.163,628.872 453.172,628.877 
						453.173,628.877 453.174,628.877 498.795,602.642 498.795,602.643 498.795,602.636 498.795,549.849 498.793,549.85 					"/>
				</g>
				<g>
					<g>
						<polygon class="st10" points="503.507,604.323 503.508,604.323 503.51,604.324 503.894,604.103 549.122,578.08 
							503.504,551.532 503.504,551.533 503.504,551.533 503.502,551.532 503.502,551.532 457.878,577.769 503.502,604.32 						"/>
						<polygon class="st8" points="503.529,657.11 503.529,657.109 503.531,657.11 503.531,604.327 503.531,604.327 
							457.901,577.772 457.901,577.772 457.9,577.772 457.9,630.555 457.921,630.568 						"/>
						<polygon class="st9" points="549.148,578.081 503.524,604.317 503.518,604.321 503.518,657.104 503.528,657.109 
							503.528,657.109 503.529,657.11 549.151,630.875 549.151,630.875 549.151,630.869 549.151,578.081 549.148,578.083 						"/>
					</g>
					<g>
						<polygon class="st10" points="402.797,604.323 402.797,604.323 402.799,604.324 403.184,604.103 448.411,578.08 
							402.793,551.532 402.793,551.533 402.793,551.533 402.791,551.532 402.791,551.532 357.167,577.769 402.791,604.32 						"/>
						<polygon class="st8" points="402.818,657.11 402.818,657.109 402.82,657.11 402.82,604.327 402.82,604.327 357.19,577.772 
							357.19,577.772 357.189,577.772 357.189,630.555 357.21,630.568 						"/>
						<polygon class="st9" points="448.437,578.081 402.813,604.317 402.808,604.321 402.808,657.104 402.817,657.109 
							402.817,657.109 402.818,657.11 448.44,630.875 448.44,630.875 448.44,630.869 448.44,578.081 448.437,578.083 						"/>
					</g>
				</g>
				<g>
					<polygon class="st10" points="453.152,632.556 453.153,632.555 453.155,632.557 453.539,632.336 498.767,606.312 
						453.149,579.765 453.148,579.765 453.148,579.765 453.147,579.765 453.146,579.765 407.522,606.002 453.146,632.552 					"/>
					<polygon class="st8" points="453.173,685.342 453.173,685.341 453.175,685.342 453.175,632.559 453.175,632.559 
						407.546,606.005 407.546,606.005 407.544,606.004 407.544,658.788 407.566,658.8 					"/>
					<polygon class="st9" points="498.793,606.313 453.168,632.55 453.163,632.554 453.163,685.337 453.172,685.342 
						453.173,685.342 453.174,685.342 498.795,659.107 498.795,659.108 498.795,659.101 498.795,606.314 498.793,606.315 					"/>
				</g>
			</g>
			<g>
				<g>
					<polygon class="st13" points="453.035,517.915 453.035,517.915 453.037,517.916 453.421,517.695 498.649,491.672 
						453.031,465.124 453.031,465.125 453.031,465.125 453.029,465.124 453.029,465.124 407.405,491.361 453.029,517.912 					"/>
					<polygon class="st14" points="453.056,570.702 453.056,570.701 453.058,570.702 453.058,517.919 453.058,517.919 
						407.428,491.364 407.428,491.364 407.427,491.364 407.427,544.147 407.448,544.16 					"/>
					<polygon class="st15" points="498.675,491.673 453.051,517.909 453.045,517.913 453.045,570.696 453.055,570.701 
						453.055,570.701 453.056,570.702 498.678,544.466 498.678,544.467 498.678,544.461 498.678,491.673 498.675,491.674 					"/>
				</g>
				<g>
					<g>
						<polygon class="st10" points="503.39,546.148 503.39,546.147 503.392,546.149 503.777,545.928 549.005,519.904 
							503.387,493.357 503.386,493.357 503.386,493.357 503.385,493.357 503.384,493.357 457.76,519.593 503.384,546.144 						"/>
						<polygon class="st8" points="503.411,598.934 503.411,598.933 503.413,598.934 503.413,546.151 503.413,546.151 
							457.783,519.597 457.783,519.597 457.782,519.596 457.782,572.379 457.804,572.392 						"/>
						<polygon class="st9" points="549.031,519.905 503.406,546.142 503.401,546.146 503.401,598.929 503.41,598.934 
							503.411,598.934 503.412,598.934 549.033,572.699 549.033,572.7 549.033,572.693 549.033,519.906 549.031,519.907 						"/>
					</g>
					<g>
						<polygon class="st10" points="402.679,546.148 402.68,546.147 402.682,546.149 403.066,545.928 448.294,519.904 
							402.676,493.357 402.675,493.357 402.675,493.357 402.674,493.357 402.673,493.357 357.05,519.593 402.673,546.144 						"/>
						<polygon class="st8" points="402.701,598.934 402.701,598.933 402.703,598.934 402.703,546.151 402.703,546.151 
							357.073,519.597 357.073,519.597 357.071,519.596 357.071,572.379 357.093,572.392 						"/>
						<polygon class="st9" points="448.32,519.905 402.695,546.142 402.69,546.146 402.69,598.929 402.699,598.934 402.7,598.934 
							402.701,598.934 448.322,572.699 448.322,572.7 448.322,572.693 448.322,519.906 448.32,519.907 						"/>
					</g>
				</g>
				<g>
					<polygon class="st11" points="453.035,575.38 453.035,575.38 453.037,575.381 453.421,575.16 498.649,549.137 453.031,522.589 
						453.031,522.59 453.031,522.59 453.029,522.589 453.029,522.589 407.405,548.826 453.029,575.377 					"/>
					<polygon class="st14" points="453.056,628.167 453.056,628.166 453.058,628.167 453.058,575.384 453.058,575.384 
						407.428,548.829 407.428,548.829 407.427,548.829 407.427,601.612 407.448,601.625 					"/>
					<polygon class="st15" points="498.675,549.138 453.051,575.374 453.045,575.378 453.045,628.161 453.055,628.166 
						453.055,628.166 453.056,628.167 498.678,601.932 498.678,601.932 498.678,601.926 498.678,549.138 498.675,549.14 					"/>
				</g>
			</g>
		</g>
		<g>
			<polygon class="st16" points="290.614,743.915 290.615,743.914 290.619,743.917 291.41,743.462 384.506,689.896 290.607,635.251 
				290.606,635.252 290.606,635.252 290.603,635.251 290.602,635.251 196.691,689.256 290.602,743.908 			"/>
			<polygon class="st17" points="290.658,852.569 290.658,852.567 290.662,852.569 290.662,743.922 290.662,743.922 
				196.739,689.263 196.739,689.263 196.736,689.262 196.736,797.909 196.78,797.936 			"/>
			<polygon class="st18" points="384.559,689.897 290.647,743.902 290.636,743.911 290.636,852.558 290.655,852.568 
				290.656,852.568 290.658,852.569 384.564,798.567 384.564,798.568 384.564,798.555 384.564,689.898 384.559,689.901 			"/>
		</g>
		<g>
			<g>
				<ellipse class="st1" cx="408.19" cy="232.491" rx="1.128" ry="1.247"/>
				<g>
					
						<image style="overflow:visible;" width="75" height="75" xlink:href="FD7698A72FC19555.png"  transform="matrix(1 0 0 1 371 195)">
					</image>
				</g>
			</g>
			<g>
				<ellipse class="st1" cx="396.819" cy="289.789" rx="1.375" ry="1.339"/>
				<g>
					
						<image style="overflow:visible;" width="76" height="76" xlink:href="FD7698A72FC19556.png"  transform="matrix(1 0 0 1 359 252)">
					</image>
				</g>
			</g>
			<g>
				<ellipse class="st1" cx="431.795" cy="199.93" rx="0.687" ry="0.67"/>
				<g>
					
						<image style="overflow:visible;" width="74" height="74" xlink:href="FD7698A72FC19554.png"  transform="matrix(1 0 0 1 395 163)">
					</image>
				</g>
			</g>
			<g>
				<ellipse class="st1" cx="480.918" cy="270.092" rx="0.564" ry="0.623"/>
				<g>
					
						<image style="overflow:visible;" width="74" height="74" xlink:href="FD7698A72FC19553.png"  transform="matrix(1 0 0 1 444 233)">
					</image>
				</g>
			</g>
			<g>
				<ellipse class="st1" cx="505.92" cy="241.926" rx="1.375" ry="1.339"/>
				<g>
					
						<image style="overflow:visible;" width="76" height="76" xlink:href="FD7698A72FC1954C.png"  transform="matrix(1 0 0 1 468 204)">
					</image>
				</g>
			</g>
			<g>
				<ellipse class="st1" cx="531.317" cy="291.058" rx="1.375" ry="1.339"/>
				<g>
					
						<image style="overflow:visible;" width="76" height="76" xlink:href="FD7698A72FC1954E.png"  transform="matrix(1 0 0 1 493 253)">
					</image>
				</g>
			</g>
			<g>
				<ellipse class="st1" cx="512.917" cy="327.725" rx="1.375" ry="1.339"/>
				<g>
					
						<image style="overflow:visible;" width="76" height="76" xlink:href="FD7698A72FC1954B.png"  transform="matrix(1 0 0 1 475 290)">
					</image>
				</g>
			</g>
			<g>
				<ellipse class="st1" cx="512.917" cy="261.689" rx="0.687" ry="0.67"/>
				<g>
					
						<image style="overflow:visible;" width="74" height="74" xlink:href="FD7698A72FC195A9.png"  transform="matrix(1 0 0 1 476 225)">
					</image>
				</g>
			</g>
			<g>
				<ellipse class="st1" cx="529.943" cy="310.898" rx="0.687" ry="0.67"/>
				<g>
					
						<image style="overflow:visible;" width="74" height="74" xlink:href="FD7698A72FC195AF.png"  transform="matrix(1 0 0 1 493 274)">
					</image>
				</g>
			</g>
			<g>
				<ellipse class="st1" cx="395.725" cy="260.848" rx="0.687" ry="0.67"/>
				<g>
					
						<image style="overflow:visible;" width="74" height="74" xlink:href="FD7698A72FC195A8.png"  transform="matrix(1 0 0 1 359 224)">
					</image>
				</g>
			</g>
			<g>
				<ellipse class="st1" cx="433.428" cy="263.309" rx="0.687" ry="0.67"/>
				<g>
					
						<image style="overflow:visible;" width="75" height="74" xlink:href="FD7698A72FC195AB.png"  transform="matrix(1 0 0 1 396 226)">
					</image>
				</g>
			</g>
			<g>
				<ellipse class="st1" cx="412.127" cy="250.178" rx="0.687" ry="0.67"/>
				<g>
					
						<image style="overflow:visible;" width="74" height="74" xlink:href="FD7698A72FC195A7.png"  transform="matrix(1 0 0 1 375 213)">
					</image>
				</g>
			</g>
			<g>
				<ellipse class="st1" cx="470.226" cy="223.704" rx="0.687" ry="0.67"/>
				<g>
					
						<image style="overflow:visible;" width="74" height="74" xlink:href="FD7698A72FC19597.png"  transform="matrix(1 0 0 1 433 187)">
					</image>
				</g>
			</g>
			<g>
				<ellipse class="st1" cx="441.029" cy="235.778" rx="1.375" ry="1.339"/>
				<g>
					
						<image style="overflow:visible;" width="76" height="76" xlink:href="FD7698A72FC19599.png"  transform="matrix(1 0 0 1 403 198)">
					</image>
				</g>
			</g>
		</g>
		<g>
			<g>
				<ellipse class="st1" cx="80.508" cy="230.393" rx="1.128" ry="1.247"/>
				<g>
					
						<image style="overflow:visible;" width="75" height="75" xlink:href="FD7698A72FC1959B.png"  transform="matrix(1 0 0 1 43 193)">
					</image>
				</g>
			</g>
			<g>
				<ellipse class="st1" cx="69.137" cy="287.691" rx="1.375" ry="1.339"/>
				<g>
					
						<image style="overflow:visible;" width="76" height="76" xlink:href="FD7698A72FC19598.png"  transform="matrix(1 0 0 1 31 250)">
					</image>
				</g>
			</g>
			<g>
				<ellipse class="st1" cx="104.113" cy="197.832" rx="0.687" ry="0.67"/>
				<g>
					
						<image style="overflow:visible;" width="74" height="74" xlink:href="FD7698A72FC1959F.png"  transform="matrix(1 0 0 1 67 161)">
					</image>
				</g>
			</g>
			<g>
				<ellipse class="st1" cx="153.236" cy="267.995" rx="0.564" ry="0.623"/>
				<g>
					
						<image style="overflow:visible;" width="74" height="74" xlink:href="FD7698A72FC195FC.png"  transform="matrix(1 0 0 1 116 231)">
					</image>
				</g>
			</g>
			<g>
				<ellipse class="st1" cx="178.238" cy="239.828" rx="1.375" ry="1.339"/>
				<g>
					
						<image style="overflow:visible;" width="76" height="76" xlink:href="FD7698A72FC195FF.png"  transform="matrix(1 0 0 1 140 202)">
					</image>
				</g>
			</g>
			<g>
				<ellipse class="st1" cx="203.635" cy="288.96" rx="1.375" ry="1.339"/>
				<g>
					
						<image style="overflow:visible;" width="76" height="76" xlink:href="FD7698A72FC195FD.png"  transform="matrix(1 0 0 1 166 251)">
					</image>
				</g>
			</g>
			<g>
				<ellipse class="st1" cx="185.235" cy="325.627" rx="1.375" ry="1.339"/>
				<g>
					
						<image style="overflow:visible;" width="76" height="75" xlink:href="FD7698A72FC19583.png"  transform="matrix(1 0 0 1 147 288)">
					</image>
				</g>
			</g>
			<g>
				<ellipse class="st1" cx="185.235" cy="259.592" rx="0.687" ry="0.67"/>
				<g>
					
						<image style="overflow:visible;" width="74" height="75" xlink:href="FD7698A72FC19584.png"  transform="matrix(1 0 0 1 148 222)">
					</image>
				</g>
			</g>
			<g>
				<ellipse class="st1" cx="202.261" cy="308.8" rx="0.687" ry="0.67"/>
				<g>
					
						<image style="overflow:visible;" width="74" height="74" xlink:href="FD7698A72FC19587.png"  transform="matrix(1 0 0 1 165 272)">
					</image>
				</g>
			</g>
			<g>
				<ellipse class="st1" cx="68.043" cy="258.751" rx="0.687" ry="0.67"/>
				<g>
					
						<image style="overflow:visible;" width="74" height="74" xlink:href="FD7698A72FC19585.png"  transform="matrix(1 0 0 1 31 222)">
					</image>
				</g>
			</g>
			<g>
				<ellipse class="st1" cx="105.746" cy="261.211" rx="0.687" ry="0.67"/>
				<g>
					
						<image style="overflow:visible;" width="74" height="74" xlink:href="FD7698A72FC19582.png"  transform="matrix(1 0 0 1 69 224)">
					</image>
				</g>
			</g>
			<g>
				<ellipse class="st1" cx="84.446" cy="248.081" rx="0.687" ry="0.67"/>
				<g>
					
						<image style="overflow:visible;" width="75" height="74" xlink:href="FD7698A72FC1958C.png"  transform="matrix(1 0 0 1 47 211)">
					</image>
				</g>
			</g>
			<g>
				<ellipse class="st1" cx="142.544" cy="221.606" rx="0.687" ry="0.67"/>
				<g>
					
						<image style="overflow:visible;" width="75" height="75" xlink:href="FD7698A72FC1958F.png"  transform="matrix(1 0 0 1 105 184)">
					</image>
				</g>
			</g>
			<g>
				<ellipse class="st1" cx="113.347" cy="233.681" rx="1.375" ry="1.339"/>
				<g>
					
						<image style="overflow:visible;" width="76" height="76" xlink:href="FD7698A72FC195A3.png"  transform="matrix(1 0 0 1 75 196)">
					</image>
				</g>
			</g>
		</g>
		<polygon class="st19" points="549.031,519.905 453.029,575.377 403.822,546.729 357.05,519.593 453.031,465.124 		"/>
		<g>
			<polygon class="st20" points="454.994,382.154 454.995,382.153 454.999,382.156 455.79,381.701 548.886,328.135 454.987,273.491 
				454.986,273.492 454.986,273.492 454.983,273.491 454.982,273.491 361.071,327.496 454.982,382.147 			"/>
			<polygon class="st21" points="455.038,490.809 455.038,490.807 455.042,490.809 455.042,382.161 455.042,382.161 
				361.119,327.503 361.119,327.503 361.116,327.502 361.116,436.149 361.161,436.175 			"/>
			<polygon class="st22" points="548.94,328.137 455.028,382.142 455.017,382.15 455.017,490.798 455.036,490.808 455.037,490.808 
				455.039,490.809 548.945,436.807 548.945,436.808 548.945,436.795 548.945,328.138 548.94,328.141 			"/>
		</g>
		<g class="st23">
			<path class="st24" d="M290.549,376.333l-0.479-0.359l-93.127-54.743l93.509-54.316l0.662,0.207l93.142,54.75L290.549,376.333z
				 M200.906,321.243l89.715,52.736l0.268-0.155l89.403-51.96l-89.689-52.721L200.906,321.243z"/>
			<path class="st24" d="M291.661,483.893l-1.511-0.756l-92.138-54.163l-0.043-0.598V319.856l1.51,0.526l92.183,54.187V483.893z
				 M199.968,427.805l89.692,52.725V375.713l-89.692-52.723V427.805z"/>
			<path class="st24" d="M290.694,483.411l-1.036-0.518l-0.022-0.629V374.621l0.508-0.363l91.876-53.368l1.305-0.783l0.005,1.763
				v107.719l-0.498,0.302L290.694,483.411z M291.636,375.704v104.846l89.695-52.101V323.604L291.636,375.704z"/>
		</g>
		<g class="st25">
			<path class="st26" d="M290.549,593.652l-0.479-0.359l-93.127-54.743l93.509-54.315l0.662,0.207l93.142,54.749L290.549,593.652z
				 M200.906,538.56l89.715,52.736l0.268-0.156l89.403-51.96l-89.689-52.721L200.906,538.56z"/>
			<path class="st26" d="M291.661,701.211l-1.511-0.756l-92.138-54.162l-0.043-0.598V537.174l1.51,0.526l92.183,54.188V701.211z
				 M199.968,645.123l89.692,52.725V593.032l-89.692-52.724V645.123z"/>
			<path class="st26" d="M290.694,700.729l-1.036-0.518l-0.022-0.629V591.939l0.508-0.363l91.876-53.367l1.305-0.783l0.005,1.763
				v107.718l-0.498,0.302L290.694,700.729z M291.636,593.022v104.846l89.695-52.101V540.922L291.636,593.022z"/>
		</g>
		
			<linearGradient id="SVGID_6_" gradientUnits="userSpaceOnUse" x1="-2142.7124" y1="1415.2483" x2="-2142.7124" y2="1321.8621" gradientTransform="matrix(-1 0 0 -1 -1851.1881 1490.7241)">
			<stop  offset="0" style="stop-color:#3CCCD7;stop-opacity:0"/>
			<stop  offset="1" style="stop-color:#3CBBA0"/>
		</linearGradient>
		<polyline class="st27" points="197.61,168.862 197.61,75.476 385.439,75.476 385.439,168.406 		"/>
		<g>
			<polygon class="st10" points="290.614,219.941 290.615,219.94 290.619,219.943 291.41,219.488 384.506,165.922 290.607,111.278 
				290.606,111.279 290.606,111.279 290.603,111.278 290.602,111.278 196.691,165.283 290.602,219.934 			"/>
			<polygon class="st8" points="290.658,328.596 290.658,328.594 290.662,328.596 290.662,219.948 290.662,219.948 196.739,165.29 
				196.739,165.29 196.736,165.288 196.736,273.936 196.78,273.962 			"/>
			<polygon class="st9" points="384.559,165.924 290.647,219.929 290.636,219.937 290.636,328.585 290.655,328.595 290.656,328.595 
				290.658,328.596 384.564,274.594 384.564,274.595 384.564,274.582 384.564,165.925 384.559,165.928 			"/>
		</g>
		<g>
			<g>
				<circle class="st1" cx="234.053" cy="111.374" r="1.339"/>
				<g>
					
						<image style="overflow:visible;" width="76" height="75" xlink:href="FD7698A72FC195A1.png"  transform="matrix(1 0 0 1 196 74)">
					</image>
				</g>
			</g>
			<g>
				<circle class="st1" cx="217.65" cy="138.439" r="1.339"/>
				<g>
					
						<image style="overflow:visible;" width="75" height="75" xlink:href="FD7698A72FC195AE.png"  transform="matrix(1 0 0 1 180 101)">
					</image>
				</g>
			</g>
			<g>
				<circle class="st1" cx="268.298" cy="188.58" r="0.67"/>
				<g>
					
						<image style="overflow:visible;" width="74" height="75" xlink:href="FD7698A72FC195A2.png"  transform="matrix(1 0 0 1 231 151)">
					</image>
				</g>
			</g>
			<g>
				<circle class="st1" cx="228.586" cy="128.696" r="0.67"/>
				<g>
					
						<image style="overflow:visible;" width="75" height="74" xlink:href="FD7698A72FC195A5.png"  transform="matrix(1 0 0 1 191 92)">
					</image>
				</g>
			</g>
			<g>
				<circle class="st1" cx="340.528" cy="80.576" r="1.339"/>
				<g>
					
						<image style="overflow:visible;" width="75" height="75" xlink:href="FD7698A72FC195A6.png"  transform="matrix(1 0 0 1 303 43)">
					</image>
				</g>
			</g>
			<g>
				<circle class="st1" cx="365.276" cy="129.708" r="1.339"/>
				<g>
					
						<image style="overflow:visible;" width="76" height="76" xlink:href="FD7698A72FC195A4.png"  transform="matrix(1 0 0 1 327 92)">
					</image>
				</g>
			</g>
			<g>
				<circle class="st1" cx="347.346" cy="166.375" r="1.339"/>
				<g>
					
						<image style="overflow:visible;" width="75" height="75" xlink:href="FD7698A72FC195BC.png"  transform="matrix(1 0 0 1 310 129)">
					</image>
				</g>
			</g>
			<g>
				<circle class="st1" cx="347.346" cy="100.339" r="0.67"/>
				<g>
					
						<image style="overflow:visible;" width="75" height="75" xlink:href="FD7698A72FC195BD.png"  transform="matrix(1 0 0 1 310 63)">
					</image>
				</g>
			</g>
			<g>
				<circle class="st1" cx="363.936" cy="149.547" r="0.67"/>
				<g>
					
						<image style="overflow:visible;" width="74" height="75" xlink:href="FD7698A72FC195BE.png"  transform="matrix(1 0 0 1 327 112)">
					</image>
				</g>
			</g>
			<g>
				<circle class="st1" cx="223.406" cy="89.498" r="0.67"/>
				<g>
					
						<image style="overflow:visible;" width="75" height="75" xlink:href="FD7698A72FC1965A.png"  transform="matrix(1 0 0 1 186 52)">
					</image>
				</g>
			</g>
			<g>
				<circle class="st1" cx="278.659" cy="73.958" r="0.67"/>
				<g>
					
						<image style="overflow:visible;" width="75" height="74" xlink:href="FD7698A72FC19659.png"  transform="matrix(1 0 0 1 241 37)">
					</image>
				</g>
			</g>
			<g>
				<circle class="st1" cx="249.133" cy="88.828" r="0.67"/>
				<g>
					
						<image style="overflow:visible;" width="74" height="74" xlink:href="FD7698A72FC1965E.png"  transform="matrix(1 0 0 1 212 52)">
					</image>
				</g>
			</g>
			<g>
				<circle class="st1" cx="305.746" cy="62.353" r="0.67"/>
				<g>
					
						<image style="overflow:visible;" width="74" height="75" xlink:href="FD7698A72FC19658.png"  transform="matrix(1 0 0 1 269 25)">
					</image>
				</g>
			</g>
			<g>
				<circle class="st1" cx="286.066" cy="56.428" r="1.339"/>
				<g>
					
						<image style="overflow:visible;" width="76" height="75" xlink:href="FD7698A72FC1965B.png"  transform="matrix(1 0 0 1 248 19)">
					</image>
				</g>
			</g>
		</g>
		<linearGradient id="SVGID_7_" gradientUnits="userSpaceOnUse" x1="291.4007" y1="165.1125" x2="291.4007" y2="218.7194">
			<stop  offset="0" style="stop-color:#3CCCD7;stop-opacity:0"/>
			<stop  offset="1" style="stop-color:#3CB1BA"/>
		</linearGradient>
		<polyline class="st28" points="199.304,165.112 291.404,218.71 291.416,218.717 291.417,218.716 291.421,218.719 292.197,218.273 
			383.498,165.74 		"/>
		<polygon class="st19" points="225.915,328.271 130.332,382.527 130.073,493.703 226.061,439.242 		"/>
		<polygon class="st19" points="223.112,520.404 127.528,574.66 127.27,685.837 223.258,631.375 		"/>
		<polygon class="st19" points="357.05,519.593 452.918,575.426 453.176,686.603 357.189,632.141 		"/>
		<g>
			<polygon class="st10" points="290.614,483.793 290.615,483.792 290.619,483.795 291.41,483.34 384.506,429.774 290.607,375.13 
				290.606,375.131 290.606,375.131 290.603,375.13 290.602,375.13 196.691,429.135 290.602,483.786 			"/>
			<polygon class="st8" points="290.658,592.448 290.658,592.446 290.662,592.448 290.662,483.8 290.662,483.8 196.739,429.142 
				196.739,429.142 196.736,429.141 196.736,537.788 196.78,537.814 			"/>
			<polygon class="st9" points="384.559,429.776 290.647,483.781 290.636,483.789 290.636,592.437 290.655,592.447 290.656,592.447 
				290.658,592.448 384.564,538.446 384.564,538.447 384.564,538.434 384.564,429.777 384.559,429.78 			"/>
		</g>
	</g>
</g>
</svg>
