<svg xmlns="http://www.w3.org/2000/svg" viewBox="0 0 1079.36 1268"><defs><style>.cls-1{fill:#15154f;}.cls-2{fill:#e1fafb;}.cls-3{fill:#c3eaef;}.cls-4{fill:#9ddde3;}.cls-5{opacity:0.8;}.cls-6{fill:#3c8da0;}.cls-7{fill:#20738c;}.cls-8{fill:#0e627c;}.cls-9{fill:#7fccd6;}.cls-10{fill:#6abacc;}.cls-11{fill:#5ab5bf;}.cls-12{fill:#46a0af;}.cls-13{fill:#0e516b;}</style></defs><title>Obszar roboczy 11</title><g id="Warstwa_4" data-name="Warstwa 4"><rect class="cls-1" x="-14.53" y="-14.17" width="1108.41" height="1296.35"/><polygon class="cls-2" points="582.97 637.1 582.97 637.09 582.98 637.1 584.37 636.3 747.62 542.37 582.96 446.55 582.96 446.55 582.96 446.55 582.95 446.55 582.95 446.55 418.27 541.25 582.95 637.08 582.97 637.1"/><polygon class="cls-3" points="583.05 827.63 583.05 827.63 583.05 827.63 583.05 637.11 583.05 637.11 418.35 541.26 418.35 541.26 418.35 541.26 418.35 731.78 418.43 731.83 583.05 827.63"/><polygon class="cls-4" points="747.71 542.37 583.03 637.07 583.01 637.09 583.01 827.61 583.04 827.63 583.04 827.63 583.05 827.63 747.72 732.93 747.72 732.93 747.72 732.91 747.72 542.37 747.71 542.38 747.71 542.37"/><polygon class="cls-2" points="401.21 739 401.21 739 401.22 739 402.61 738.21 565.86 644.27 401.2 548.45 401.2 548.45 401.2 548.45 401.19 548.45 401.19 548.45 236.51 643.15 401.19 738.99 401.21 739"/><polygon class="cls-3" points="401.29 929.53 401.29 929.53 401.3 929.53 401.3 739.01 401.3 739.01 236.59 643.16 236.59 643.16 236.59 643.16 236.59 833.68 236.67 833.73 401.29 929.53"/><polygon class="cls-4" points="565.95 644.28 401.27 738.98 401.25 738.99 401.25 929.51 401.28 929.53 401.29 929.53 401.29 929.53 565.96 834.84 565.96 834.84 565.96 834.82 565.96 644.28 565.95 644.28 565.95 644.28"/><polygon class="cls-2" points="582.72 427.11 582.72 427.11 582.73 427.11 584.11 426.32 747.36 332.38 582.7 236.56 582.7 236.56 582.7 236.56 582.7 236.56 582.7 236.56 418.02 331.26 582.7 427.1 582.72 427.11"/><polygon class="cls-3" points="582.79 617.64 582.79 617.64 582.8 617.64 582.8 427.12 582.8 427.12 418.1 331.27 418.1 331.27 418.1 331.27 418.1 521.79 418.17 521.84 582.79 617.64"/><polygon class="cls-4" points="747.46 332.39 582.77 427.09 582.76 427.1 582.76 617.62 582.79 617.64 582.79 617.64 582.79 617.64 747.47 522.95 747.47 522.95 747.47 522.93 747.47 332.39 747.46 332.39 747.46 332.39"/><polygon class="cls-2" points="405.11 527.97 405.11 527.97 405.12 527.97 405.79 527.58 485.1 481.95 405.11 435.39 405.11 435.4 405.11 435.4 405.1 435.39 405.1 435.39 325.1 481.4 405.1 527.96 405.11 527.97"/><polygon class="cls-3" points="405.15 620.53 405.15 620.53 405.15 620.53 405.15 527.97 405.15 527.97 325.14 481.41 325.14 481.41 325.13 481.41 325.13 573.97 325.17 573.99 405.15 620.53"/><polygon class="cls-4" points="485.15 481.95 405.14 527.96 405.13 527.97 405.13 620.52 405.15 620.53 405.15 620.53 405.15 620.53 485.15 574.53 485.15 574.53 485.15 574.52 485.15 481.95 485.15 481.95 485.15 481.95"/><polygon class="cls-2" points="493.41 577.48 493.41 577.48 493.42 577.48 494.09 577.09 573.4 531.46 493.41 484.9 493.41 484.9 493.41 484.9 493.4 484.9 493.4 484.9 413.4 530.91 493.4 577.47 493.41 577.48"/><polygon class="cls-3" points="493.45 670.04 493.45 670.04 493.45 670.04 493.45 577.48 493.45 577.48 413.44 530.92 413.44 530.92 413.44 530.92 413.44 623.48 413.48 623.5 493.45 670.04"/><polygon class="cls-4" points="573.45 531.46 493.44 577.47 493.43 577.47 493.43 670.03 493.45 670.04 493.45 670.04 493.45 670.04 573.45 624.04 573.45 624.04 573.45 624.02 573.45 531.46 573.45 531.46 573.45 531.46"/><polygon class="cls-2" points="316.81 577.48 316.81 577.48 316.81 577.48 317.49 577.09 396.8 531.46 316.8 484.9 316.8 484.9 316.8 484.9 316.8 484.9 316.8 484.9 236.79 530.91 316.8 577.47 316.81 577.48"/><polygon class="cls-3" points="316.85 670.04 316.85 670.04 316.85 670.04 316.85 577.48 316.85 577.48 236.84 530.92 236.84 530.92 236.83 530.92 236.83 623.48 236.87 623.5 316.85 670.04"/><polygon class="cls-4" points="396.84 531.46 316.84 577.47 316.83 577.47 316.83 670.03 316.85 670.04 316.85 670.04 316.85 670.04 396.85 624.04 396.85 624.04 396.85 624.02 396.85 531.46 396.84 531.46 396.84 531.46"/><polygon class="cls-2" points="405.11 626.98 405.11 626.98 405.12 626.99 405.79 626.6 485.1 580.96 405.11 534.41 405.11 534.41 405.11 534.41 405.1 534.41 405.1 534.41 325.1 580.42 405.1 626.98 405.11 626.98"/><polygon class="cls-3" points="405.15 719.55 405.15 719.55 405.15 719.55 405.15 626.99 405.15 626.99 325.14 580.42 325.14 580.42 325.13 580.42 325.13 672.98 325.17 673 405.15 719.55"/><polygon class="cls-4" points="485.15 580.97 405.14 626.97 405.13 626.98 405.13 719.54 405.15 719.55 405.15 719.55 405.15 719.55 485.15 673.54 485.15 673.54 485.15 673.53 485.15 580.97 485.15 580.97 485.15 580.97"/><polygon class="cls-2" points="404.91 425.95 404.91 425.95 404.91 425.95 405.58 425.57 484.89 379.93 404.9 333.38 404.9 333.38 404.9 333.38 404.9 333.38 404.89 333.38 324.89 379.39 404.89 425.95 404.91 425.95"/><polygon class="cls-3" points="404.94 518.52 404.94 518.52 404.95 518.52 404.95 425.96 404.95 425.96 324.93 379.39 324.93 379.39 324.93 379.39 324.93 471.95 324.97 471.98 404.94 518.52"/><polygon class="cls-4" points="484.94 379.94 404.93 425.94 404.93 425.95 404.93 518.51 404.94 518.52 404.94 518.52 404.94 518.52 484.94 472.51 484.94 472.51 484.94 472.5 484.94 379.94 484.94 379.94 484.94 379.94"/><polygon class="cls-2" points="493.21 475.46 493.21 475.46 493.21 475.46 493.89 475.07 573.2 429.44 493.2 382.89 493.2 382.89 493.2 382.89 493.2 382.89 493.2 382.89 413.19 428.9 493.2 475.45 493.21 475.46"/><polygon class="cls-3" points="493.25 568.03 493.25 568.02 493.25 568.03 493.25 475.47 493.25 475.47 413.23 428.9 413.23 428.9 413.23 428.9 413.23 521.46 413.27 521.48 493.25 568.03"/><polygon class="cls-4" points="573.24 429.44 493.24 475.45 493.23 475.46 493.23 568.02 493.24 568.02 493.24 568.02 493.25 568.03 573.25 522.02 573.25 522.02 573.25 522.01 573.25 429.44 573.24 429.45 573.24 429.44"/><polygon class="cls-2" points="316.6 475.46 316.61 475.46 316.61 475.46 317.28 475.07 396.59 429.44 316.6 382.89 316.6 382.89 316.6 382.89 316.6 382.89 316.59 382.89 236.59 428.9 316.59 475.45 316.6 475.46"/><polygon class="cls-3" points="316.64 568.03 316.64 568.02 316.64 568.03 316.64 475.47 316.64 475.47 236.63 428.9 236.63 428.9 236.63 428.9 236.63 521.46 236.66 521.48 316.64 568.03"/><polygon class="cls-4" points="396.64 429.44 316.63 475.45 316.62 475.46 316.62 568.02 316.64 568.02 316.64 568.02 316.64 568.03 396.64 522.02 396.64 522.02 396.64 522.01 396.64 429.44 396.64 429.45 396.64 429.44"/><g class="cls-5"><polygon class="cls-6" points="404.91 524.97 404.91 524.97 404.91 524.97 405.58 524.58 484.89 478.95 404.9 432.4 404.9 432.4 404.9 432.4 404.9 432.4 404.89 432.4 324.89 478.4 404.89 524.96 404.91 524.97"/><polygon class="cls-7" points="404.94 617.53 404.94 617.53 404.95 617.53 404.95 524.98 404.95 524.98 324.93 478.41 324.93 478.41 324.93 478.41 324.93 570.97 324.97 570.99 404.94 617.53"/><polygon class="cls-8" points="484.94 478.95 404.93 524.96 404.93 524.97 404.93 617.52 404.94 617.53 404.94 617.53 404.94 617.53 484.94 571.53 484.94 571.53 484.94 571.52 484.94 478.95 484.94 478.95 484.94 478.95"/></g><polygon class="cls-2" points="761.24 739.51 761.25 739.51 761.25 739.51 761.92 739.12 841.23 693.49 761.24 646.93 761.24 646.94 761.24 646.94 761.24 646.93 761.23 646.93 681.23 692.94 761.23 739.5 761.24 739.51"/><polygon class="cls-3" points="761.28 832.07 761.28 832.07 761.28 832.07 761.28 739.51 761.28 739.51 681.27 692.95 681.27 692.95 681.27 692.95 681.27 785.51 681.3 785.53 761.28 832.07"/><polygon class="cls-4" points="841.28 693.49 761.27 739.5 761.26 739.5 761.26 832.06 761.28 832.07 761.28 832.07 761.28 832.07 841.28 786.07 841.28 786.07 841.28 786.06 841.28 693.49 841.28 693.49 841.28 693.49"/><polygon class="cls-2" points="849.55 789.02 849.55 789.01 849.55 789.02 850.22 788.63 929.53 743 849.54 696.44 849.54 696.44 849.54 696.44 849.54 696.44 849.54 696.44 769.53 742.45 849.54 789.01 849.55 789.02"/><polygon class="cls-3" points="849.58 881.58 849.58 881.58 849.59 881.58 849.59 789.02 849.59 789.02 769.57 742.46 769.57 742.46 769.57 742.46 769.57 835.01 769.61 835.04 849.58 881.58"/><polygon class="cls-4" points="929.58 743 849.57 789 849.57 789.01 849.57 881.57 849.58 881.58 849.58 881.58 849.58 881.58 929.58 835.58 929.58 835.58 929.58 835.57 929.58 743 929.58 743 929.58 743"/><polygon class="cls-2" points="672.94 789.02 672.94 789.01 672.95 789.02 673.62 788.63 752.93 743 672.94 696.44 672.94 696.44 672.94 696.44 672.93 696.44 672.93 696.44 592.93 742.45 672.93 789.01 672.94 789.02"/><polygon class="cls-3" points="672.98 881.58 672.98 881.58 672.98 881.58 672.98 789.02 672.98 789.02 592.97 742.46 592.97 742.46 592.97 742.46 592.97 835.01 593 835.04 672.98 881.58"/><polygon class="cls-4" points="752.98 743 672.97 789 672.96 789.01 672.96 881.57 672.98 881.58 672.98 881.58 672.98 881.58 752.98 835.58 752.98 835.58 752.98 835.57 752.98 743 752.98 743 752.98 743"/><polygon class="cls-2" points="761.24 838.52 761.25 838.52 761.25 838.52 761.92 838.14 841.23 792.5 761.24 745.95 761.24 745.95 761.24 745.95 761.24 745.95 761.23 745.95 681.23 791.96 761.23 838.52 761.24 838.52"/><polygon class="cls-3" points="761.28 931.09 761.28 931.09 761.28 931.09 761.28 838.53 761.28 838.53 681.27 791.96 681.27 791.96 681.27 791.96 681.27 884.52 681.3 884.54 761.28 931.09"/><polygon class="cls-4" points="841.28 792.5 761.27 838.51 761.26 838.52 761.26 931.08 761.28 931.09 761.28 931.09 761.28 931.09 841.28 885.08 841.28 885.08 841.28 885.07 841.28 792.51 841.28 792.51 841.28 792.5"/><polygon class="cls-2" points="761.04 637.49 761.04 637.49 761.04 637.49 761.72 637.11 841.03 591.47 761.03 544.92 761.03 544.92 761.03 544.92 761.03 544.92 761.03 544.92 681.02 590.93 761.03 637.49 761.04 637.49"/><polygon class="cls-3" points="761.08 730.06 761.08 730.06 761.08 730.06 761.08 637.5 761.08 637.5 681.06 590.93 681.06 590.93 681.06 590.93 681.06 683.49 681.1 683.51 761.08 730.06"/><polygon class="cls-4" points="841.07 591.47 761.07 637.48 761.06 637.49 761.06 730.05 761.07 730.06 761.07 730.06 761.08 730.06 841.08 684.05 841.08 684.05 841.08 684.04 841.08 591.48 841.07 591.48 841.07 591.47"/><polygon class="cls-2" points="849.34 687 849.34 687 849.34 687 850.02 686.62 929.33 640.98 849.33 594.43 849.33 594.43 849.33 594.43 849.33 594.43 849.33 594.43 769.33 640.44 849.33 687 849.34 687"/><polygon class="cls-3" points="849.38 779.57 849.38 779.56 849.38 779.57 849.38 687.01 849.38 687.01 769.37 640.44 769.37 640.44 769.36 640.44 769.36 733 769.4 733.02 849.38 779.57"/><polygon class="cls-4" points="929.37 640.98 849.37 686.99 849.36 687 849.36 779.56 849.38 779.57 849.38 779.57 849.38 779.57 929.38 733.56 929.38 733.56 929.38 733.55 929.38 640.98 929.37 640.99 929.37 640.98"/><polygon class="cls-2" points="672.74 687 672.74 687 672.74 687 673.41 686.62 752.73 640.98 672.73 594.43 672.73 594.43 672.73 594.43 672.73 594.43 672.73 594.43 592.72 640.44 672.73 687 672.74 687"/><polygon class="cls-3" points="672.77 779.57 672.77 779.56 672.78 779.57 672.78 687.01 672.78 687.01 592.76 640.44 592.76 640.44 592.76 640.44 592.76 733 592.8 733.02 672.77 779.57"/><polygon class="cls-4" points="752.77 640.98 672.76 686.99 672.75 687 672.75 779.56 672.77 779.57 672.77 779.57 672.77 779.57 752.77 733.56 752.77 733.56 752.77 733.55 752.77 640.98 752.77 640.99 752.77 640.98"/><g class="cls-5"><polygon class="cls-9" points="761.04 736.51 761.04 736.51 761.04 736.51 761.72 736.12 841.03 690.49 761.03 643.94 761.03 643.94 761.03 643.94 761.03 643.94 761.03 643.94 681.02 689.94 761.03 736.5 761.04 736.51"/><polygon class="cls-10" points="761.08 829.07 761.08 829.07 761.08 829.07 761.08 736.51 761.08 736.51 681.06 689.95 681.06 689.95 681.06 689.95 681.06 782.51 681.1 782.53 761.08 829.07"/><polygon class="cls-11" points="841.07 690.49 761.07 736.5 761.06 736.5 761.06 829.06 761.07 829.07 761.07 829.07 761.08 829.07 841.08 783.07 841.08 783.07 841.08 783.06 841.08 690.49 841.07 690.49 841.07 690.49"/></g><g class="cls-5"><polygon class="cls-11" points="582.97 840.91 582.97 840.9 582.98 840.91 584.37 840.11 747.62 746.18 582.96 650.36 582.96 650.36 582.96 650.36 582.95 650.36 582.95 650.36 418.27 745.06 582.95 840.89 582.97 840.91"/><polygon class="cls-12" points="583.05 1031.44 583.05 1031.44 583.05 1031.44 583.05 840.92 583.05 840.92 418.35 745.07 418.35 745.07 418.35 745.07 418.35 935.59 418.43 935.64 583.05 1031.44"/><polygon class="cls-6" points="747.71 746.18 583.03 840.88 583.01 840.9 583.01 1031.42 583.04 1031.44 583.04 1031.44 583.05 1031.44 747.72 936.74 747.72 936.75 747.72 936.72 747.72 746.18 747.71 746.19 747.71 746.18"/></g><g class="cls-5"><polygon class="cls-6" points="764.48 529.02 764.48 529.01 764.48 529.02 765.87 528.22 929.12 434.29 764.46 338.47 764.46 338.47 764.46 338.47 764.46 338.47 764.45 338.47 599.77 433.17 764.45 529 764.48 529.02"/><polygon class="cls-7" points="764.55 719.55 764.55 719.54 764.56 719.55 764.56 529.03 764.56 529.03 599.86 433.18 599.86 433.18 599.85 433.18 599.85 623.7 599.93 623.75 764.55 719.55"/><polygon class="cls-13" points="929.22 434.29 764.53 528.99 764.51 529.01 764.51 719.53 764.55 719.55 764.55 719.55 764.55 719.55 929.22 624.85 929.22 624.85 929.22 624.83 929.22 434.29 929.22 434.3 929.22 434.29"/></g><polygon class="cls-2" points="582.92 632.02 582.92 632.02 582.93 632.02 584.31 631.22 747.56 537.29 582.91 441.47 582.9 441.47 582.9 441.47 582.9 441.47 582.9 441.47 418.22 536.17 582.9 632.01 582.92 632.02"/><polygon class="cls-3" points="583 822.55 583 822.55 583 822.55 583 632.03 583 632.03 418.3 536.18 418.3 536.18 418.3 536.18 418.3 726.7 418.37 726.75 583 822.55"/><polygon class="cls-4" points="747.66 537.29 582.98 632 582.96 632.01 582.96 822.53 582.99 822.55 582.99 822.55 583 822.55 747.67 727.86 747.67 727.86 747.67 727.83 747.67 537.3 747.66 537.3 747.66 537.29"/><path class="cls-2" d="M161.14,823.52v-11H202.2v11Z"/><path class="cls-2" d="M161.14,803.36V788.18c0-9.06,3.28-16.84,13.64-16.84,10.05,0,14.4,7.91,14.4,16.58v4.47h13v11Zm19.45-14.93c0-4.34-2.14-6.38-5.81-6.38s-5.05,2.43-5.05,6.64v3.7h10.86Z"/><path class="cls-2" d="M161.14,764.57V737.52h9.09V753.6h7.84V739.82h9.09V753.6h15v11Z"/><path class="cls-2" d="M197.08,734.84l-7.45-6.25c2.33-2.94,4-6.64,4-9.7,0-3.32-1.08-4.72-2.91-4.72s-2.59,2.1-4,5.61L184.57,725c-1.77,4.47-5.49,8.36-11.43,8.36-7,0-12.76-6.38-12.76-15.44a20.07,20.07,0,0,1,5.49-13.78l6.83,5.49c-2,2.8-3,5.23-3,8.29,0,2.68,1,4.34,2.78,4.34s2.65-2.36,4.1-6.13l2-5c2-5.16,5.56-8.1,11.25-8.1,7,0,13.14,5.87,13.14,16.2A24.17,24.17,0,0,1,197.08,734.84Z"/><path class="cls-2" d="M181.68,685c-13.52,0-21.55-8.55-21.55-19.11a16.64,16.64,0,0,1,5.23-12l4.72,4a10.94,10.94,0,0,0-3.59,7.91c0,6.78,5.69,11.66,15,11.66,9.43,0,15.14-4.49,15.14-11.48a11.76,11.76,0,0,0-4.25-8.91l4.6-4a16.73,16.73,0,0,1,6,13.15C203,676.7,195.35,685,181.68,685Z"/><path class="cls-2" d="M160.88,646.05v-7.4H196V621.33h6.17v24.72Z"/><path class="cls-2" d="M184.08,616.34h-23.2v-7.41h23.76c9,0,12-3.39,12-8.44s-3-8.63-12-8.63H160.88v-7.12h23.2c13.57,0,18.88,6.08,18.88,15.75S197.65,616.34,184.08,616.34Z"/><path class="cls-2" d="M196.9,577.82l-5-4.31a16.48,16.48,0,0,0,4.71-10.87c0-4.7-2.11-7.27-5.33-7.27-3.4,0-4.49,2.69-6.08,6.48l-2.45,5.7c-1.69,4.11-4.92,8.44-10.95,8.44-6.59,0-11.65-5.87-11.65-14a18.4,18.4,0,0,1,5.26-12.87l4.65,3.81a13.52,13.52,0,0,0-3.55,9.06c0,3.95,1.84,6.53,4.86,6.53,3.24,0,4.44-3.18,5.84-6.64l2.34-5.62c2.05-5,5.16-8.44,11.15-8.44,6.69,0,12.28,5.62,12.28,15A21.57,21.57,0,0,1,196.9,577.82Z"/><path class="cls-2" d="M167.05,533.06v12.05h-6.17V513.62h6.17v12H202.2v7.4Z"/><path class="cls-2" d="M160.88,506.62V481.51h6.17v17.71h10.59v-15h6.16v15H196V480.87h6.17v25.75Z"/><path class="cls-2" d="M160.88,472.32V458.26c0-8.68,3-15.36,12.26-15.36,8.88,0,12.91,6.68,12.91,15.36v6.66H202.2v7.4ZM180.19,459c0-5.72-2.35-8.83-7.05-8.83s-6.39,3.11-6.39,8.83v5.89h13.44Zm3.9.62-4.37-5.36,22.48-13v8.31Z"/></g></svg>