<svg xmlns="http://www.w3.org/2000/svg" viewBox="0 0 1079.36 1268"><defs><style>.cls-1{fill:#e1fafb;}.cls-2{fill:#c3eaef;}.cls-3{fill:#9ddde3;}.cls-4{fill:#fcd197;}.cls-5{fill:#f9c478;}.cls-6{fill:#f7b763;}.cls-7{fill:#f9ab55;}.cls-8{fill:#f9a035;}.cls-9{fill:#f99f93;}.cls-10{fill:#f96a58;}.cls-11{fill:#ef5c43;}.cls-12{fill:#5ab5bf;}.cls-13{fill:#46a0af;}.cls-14{fill:#3c8da0;}</style></defs><title>Obszar roboczy 14</title><g id="Warstwa_4" data-name="Warstwa 4"><polygon class="cls-1" points="582.44 637.1 582.44 637.09 582.45 637.1 583.84 636.3 747.09 542.37 582.43 446.55 582.43 446.55 582.43 446.55 582.42 446.55 582.42 446.55 417.74 541.25 582.42 637.08 582.44 637.1"/><polygon class="cls-2" points="582.52 827.63 582.52 827.63 582.53 827.63 582.53 637.11 582.53 637.11 417.82 541.26 417.82 541.26 417.82 541.26 417.82 731.78 417.9 731.83 582.52 827.63"/><polygon class="cls-3" points="747.18 542.37 582.5 637.07 582.48 637.09 582.48 827.61 582.51 827.63 582.52 827.63 582.52 827.63 747.19 732.93 747.19 732.93 747.19 732.91 747.19 542.37 747.18 542.38 747.18 542.37"/><polygon class="cls-1" points="400.68 739 400.69 739 400.69 739 402.08 738.21 565.33 644.27 400.67 548.45 400.67 548.45 400.67 548.45 400.66 548.45 400.66 548.45 235.98 643.15 400.66 738.99 400.68 739"/><polygon class="cls-2" points="400.76 929.53 400.76 929.53 400.77 929.53 400.77 739.01 400.77 739.01 236.07 643.16 236.07 643.16 236.06 643.16 236.06 833.68 236.14 833.73 400.76 929.53"/><polygon class="cls-3" points="565.42 644.28 400.74 738.98 400.72 738.99 400.72 929.51 400.76 929.53 400.76 929.53 400.76 929.53 565.43 834.84 565.43 834.84 565.43 834.82 565.43 644.28 565.42 644.28 565.42 644.28"/><polygon class="cls-1" points="582.19 427.11 582.19 427.11 582.2 427.11 583.59 426.32 746.84 332.38 582.18 236.56 582.17 236.56 582.17 236.56 582.17 236.56 582.17 236.56 417.49 331.26 582.17 427.1 582.19 427.11"/><polygon class="cls-2" points="582.27 617.64 582.27 617.64 582.27 617.64 582.27 427.12 582.27 427.12 417.57 331.27 417.57 331.27 417.57 331.27 417.57 521.79 417.64 521.84 582.27 617.64"/><polygon class="cls-3" points="746.93 332.39 582.25 427.09 582.23 427.1 582.23 617.62 582.26 617.64 582.26 617.64 582.27 617.64 746.94 522.95 746.94 522.95 746.94 522.93 746.94 332.39 746.93 332.39 746.93 332.39"/><polygon class="cls-1" points="404.58 527.97 404.58 527.97 404.59 527.97 405.26 527.58 484.57 481.95 404.58 435.39 404.58 435.4 404.58 435.4 404.57 435.39 404.57 435.39 324.57 481.4 404.57 527.96 404.58 527.97"/><polygon class="cls-2" points="404.62 620.53 404.62 620.53 404.63 620.53 404.63 527.97 404.63 527.97 324.61 481.41 324.61 481.41 324.61 481.41 324.61 573.97 324.64 573.99 404.62 620.53"/><polygon class="cls-3" points="484.62 481.95 404.61 527.96 404.6 527.97 404.6 620.52 404.62 620.53 404.62 620.53 404.62 620.53 484.62 574.53 484.62 574.53 484.62 574.52 484.62 481.95 484.62 481.95 484.62 481.95"/><polygon class="cls-1" points="492.89 577.48 492.89 577.48 492.89 577.48 493.56 577.09 572.87 531.46 492.88 484.9 492.88 484.9 492.88 484.9 492.88 484.9 492.88 484.9 412.87 530.91 492.88 577.47 492.89 577.48"/><polygon class="cls-2" points="492.92 670.04 492.92 670.04 492.93 670.04 492.93 577.48 492.93 577.48 412.91 530.92 412.91 530.92 412.91 530.92 412.91 623.48 412.95 623.5 492.92 670.04"/><polygon class="cls-3" points="572.92 531.46 492.91 577.47 492.9 577.47 492.9 670.03 492.92 670.04 492.92 670.04 492.92 670.04 572.92 624.04 572.92 624.04 572.92 624.02 572.92 531.46 572.92 531.46 572.92 531.46"/><polygon class="cls-1" points="316.28 577.48 316.28 577.48 316.29 577.48 316.96 577.09 396.27 531.46 316.28 484.9 316.28 484.9 316.28 484.9 316.27 484.9 316.27 484.9 236.27 530.91 316.27 577.47 316.28 577.48"/><polygon class="cls-2" points="316.32 670.04 316.32 670.04 316.32 670.04 316.32 577.48 316.32 577.48 236.31 530.92 236.31 530.92 236.31 530.92 236.31 623.48 236.34 623.5 316.32 670.04"/><polygon class="cls-3" points="396.32 531.46 316.31 577.47 316.3 577.47 316.3 670.03 316.32 670.04 316.32 670.04 316.32 670.04 396.32 624.04 396.32 624.04 396.32 624.02 396.32 531.46 396.32 531.46 396.32 531.46"/><polygon class="cls-1" points="404.58 626.98 404.58 626.98 404.59 626.99 405.26 626.6 484.57 580.96 404.58 534.41 404.58 534.41 404.58 534.41 404.57 534.41 404.57 534.41 324.57 580.42 404.57 626.98 404.58 626.98"/><polygon class="cls-2" points="404.62 719.55 404.62 719.55 404.63 719.55 404.63 626.99 404.63 626.99 324.61 580.42 324.61 580.42 324.61 580.42 324.61 672.98 324.64 673 404.62 719.55"/><polygon class="cls-3" points="484.62 580.97 404.61 626.97 404.6 626.98 404.6 719.54 404.62 719.55 404.62 719.55 404.62 719.55 484.62 673.54 484.62 673.54 484.62 673.53 484.62 580.97 484.62 580.97 484.62 580.97"/><polygon class="cls-1" points="404.38 425.95 404.38 425.95 404.38 425.95 405.06 425.57 484.37 379.93 404.37 333.38 404.37 333.38 404.37 333.38 404.37 333.38 404.37 333.38 324.36 379.39 404.37 425.95 404.38 425.95"/><polygon class="cls-2" points="404.42 518.52 404.42 518.52 404.42 518.52 404.42 425.96 404.42 425.96 324.4 379.39 324.4 379.39 324.4 379.39 324.4 471.95 324.44 471.98 404.42 518.52"/><polygon class="cls-3" points="484.41 379.94 404.41 425.94 404.4 425.95 404.4 518.51 404.41 518.52 404.41 518.52 404.42 518.52 484.42 472.51 484.42 472.51 484.42 472.5 484.42 379.94 484.41 379.94 484.41 379.94"/><polygon class="cls-1" points="492.68 475.46 492.68 475.46 492.68 475.46 493.36 475.07 572.67 429.44 492.67 382.89 492.67 382.89 492.67 382.89 492.67 382.89 492.67 382.89 412.67 428.9 492.67 475.45 492.68 475.46"/><polygon class="cls-2" points="492.72 568.03 492.72 568.02 492.72 568.03 492.72 475.47 492.72 475.47 412.71 428.9 412.71 428.9 412.7 428.9 412.7 521.46 412.74 521.48 492.72 568.03"/><polygon class="cls-3" points="572.71 429.44 492.71 475.45 492.7 475.46 492.7 568.02 492.71 568.02 492.72 568.02 492.72 568.03 572.72 522.02 572.72 522.02 572.72 522.01 572.72 429.44 572.71 429.45 572.71 429.44"/><polygon class="cls-1" points="316.08 475.46 316.08 475.46 316.08 475.46 316.75 475.07 396.06 429.44 316.07 382.89 316.07 382.89 316.07 382.89 316.07 382.89 316.07 382.89 236.06 428.9 316.07 475.45 316.08 475.46"/><polygon class="cls-2" points="316.11 568.03 316.11 568.02 316.12 568.03 316.12 475.47 316.12 475.47 236.1 428.9 236.1 428.9 236.1 428.9 236.1 521.46 236.14 521.48 316.11 568.03"/><polygon class="cls-3" points="396.11 429.44 316.11 475.45 316.1 475.46 316.1 568.02 316.11 568.02 316.11 568.02 316.11 568.03 396.12 522.02 396.12 522.02 396.12 522.01 396.12 429.44 396.11 429.45 396.11 429.44"/><polygon class="cls-4" points="404.38 524.97 404.38 524.97 404.38 524.97 405.06 524.58 484.37 478.95 404.37 432.4 404.37 432.4 404.37 432.4 404.37 432.4 404.37 432.4 324.36 478.4 404.37 524.96 404.38 524.97"/><polygon class="cls-5" points="404.42 617.53 404.42 617.53 404.42 617.53 404.42 524.98 404.42 524.98 324.4 478.41 324.4 478.41 324.4 478.41 324.4 570.97 324.44 570.99 404.42 617.53"/><polygon class="cls-6" points="484.41 478.95 404.41 524.96 404.4 524.97 404.4 617.52 404.41 617.53 404.41 617.53 404.42 617.53 484.42 571.53 484.42 571.53 484.42 571.52 484.42 478.95 484.41 478.95 484.41 478.95"/><polygon class="cls-1" points="760.72 739.51 760.72 739.51 760.72 739.51 761.39 739.12 840.71 693.49 760.71 646.93 760.71 646.94 760.71 646.94 760.71 646.93 760.71 646.93 680.7 692.94 760.71 739.5 760.72 739.51"/><polygon class="cls-2" points="760.75 832.07 760.75 832.07 760.76 832.07 760.76 739.51 760.76 739.51 680.74 692.95 680.74 692.95 680.74 692.95 680.74 785.51 680.78 785.53 760.75 832.07"/><polygon class="cls-3" points="840.75 693.49 760.75 739.5 760.74 739.5 760.74 832.06 760.75 832.07 760.75 832.07 760.75 832.07 840.75 786.07 840.75 786.07 840.75 786.06 840.75 693.49 840.75 693.49 840.75 693.49"/><polygon class="cls-1" points="849.02 789.02 849.02 789.01 849.02 789.02 849.7 788.63 929.01 743 849.01 696.44 849.01 696.44 849.01 696.44 849.01 696.44 849.01 696.44 769 742.45 849.01 789.01 849.02 789.02"/><polygon class="cls-2" points="849.05 881.58 849.05 881.58 849.06 881.58 849.06 789.02 849.06 789.02 769.04 742.46 769.04 742.46 769.04 742.46 769.04 835.01 769.08 835.04 849.05 881.58"/><polygon class="cls-3" points="929.05 743 849.05 789 849.04 789.01 849.04 881.57 849.05 881.58 849.05 881.58 849.06 881.58 929.06 835.58 929.06 835.58 929.06 835.57 929.06 743 929.05 743 929.05 743"/><polygon class="cls-1" points="672.41 789.02 672.42 789.01 672.42 789.02 673.09 788.63 752.4 743 672.41 696.44 672.41 696.44 672.41 696.44 672.4 696.44 672.4 696.44 592.4 742.45 672.4 789.01 672.41 789.02"/><polygon class="cls-2" points="672.45 881.58 672.45 881.58 672.46 881.58 672.46 789.02 672.46 789.02 592.44 742.46 592.44 742.46 592.44 742.46 592.44 835.01 592.48 835.04 672.45 881.58"/><polygon class="cls-3" points="752.45 743 672.44 789 672.43 789.01 672.43 881.57 672.45 881.58 672.45 881.58 672.45 881.58 752.45 835.58 752.45 835.58 752.45 835.57 752.45 743 752.45 743 752.45 743"/><polygon class="cls-1" points="760.72 838.52 760.72 838.52 760.72 838.52 761.39 838.14 840.71 792.5 760.71 745.95 760.71 745.95 760.71 745.95 760.71 745.95 760.71 745.95 680.7 791.96 760.71 838.52 760.72 838.52"/><polygon class="cls-2" points="760.75 931.09 760.75 931.09 760.76 931.09 760.76 838.53 760.76 838.53 680.74 791.96 680.74 791.96 680.74 791.96 680.74 884.52 680.78 884.54 760.75 931.09"/><polygon class="cls-3" points="840.75 792.5 760.75 838.51 760.74 838.52 760.74 931.08 760.75 931.09 760.75 931.09 760.75 931.09 840.75 885.08 840.75 885.08 840.75 885.07 840.75 792.51 840.75 792.51 840.75 792.5"/><polygon class="cls-1" points="760.51 637.49 760.51 637.49 760.51 637.49 761.19 637.11 840.5 591.47 760.5 544.92 760.5 544.92 760.5 544.92 760.5 544.92 760.5 544.92 680.5 590.93 760.5 637.49 760.51 637.49"/><polygon class="cls-2" points="760.55 730.06 760.55 730.06 760.55 730.06 760.55 637.5 760.55 637.5 680.54 590.93 680.54 590.93 680.53 590.93 680.53 683.49 680.57 683.51 760.55 730.06"/><polygon class="cls-3" points="840.54 591.47 760.54 637.48 760.53 637.49 760.53 730.05 760.55 730.06 760.55 730.06 760.55 730.06 840.55 684.05 840.55 684.05 840.55 684.04 840.55 591.48 840.54 591.48 840.54 591.47"/><polygon class="cls-1" points="848.81 687 848.81 687 848.82 687 849.49 686.62 928.8 640.98 848.81 594.43 848.8 594.43 848.8 594.43 848.8 594.43 848.8 594.43 768.8 640.44 848.8 687 848.81 687"/><polygon class="cls-2" points="848.85 779.57 848.85 779.56 848.85 779.57 848.85 687.01 848.85 687.01 768.84 640.44 768.84 640.44 768.84 640.44 768.84 733 768.87 733.02 848.85 779.57"/><polygon class="cls-3" points="928.85 640.98 848.84 686.99 848.83 687 848.83 779.56 848.85 779.57 848.85 779.57 848.85 779.57 928.85 733.56 928.85 733.56 928.85 733.55 928.85 640.98 928.85 640.99 928.85 640.98"/><polygon class="cls-1" points="672.21 687 672.21 687 672.21 687 672.89 686.62 752.2 640.98 672.2 594.43 672.2 594.43 672.2 594.43 672.2 594.43 672.2 594.43 592.19 640.44 672.2 687 672.21 687"/><polygon class="cls-2" points="672.25 779.57 672.25 779.56 672.25 779.57 672.25 687.01 672.25 687.01 592.23 640.44 592.23 640.44 592.23 640.44 592.23 733 592.27 733.02 672.25 779.57"/><polygon class="cls-3" points="752.24 640.98 672.24 686.99 672.23 687 672.23 779.56 672.24 779.57 672.25 779.57 672.25 779.57 752.25 733.56 752.25 733.56 752.25 733.55 752.25 640.98 752.24 640.99 752.24 640.98"/><polygon class="cls-5" points="760.51 736.51 760.51 736.51 760.51 736.51 761.19 736.12 840.5 690.49 760.5 643.94 760.5 643.94 760.5 643.94 760.5 643.94 760.5 643.94 680.5 689.94 760.5 736.5 760.51 736.51"/><polygon class="cls-7" points="760.55 829.07 760.55 829.07 760.55 829.07 760.55 736.51 760.55 736.51 680.54 689.95 680.54 689.95 680.53 689.95 680.53 782.51 680.57 782.53 760.55 829.07"/><polygon class="cls-8" points="840.54 690.49 760.54 736.5 760.53 736.5 760.53 829.06 760.55 829.07 760.55 829.07 760.55 829.07 840.55 783.07 840.55 783.07 840.55 783.06 840.55 690.49 840.54 690.49 840.54 690.49"/><polygon class="cls-9" points="582.44 840.91 582.44 840.9 582.45 840.91 583.84 840.11 747.09 746.18 582.43 650.36 582.43 650.36 582.43 650.36 582.42 650.36 582.42 650.36 417.74 745.06 582.42 840.89 582.44 840.91"/><polygon class="cls-10" points="582.52 1031.44 582.52 1031.44 582.53 1031.44 582.53 840.92 582.53 840.92 417.82 745.07 417.82 745.07 417.82 745.07 417.82 935.59 417.9 935.64 582.52 1031.44"/><polygon class="cls-11" points="747.18 746.18 582.5 840.88 582.48 840.9 582.48 1031.42 582.51 1031.44 582.52 1031.44 582.52 1031.44 747.19 936.74 747.19 936.75 747.19 936.72 747.19 746.18 747.18 746.19 747.18 746.18"/><polygon class="cls-12" points="763.95 529.02 763.95 529.01 763.96 529.02 765.34 528.22 928.59 434.29 763.93 338.47 763.93 338.47 763.93 338.47 763.93 338.47 763.93 338.47 599.25 433.17 763.93 529 763.95 529.02"/><polygon class="cls-13" points="764.02 719.55 764.02 719.54 764.03 719.55 764.03 529.03 764.03 529.03 599.33 433.18 599.33 433.18 599.33 433.18 599.33 623.7 599.4 623.75 764.02 719.55"/><polygon class="cls-14" points="928.69 434.29 764.01 528.99 763.99 529.01 763.99 719.53 764.02 719.55 764.02 719.55 764.02 719.55 928.7 624.85 928.7 624.85 928.7 624.83 928.7 434.29 928.69 434.3 928.69 434.29"/><polygon class="cls-1" points="582.39 632.02 582.39 632.02 582.4 632.02 583.79 631.22 747.04 537.29 582.38 441.47 582.38 441.47 582.38 441.47 582.37 441.47 582.37 441.47 417.69 536.17 582.37 632.01 582.39 632.02"/><polygon class="cls-2" points="582.47 822.55 582.47 822.55 582.47 822.55 582.47 632.03 582.47 632.03 417.77 536.18 417.77 536.18 417.77 536.18 417.77 726.7 417.85 726.75 582.47 822.55"/><polygon class="cls-3" points="747.13 537.29 582.45 632 582.43 632.01 582.43 822.53 582.46 822.55 582.47 822.55 582.47 822.55 747.14 727.86 747.14 727.86 747.14 727.83 747.14 537.3 747.13 537.3 747.13 537.29"/><path class="cls-12" d="M161.66,826.05v-11h41.07v11Z"/><path class="cls-12" d="M161.66,805.89V790.7c0-9.06,3.29-16.84,13.65-16.84,10,0,14.4,7.91,14.4,16.59v4.46h13v11ZM181.12,791c0-4.34-2.15-6.38-5.81-6.38s-5.05,2.42-5.05,6.63v3.7h10.86Z"/><path class="cls-12" d="M161.66,767.1V740.05h9.1v16.07h7.83V742.34h9.1v13.78h15v11Z"/><path class="cls-12" d="M197.61,737.37l-7.46-6.26c2.34-2.93,4-6.63,4-9.69,0-3.32-1.07-4.73-2.9-4.73s-2.59,2.11-4,5.62l-2.15,5.17c-1.77,4.46-5.5,8.35-11.43,8.35-7,0-12.76-6.38-12.76-15.44a20.07,20.07,0,0,1,5.49-13.78l6.82,5.49c-1.95,2.81-3,5.23-3,8.29,0,2.68.94,4.34,2.78,4.34s2.65-2.36,4.1-6.12l2-5c2-5.17,5.56-8.1,11.24-8.1,6.95,0,13.14,5.87,13.14,16.2A24.18,24.18,0,0,1,197.61,737.37Z"/><path class="cls-12" d="M182.21,687.55c-13.52,0-21.56-8.55-21.56-19.11a16.64,16.64,0,0,1,5.23-12l4.73,4a11,11,0,0,0-3.59,7.91c0,6.79,5.69,11.66,15,11.66,9.43,0,15.14-4.49,15.14-11.48a11.77,11.77,0,0,0-4.25-8.9l4.6-4a16.7,16.7,0,0,1,6,13.14C203.48,679.23,195.88,687.55,182.21,687.55Z"/><path class="cls-12" d="M161.41,648.58v-7.4h35.15V623.85h6.17v24.73Z"/><path class="cls-12" d="M184.61,618.86h-23.2v-7.4h23.75c9,0,12-3.39,12-8.45s-3-8.62-12-8.62H161.41v-7.12h23.2c13.57,0,18.87,6.07,18.87,15.74S198.18,618.86,184.61,618.86Z"/><path class="cls-12" d="M197.43,580.35l-5-4.31a16.48,16.48,0,0,0,4.72-10.87c0-4.7-2.11-7.28-5.34-7.28-3.39,0-4.48,2.7-6.07,6.49l-2.45,5.7c-1.7,4.11-4.92,8.43-11,8.43-6.58,0-11.65-5.87-11.65-14a18.4,18.4,0,0,1,5.27-12.86l4.65,3.8A13.56,13.56,0,0,0,167,564.5c0,4,1.83,6.54,4.85,6.54,3.25,0,4.45-3.18,5.85-6.64l2.34-5.63c2.05-5,5.16-8.43,11.14-8.43,6.7,0,12.28,5.61,12.28,15A21.58,21.58,0,0,1,197.43,580.35Z"/><path class="cls-12" d="M167.58,535.59v12h-6.17V516.14h6.17v12.05h35.15v7.4Z"/><path class="cls-12" d="M161.41,509.15V484h6.17v17.71h10.58v-15h6.17v15h12.23V483.4h6.17v25.75Z"/><path class="cls-12" d="M161.41,474.85V460.79c0-8.68,3-15.37,12.26-15.37,8.88,0,12.91,6.69,12.91,15.37v6.66h16.15v7.4Zm19.31-13.3c0-5.71-2.35-8.83-7.05-8.83s-6.4,3.12-6.4,8.83v5.9h13.45Zm3.9.63-4.37-5.36,22.48-13v8.32Z"/></g></svg>