<svg xmlns="http://www.w3.org/2000/svg" viewBox="0 0 1079.36 1268"><defs><style>.cls-1{fill:#e1fafb;}.cls-2{fill:#c3eaef;}.cls-3{fill:#9ddde3;}.cls-4{opacity:0.8;}.cls-5{fill:#3c8da0;}.cls-6{fill:#20738c;}.cls-7{fill:#0e627c;}.cls-8{fill:#7fccd6;}.cls-9{fill:#6abacc;}.cls-10{fill:#5ab5bf;}.cls-11{fill:#46a0af;}.cls-12{fill:#0e516b;}</style></defs><title>Obszar roboczy 9</title><g id="Warstwa_4" data-name="Warstwa 4"><polygon class="cls-1" points="568.75 637.1 568.75 637.09 568.75 637.1 570.14 636.3 733.39 542.37 568.73 446.55 568.73 446.55 568.73 446.55 568.73 446.55 568.72 446.55 404.04 541.25 568.72 637.08 568.75 637.1"/><polygon class="cls-2" points="568.82 827.63 568.82 827.63 568.83 827.63 568.83 637.11 568.83 637.11 404.13 541.26 404.13 541.26 404.12 541.26 404.12 731.78 404.2 731.83 568.82 827.63"/><polygon class="cls-3" points="733.49 542.37 568.8 637.07 568.78 637.09 568.78 827.61 568.82 827.63 568.82 827.63 568.82 827.63 733.49 732.93 733.49 732.93 733.49 732.91 733.49 542.37 733.49 542.38 733.49 542.37"/><polygon class="cls-1" points="386.99 739 386.99 739 387 739 388.38 738.21 551.63 644.27 386.98 548.45 386.97 548.45 386.97 548.45 386.97 548.45 386.97 548.45 222.29 643.15 386.97 738.99 386.99 739"/><polygon class="cls-2" points="387.06 929.53 387.06 929.53 387.07 929.53 387.07 739.01 387.07 739.01 222.37 643.16 222.37 643.16 222.37 643.16 222.37 833.68 222.44 833.73 387.06 929.53"/><polygon class="cls-3" points="551.73 644.28 387.05 738.98 387.03 738.99 387.03 929.51 387.06 929.53 387.06 929.53 387.06 929.53 551.74 834.84 551.74 834.84 551.74 834.82 551.74 644.28 551.73 644.28 551.73 644.28"/><polygon class="cls-1" points="568.49 427.11 568.5 427.11 568.5 427.11 569.89 426.32 733.14 332.38 568.48 236.56 568.48 236.56 568.48 236.56 568.47 236.56 568.47 236.56 403.79 331.26 568.47 427.1 568.49 427.11"/><polygon class="cls-2" points="568.57 617.64 568.57 617.64 568.58 617.64 568.58 427.12 568.58 427.12 403.88 331.27 403.88 331.27 403.87 331.27 403.87 521.79 403.95 521.84 568.57 617.64"/><polygon class="cls-3" points="733.23 332.39 568.55 427.09 568.53 427.1 568.53 617.62 568.57 617.64 568.57 617.64 568.57 617.64 733.24 522.95 733.24 522.95 733.24 522.93 733.24 332.39 733.23 332.39 733.23 332.39"/><polygon class="cls-1" points="390.89 527.97 390.89 527.97 390.89 527.97 391.57 527.58 470.88 481.95 390.88 435.39 390.88 435.4 390.88 435.4 390.88 435.39 390.88 435.39 310.87 481.4 390.88 527.96 390.89 527.97"/><polygon class="cls-2" points="390.93 620.53 390.93 620.53 390.93 620.53 390.93 527.97 390.93 527.97 310.91 481.41 310.91 481.41 310.91 481.41 310.91 573.97 310.95 573.99 390.93 620.53"/><polygon class="cls-3" points="470.92 481.95 390.92 527.96 390.91 527.97 390.91 620.52 390.92 620.53 390.92 620.53 390.93 620.53 470.93 574.53 470.93 574.53 470.93 574.52 470.93 481.95 470.92 481.95 470.92 481.95"/><polygon class="cls-1" points="479.19 577.48 479.19 577.48 479.19 577.48 479.87 577.09 559.18 531.46 479.18 484.9 479.18 484.9 479.18 484.9 479.18 484.9 479.18 484.9 399.18 530.91 479.18 577.47 479.19 577.48"/><polygon class="cls-2" points="479.23 670.04 479.23 670.04 479.23 670.04 479.23 577.48 479.23 577.48 399.21 530.92 399.21 530.92 399.21 530.92 399.21 623.48 399.25 623.5 479.23 670.04"/><polygon class="cls-3" points="559.22 531.46 479.22 577.47 479.21 577.47 479.21 670.03 479.23 670.04 479.23 670.04 479.23 670.04 559.23 624.04 559.23 624.04 559.23 624.02 559.23 531.46 559.22 531.46 559.22 531.46"/><polygon class="cls-1" points="302.59 577.48 302.59 577.48 302.59 577.48 303.26 577.09 382.57 531.46 302.58 484.9 302.58 484.9 302.58 484.9 302.58 484.9 302.58 484.9 222.57 530.91 302.58 577.47 302.59 577.48"/><polygon class="cls-2" points="302.62 670.04 302.62 670.04 302.63 670.04 302.63 577.48 302.63 577.48 222.61 530.92 222.61 530.92 222.61 530.92 222.61 623.48 222.65 623.5 302.62 670.04"/><polygon class="cls-3" points="382.62 531.46 302.62 577.47 302.61 577.47 302.61 670.03 302.62 670.04 302.62 670.04 302.62 670.04 382.63 624.04 382.63 624.04 382.63 624.02 382.63 531.46 382.62 531.46 382.62 531.46"/><polygon class="cls-1" points="390.89 626.98 390.89 626.98 390.89 626.99 391.57 626.6 470.88 580.96 390.88 534.41 390.88 534.41 390.88 534.41 390.88 534.41 390.88 534.41 310.87 580.42 390.88 626.98 390.89 626.98"/><polygon class="cls-2" points="390.93 719.55 390.93 719.55 390.93 719.55 390.93 626.99 390.93 626.99 310.91 580.42 310.91 580.42 310.91 580.42 310.91 672.98 310.95 673 390.93 719.55"/><polygon class="cls-3" points="470.92 580.97 390.92 626.97 390.91 626.98 390.91 719.54 390.92 719.55 390.92 719.55 390.93 719.55 470.93 673.54 470.93 673.54 470.93 673.53 470.93 580.97 470.92 580.97 470.92 580.97"/><polygon class="cls-1" points="390.68 425.95 390.68 425.95 390.69 425.95 391.36 425.57 470.67 379.93 390.68 333.38 390.68 333.38 390.68 333.38 390.67 333.38 390.67 333.38 310.67 379.39 390.67 425.95 390.68 425.95"/><polygon class="cls-2" points="390.72 518.52 390.72 518.52 390.72 518.52 390.72 425.96 390.72 425.96 310.71 379.39 310.71 379.39 310.7 379.39 310.7 471.95 310.74 471.98 390.72 518.52"/><polygon class="cls-3" points="470.72 379.94 390.71 425.94 390.7 425.95 390.7 518.51 390.72 518.52 390.72 518.52 390.72 518.52 470.72 472.51 470.72 472.51 470.72 472.5 470.72 379.94 470.72 379.94 470.72 379.94"/><polygon class="cls-1" points="478.98 475.46 478.98 475.46 478.99 475.46 479.66 475.07 558.97 429.44 478.98 382.89 478.98 382.89 478.98 382.89 478.97 382.89 478.97 382.89 398.97 428.9 478.97 475.45 478.98 475.46"/><polygon class="cls-2" points="479.02 568.03 479.02 568.02 479.02 568.03 479.02 475.47 479.02 475.47 399.01 428.9 399.01 428.9 399.01 428.9 399.01 521.46 399.04 521.48 479.02 568.03"/><polygon class="cls-3" points="559.02 429.44 479.01 475.45 479 475.46 479 568.02 479.02 568.02 479.02 568.02 479.02 568.03 559.02 522.02 559.02 522.02 559.02 522.01 559.02 429.44 559.02 429.45 559.02 429.44"/><polygon class="cls-1" points="302.38 475.46 302.38 475.46 302.38 475.46 303.06 475.07 382.37 429.44 302.37 382.89 302.37 382.89 302.37 382.89 302.37 382.89 302.37 382.89 222.37 428.9 302.37 475.45 302.38 475.46"/><polygon class="cls-2" points="302.42 568.03 302.42 568.02 302.42 568.03 302.42 475.47 302.42 475.47 222.41 428.9 222.41 428.9 222.4 428.9 222.4 521.46 222.44 521.48 302.42 568.03"/><polygon class="cls-3" points="382.41 429.44 302.41 475.45 302.4 475.46 302.4 568.02 302.42 568.02 302.42 568.02 302.42 568.03 382.42 522.02 382.42 522.02 382.42 522.01 382.42 429.44 382.41 429.45 382.41 429.44"/><g class="cls-4"><polygon class="cls-5" points="390.68 524.97 390.68 524.97 390.69 524.97 391.36 524.58 470.67 478.95 390.68 432.4 390.68 432.4 390.68 432.4 390.67 432.4 390.67 432.4 310.67 478.4 390.67 524.96 390.68 524.97"/><polygon class="cls-6" points="390.72 617.53 390.72 617.53 390.72 617.53 390.72 524.98 390.72 524.98 310.71 478.41 310.71 478.41 310.7 478.41 310.7 570.97 310.74 570.99 390.72 617.53"/><polygon class="cls-7" points="470.72 478.95 390.71 524.96 390.7 524.97 390.7 617.52 390.72 617.53 390.72 617.53 390.72 617.53 470.72 571.53 470.72 571.53 470.72 571.52 470.72 478.95 470.72 478.95 470.72 478.95"/></g><polygon class="cls-1" points="747.02 739.51 747.02 739.51 747.02 739.51 747.7 739.12 827.01 693.49 747.01 646.93 747.01 646.94 747.01 646.94 747.01 646.93 747.01 646.93 667 692.94 747.01 739.5 747.02 739.51"/><polygon class="cls-2" points="747.06 832.07 747.06 832.07 747.06 832.07 747.06 739.51 747.06 739.51 667.05 692.95 667.05 692.95 667.04 692.95 667.04 785.51 667.08 785.53 747.06 832.07"/><polygon class="cls-3" points="827.05 693.49 747.05 739.5 747.04 739.5 747.04 832.06 747.05 832.07 747.06 832.07 747.06 832.07 827.06 786.07 827.06 786.07 827.06 786.06 827.06 693.49 827.05 693.49 827.05 693.49"/><polygon class="cls-1" points="835.32 789.02 835.32 789.01 835.33 789.02 836 788.63 915.31 743 835.32 696.44 835.32 696.44 835.32 696.44 835.31 696.44 835.31 696.44 755.31 742.45 835.31 789.01 835.32 789.02"/><polygon class="cls-2" points="835.36 881.58 835.36 881.58 835.36 881.58 835.36 789.02 835.36 789.02 755.35 742.46 755.35 742.46 755.35 742.46 755.35 835.01 755.38 835.04 835.36 881.58"/><polygon class="cls-3" points="915.36 743 835.35 789 835.34 789.01 835.34 881.57 835.36 881.58 835.36 881.58 835.36 881.58 915.36 835.58 915.36 835.58 915.36 835.57 915.36 743 915.36 743 915.36 743"/><polygon class="cls-1" points="658.72 789.02 658.72 789.01 658.72 789.02 659.4 788.63 738.71 743 658.71 696.44 658.71 696.44 658.71 696.44 658.71 696.44 658.71 696.44 578.7 742.45 658.71 789.01 658.72 789.02"/><polygon class="cls-2" points="658.76 881.58 658.76 881.58 658.76 881.58 658.76 789.02 658.76 789.02 578.74 742.46 578.74 742.46 578.74 742.46 578.74 835.01 578.78 835.04 658.76 881.58"/><polygon class="cls-3" points="738.75 743 658.75 789 658.74 789.01 658.74 881.57 658.75 881.58 658.75 881.58 658.76 881.58 738.76 835.58 738.76 835.58 738.76 835.57 738.76 743 738.75 743 738.75 743"/><polygon class="cls-1" points="747.02 838.52 747.02 838.52 747.02 838.52 747.7 838.14 827.01 792.5 747.01 745.95 747.01 745.95 747.01 745.95 747.01 745.95 747.01 745.95 667 791.96 747.01 838.52 747.02 838.52"/><polygon class="cls-2" points="747.06 931.09 747.06 931.09 747.06 931.09 747.06 838.53 747.06 838.53 667.05 791.96 667.05 791.96 667.04 791.96 667.04 884.52 667.08 884.54 747.06 931.09"/><polygon class="cls-3" points="827.05 792.5 747.05 838.51 747.04 838.52 747.04 931.08 747.05 931.09 747.06 931.09 747.06 931.09 827.06 885.08 827.06 885.08 827.06 885.07 827.06 792.51 827.05 792.51 827.05 792.5"/><polygon class="cls-1" points="746.81 637.49 746.82 637.49 746.82 637.49 747.49 637.11 826.8 591.47 746.81 544.92 746.81 544.92 746.81 544.92 746.8 544.92 746.8 544.92 666.8 590.93 746.8 637.49 746.81 637.49"/><polygon class="cls-2" points="746.85 730.06 746.85 730.06 746.86 730.06 746.86 637.5 746.86 637.5 666.84 590.93 666.84 590.93 666.84 590.93 666.84 683.49 666.88 683.51 746.85 730.06"/><polygon class="cls-3" points="826.85 591.47 746.84 637.48 746.83 637.49 746.83 730.05 746.85 730.06 746.85 730.06 746.85 730.06 826.85 684.05 826.85 684.05 826.85 684.04 826.85 591.48 826.85 591.48 826.85 591.47"/><polygon class="cls-1" points="835.12 687 835.12 687 835.12 687 835.79 686.62 915.1 640.98 835.11 594.43 835.11 594.43 835.11 594.43 835.11 594.43 835.11 594.43 755.1 640.44 835.11 687 835.12 687"/><polygon class="cls-2" points="835.15 779.57 835.15 779.56 835.16 779.57 835.16 687.01 835.16 687.01 755.14 640.44 755.14 640.44 755.14 640.44 755.14 733 755.18 733.02 835.15 779.57"/><polygon class="cls-3" points="915.15 640.98 835.14 686.99 835.13 687 835.13 779.56 835.15 779.57 835.15 779.57 835.15 779.57 915.15 733.56 915.15 733.56 915.15 733.55 915.15 640.98 915.15 640.99 915.15 640.98"/><polygon class="cls-1" points="658.51 687 658.51 687 658.52 687 659.19 686.62 738.5 640.98 658.51 594.43 658.5 594.43 658.5 594.43 658.5 594.43 658.5 594.43 578.5 640.44 658.5 687 658.51 687"/><polygon class="cls-2" points="658.55 779.57 658.55 779.56 658.55 779.57 658.55 687.01 658.55 687.01 578.54 640.44 578.54 640.44 578.53 640.44 578.53 733 578.57 733.02 658.55 779.57"/><polygon class="cls-3" points="738.55 640.98 658.54 686.99 658.53 687 658.53 779.56 658.55 779.57 658.55 779.57 658.55 779.57 738.55 733.56 738.55 733.56 738.55 733.55 738.55 640.98 738.55 640.99 738.55 640.98"/><g class="cls-4"><polygon class="cls-8" points="746.81 736.51 746.82 736.51 746.82 736.51 747.49 736.12 826.8 690.49 746.81 643.94 746.81 643.94 746.81 643.94 746.8 643.94 746.8 643.94 666.8 689.94 746.8 736.5 746.81 736.51"/><polygon class="cls-9" points="746.85 829.07 746.85 829.07 746.86 829.07 746.86 736.51 746.86 736.51 666.84 689.95 666.84 689.95 666.84 689.95 666.84 782.51 666.88 782.53 746.85 829.07"/><polygon class="cls-10" points="826.85 690.49 746.84 736.5 746.83 736.5 746.83 829.06 746.85 829.07 746.85 829.07 746.85 829.07 826.85 783.07 826.85 783.07 826.85 783.06 826.85 690.49 826.85 690.49 826.85 690.49"/></g><g class="cls-4"><polygon class="cls-10" points="568.75 840.91 568.75 840.9 568.75 840.91 570.14 840.11 733.39 746.18 568.73 650.36 568.73 650.36 568.73 650.36 568.73 650.36 568.72 650.36 404.04 745.06 568.72 840.89 568.75 840.91"/><polygon class="cls-11" points="568.82 1031.44 568.82 1031.44 568.83 1031.44 568.83 840.92 568.83 840.92 404.13 745.07 404.13 745.07 404.12 745.07 404.12 935.59 404.2 935.64 568.82 1031.44"/><polygon class="cls-5" points="733.49 746.18 568.8 840.88 568.78 840.9 568.78 1031.42 568.82 1031.44 568.82 1031.44 568.82 1031.44 733.49 936.74 733.49 936.75 733.49 936.72 733.49 746.18 733.49 746.19 733.49 746.18"/></g><g class="cls-4"><polygon class="cls-5" points="748.25 531.02 748.25 531.01 748.26 531.02 749.65 530.22 912.9 436.29 748.24 340.47 748.24 340.47 748.24 340.47 748.23 340.47 748.23 340.47 583.55 435.17 748.23 531 748.25 531.02"/><polygon class="cls-6" points="748.33 721.55 748.33 721.54 748.34 721.55 748.34 531.03 748.34 531.03 583.63 435.18 583.63 435.18 583.63 435.18 583.63 625.7 583.71 625.75 748.33 721.55"/><polygon class="cls-12" points="912.99 436.29 748.31 530.99 748.29 531.01 748.29 721.53 748.32 721.55 748.33 721.55 748.33 721.55 913 626.85 913 626.85 913 626.83 913 436.29 912.99 436.3 912.99 436.29"/></g><polygon class="cls-1" points="568.69 632.02 568.7 632.02 568.7 632.02 570.09 631.22 733.34 537.29 568.68 441.47 568.68 441.47 568.68 441.47 568.67 441.47 568.67 441.47 403.99 536.17 568.67 632.01 568.69 632.02"/><polygon class="cls-2" points="568.77 822.55 568.77 822.55 568.78 822.55 568.78 632.03 568.78 632.03 404.08 536.18 404.08 536.18 404.07 536.18 404.07 726.7 404.15 726.75 568.77 822.55"/><polygon class="cls-3" points="733.43 537.29 568.75 632 568.73 632.01 568.73 822.53 568.77 822.55 568.77 822.55 568.77 822.55 733.44 727.86 733.44 727.86 733.44 727.83 733.44 537.3 733.43 537.3 733.43 537.29"/><path class="cls-10" d="M148.15,823.52v-11h41.06v11Z"/><path class="cls-10" d="M148.15,803.36V788.18c0-9.06,3.29-16.84,13.65-16.84,10,0,14.4,7.91,14.4,16.58v4.47h13v11Zm19.46-14.93c0-4.34-2.15-6.38-5.81-6.38s-5.06,2.43-5.06,6.64v3.7h10.87Z"/><path class="cls-10" d="M148.15,764.57V737.52h9.1V753.6h7.83V739.82h9.1V753.6h15v11Z"/><path class="cls-10" d="M184.1,734.84l-7.46-6.25c2.34-2.94,4-6.64,4-9.7,0-3.32-1.07-4.72-2.9-4.72s-2.59,2.1-4,5.61L171.59,725c-1.77,4.47-5.5,8.36-11.43,8.36-7,0-12.76-6.38-12.76-15.44a20,20,0,0,1,5.49-13.78l6.82,5.49c-2,2.8-3,5.23-3,8.29,0,2.68.95,4.34,2.78,4.34s2.66-2.36,4.11-6.13l2-5c2-5.16,5.56-8.1,11.24-8.1,6.95,0,13.14,5.87,13.14,16.21A24.15,24.15,0,0,1,184.1,734.84Z"/><path class="cls-10" d="M168.7,685c-13.52,0-21.56-8.55-21.56-19.11a16.68,16.68,0,0,1,5.23-12l4.73,4a10.94,10.94,0,0,0-3.59,7.91c0,6.79,5.69,11.66,15,11.66s15.14-4.49,15.14-11.48a11.81,11.81,0,0,0-4.25-8.91l4.6-4a16.74,16.74,0,0,1,6,13.15C190,676.7,182.37,685,168.7,685Z"/><path class="cls-10" d="M147.9,646.05v-7.4h35.15V621.33h6.16v24.72Z"/><path class="cls-10" d="M171.1,616.34H147.9v-7.41h23.75c9,0,12-3.39,12-8.44s-3-8.63-12-8.63H147.9v-7.12h23.2c13.57,0,18.87,6.08,18.87,15.75S184.67,616.34,171.1,616.34Z"/><path class="cls-10" d="M183.92,577.82l-5-4.31a16.44,16.44,0,0,0,4.72-10.87c0-4.7-2.12-7.27-5.34-7.27-3.4,0-4.48,2.69-6.07,6.48l-2.46,5.7c-1.69,4.11-4.91,8.44-11,8.44-6.58,0-11.65-5.87-11.65-14a18.37,18.37,0,0,1,5.27-12.86l4.65,3.8a13.47,13.47,0,0,0-3.55,9.06c0,3.95,1.83,6.53,4.85,6.53,3.25,0,4.45-3.18,5.85-6.63l2.34-5.63c2-5,5.15-8.44,11.14-8.44,6.7,0,12.28,5.62,12.28,15A21.61,21.61,0,0,1,183.92,577.82Z"/><path class="cls-10" d="M154.07,533.06v12.05H147.9V513.62h6.17v12h35.14v7.4Z"/><path class="cls-10" d="M147.9,506.62V481.51h6.17v17.71h10.58v-15h6.17v15h12.23V480.87h6.16v25.75Z"/><path class="cls-10" d="M147.9,472.32V458.26c0-8.68,3-15.36,12.26-15.36,8.88,0,12.91,6.68,12.91,15.36v6.66h16.14v7.4ZM167.21,459c0-5.72-2.35-8.83-7.05-8.83s-6.4,3.11-6.4,8.83v5.89h13.45Zm3.9.62-4.37-5.36,22.47-13v8.32Z"/></g></svg>