<svg xmlns="http://www.w3.org/2000/svg" viewBox="0 0 1077.32 1268"><defs><style>.cls-1{fill:#e1fafb;}.cls-2{fill:#c3eaef;}.cls-3{fill:#9ddde3;}.cls-4{opacity:0.8;}.cls-5{fill:#fcd197;}.cls-6{fill:#f9c478;}.cls-7{fill:#f7b763;}.cls-8{fill:#f9ab55;}.cls-9{fill:#f9a035;}.cls-10{fill:#f99f93;}.cls-11{fill:#f96a58;}.cls-12{fill:#ef5c43;}.cls-13{fill:#5ab5bf;}.cls-14{fill:#46a0af;}.cls-15{fill:#3c8da0;}</style></defs><title>Obszar roboczy 8</title><g id="Warstwa_4" data-name="Warstwa 4"><polygon class="cls-1" points="566.71 637.1 566.71 637.09 566.71 637.1 568.1 636.3 731.35 542.37 566.69 446.55 566.69 446.55 566.69 446.55 566.68 446.55 566.68 446.55 402 541.25 566.68 637.08 566.71 637.1"/><polygon class="cls-2" points="566.78 827.63 566.78 827.63 566.79 827.63 566.79 637.11 566.79 637.11 402.09 541.26 402.09 541.26 402.08 541.26 402.08 731.78 402.16 731.83 566.78 827.63"/><polygon class="cls-3" points="731.45 542.37 566.76 637.07 566.74 637.09 566.74 827.61 566.78 827.63 566.78 827.63 566.78 827.63 731.45 732.93 731.45 732.93 731.45 732.91 731.45 542.37 731.45 542.38 731.45 542.37"/><polygon class="cls-1" points="384.95 739 384.95 739 384.96 739 386.34 738.21 549.59 644.27 384.94 548.45 384.93 548.45 384.93 548.45 384.93 548.45 384.93 548.45 220.25 643.15 384.93 738.99 384.95 739"/><polygon class="cls-2" points="385.02 929.53 385.02 929.53 385.03 929.53 385.03 739.01 385.03 739.01 220.33 643.16 220.33 643.16 220.32 643.16 220.32 833.68 220.4 833.73 385.02 929.53"/><polygon class="cls-3" points="549.69 644.28 385 738.98 384.99 738.99 384.99 929.51 385.02 929.53 385.02 929.53 385.02 929.53 549.7 834.84 549.7 834.84 549.7 834.82 549.7 644.28 549.69 644.28 549.69 644.28"/><polygon class="cls-1" points="566.45 427.11 566.45 427.11 566.46 427.11 567.85 426.32 731.1 332.38 566.44 236.56 566.44 236.56 566.44 236.56 566.43 236.56 566.43 236.56 401.75 331.26 566.43 427.1 566.45 427.11"/><polygon class="cls-2" points="566.53 617.64 566.53 617.64 566.54 617.64 566.54 427.12 566.54 427.12 401.83 331.27 401.83 331.27 401.83 331.27 401.83 521.79 401.91 521.84 566.53 617.64"/><polygon class="cls-3" points="731.19 332.39 566.51 427.09 566.49 427.1 566.49 617.62 566.52 617.64 566.53 617.64 566.53 617.64 731.2 522.95 731.2 522.95 731.2 522.93 731.2 332.39 731.19 332.39 731.19 332.39"/><polygon class="cls-1" points="388.85 527.97 388.85 527.97 388.85 527.97 389.53 527.58 468.84 481.95 388.84 435.39 388.84 435.4 388.84 435.4 388.84 435.39 388.84 435.39 308.83 481.4 388.84 527.96 388.85 527.97"/><polygon class="cls-2" points="388.88 620.53 388.88 620.53 388.89 620.53 388.89 527.97 388.89 527.97 308.87 481.41 308.87 481.41 308.87 481.41 308.87 573.97 308.91 573.99 388.88 620.53"/><polygon class="cls-3" points="468.88 481.95 388.88 527.96 388.87 527.97 388.87 620.52 388.88 620.53 388.88 620.53 388.88 620.53 468.89 574.53 468.89 574.53 468.89 574.52 468.89 481.95 468.88 481.95 468.88 481.95"/><polygon class="cls-1" points="477.15 577.48 477.15 577.48 477.15 577.48 477.83 577.09 557.14 531.46 477.14 484.9 477.14 484.9 477.14 484.9 477.14 484.9 477.14 484.9 397.13 530.91 477.14 577.47 477.15 577.48"/><polygon class="cls-2" points="477.19 670.04 477.19 670.04 477.19 670.04 477.19 577.48 477.19 577.48 397.18 530.92 397.18 530.92 397.17 530.92 397.17 623.48 397.21 623.5 477.19 670.04"/><polygon class="cls-3" points="557.18 531.46 477.18 577.47 477.17 577.47 477.17 670.03 477.19 670.04 477.19 670.04 477.19 670.04 557.19 624.04 557.19 624.04 557.19 624.02 557.19 531.46 557.18 531.46 557.18 531.46"/><polygon class="cls-1" points="300.55 577.48 300.55 577.48 300.55 577.48 301.22 577.09 380.53 531.46 300.54 484.9 300.54 484.9 300.54 484.9 300.54 484.9 300.54 484.9 220.53 530.91 300.54 577.47 300.55 577.48"/><polygon class="cls-2" points="300.58 670.04 300.58 670.04 300.59 670.04 300.59 577.48 300.59 577.48 220.57 530.92 220.57 530.92 220.57 530.92 220.57 623.48 220.61 623.5 300.58 670.04"/><polygon class="cls-3" points="380.58 531.46 300.57 577.47 300.56 577.47 300.56 670.03 300.58 670.04 300.58 670.04 300.58 670.04 380.58 624.04 380.58 624.04 380.58 624.02 380.58 531.46 380.58 531.46 380.58 531.46"/><polygon class="cls-1" points="388.85 626.98 388.85 626.98 388.85 626.99 389.53 626.6 468.84 580.96 388.84 534.41 388.84 534.41 388.84 534.41 388.84 534.41 388.84 534.41 308.83 580.42 388.84 626.98 388.85 626.98"/><polygon class="cls-2" points="388.88 719.55 388.88 719.55 388.89 719.55 388.89 626.99 388.89 626.99 308.87 580.42 308.87 580.42 308.87 580.42 308.87 672.98 308.91 673 388.88 719.55"/><polygon class="cls-3" points="468.88 580.97 388.88 626.97 388.87 626.98 388.87 719.54 388.88 719.55 388.88 719.55 388.88 719.55 468.89 673.54 468.89 673.54 468.89 673.53 468.89 580.97 468.88 580.97 468.88 580.97"/><polygon class="cls-1" points="388.64 425.95 388.64 425.95 388.65 425.95 389.32 425.57 468.63 379.93 388.63 333.38 388.63 333.38 388.63 333.38 388.63 333.38 388.63 333.38 308.63 379.39 388.63 425.95 388.64 425.95"/><polygon class="cls-2" points="388.68 518.52 388.68 518.52 388.68 518.52 388.68 425.96 388.68 425.96 308.67 379.39 308.67 379.39 308.67 379.39 308.67 471.95 308.7 471.98 388.68 518.52"/><polygon class="cls-3" points="468.68 379.94 388.67 425.94 388.66 425.95 388.66 518.51 388.68 518.52 388.68 518.52 388.68 518.52 468.68 472.51 468.68 472.51 468.68 472.5 468.68 379.94 468.68 379.94 468.68 379.94"/><polygon class="cls-1" points="476.94 475.46 476.94 475.46 476.95 475.46 477.62 475.07 556.93 429.44 476.94 382.89 476.94 382.89 476.94 382.89 476.93 382.89 476.93 382.89 396.93 428.9 476.93 475.45 476.94 475.46"/><polygon class="cls-2" points="476.98 568.03 476.98 568.02 476.98 568.03 476.98 475.47 476.98 475.47 396.97 428.9 396.97 428.9 396.97 428.9 396.97 521.46 397 521.48 476.98 568.03"/><polygon class="cls-3" points="556.98 429.44 476.97 475.45 476.96 475.46 476.96 568.02 476.98 568.02 476.98 568.02 476.98 568.03 556.98 522.02 556.98 522.02 556.98 522.01 556.98 429.44 556.98 429.45 556.98 429.44"/><polygon class="cls-1" points="300.34 475.46 300.34 475.46 300.34 475.46 301.02 475.07 380.33 429.44 300.33 382.89 300.33 382.89 300.33 382.89 300.33 382.89 300.33 382.89 220.32 428.9 300.33 475.45 300.34 475.46"/><polygon class="cls-2" points="300.38 568.03 300.38 568.02 300.38 568.03 300.38 475.47 300.38 475.47 220.37 428.9 220.37 428.9 220.36 428.9 220.36 521.46 220.4 521.48 300.38 568.03"/><polygon class="cls-3" points="380.37 429.44 300.37 475.45 300.36 475.46 300.36 568.02 300.38 568.02 300.38 568.02 300.38 568.03 380.38 522.02 380.38 522.02 380.38 522.01 380.38 429.44 380.37 429.45 380.37 429.44"/><g class="cls-4"><polygon class="cls-5" points="388.64 524.97 388.64 524.97 388.65 524.97 389.32 524.58 468.63 478.95 388.63 432.4 388.63 432.4 388.63 432.4 388.63 432.4 388.63 432.4 308.63 478.4 388.63 524.96 388.64 524.97"/><polygon class="cls-6" points="388.68 617.53 388.68 617.53 388.68 617.53 388.68 524.98 388.68 524.98 308.67 478.41 308.67 478.41 308.67 478.41 308.67 570.97 308.7 570.99 388.68 617.53"/><polygon class="cls-7" points="468.68 478.95 388.67 524.96 388.66 524.97 388.66 617.52 388.68 617.53 388.68 617.53 388.68 617.53 468.68 571.53 468.68 571.53 468.68 571.52 468.68 478.95 468.68 478.95 468.68 478.95"/></g><polygon class="cls-1" points="744.98 739.51 744.98 739.51 744.98 739.51 745.66 739.12 824.97 693.49 744.97 646.93 744.97 646.94 744.97 646.94 744.97 646.93 744.97 646.93 664.97 692.94 744.97 739.5 744.98 739.51"/><polygon class="cls-2" points="745.02 832.07 745.02 832.07 745.02 832.07 745.02 739.51 745.02 739.51 665 692.95 665 692.95 665 692.95 665 785.51 665.04 785.53 745.02 832.07"/><polygon class="cls-3" points="825.01 693.49 745.01 739.5 745 739.5 745 832.06 745.01 832.07 745.02 832.07 745.02 832.07 825.02 786.07 825.02 786.07 825.02 786.06 825.02 693.49 825.01 693.49 825.01 693.49"/><polygon class="cls-1" points="833.28 789.02 833.28 789.01 833.29 789.02 833.96 788.63 913.27 743 833.27 696.44 833.27 696.44 833.27 696.44 833.27 696.44 833.27 696.44 753.27 742.45 833.27 789.01 833.28 789.02"/><polygon class="cls-2" points="833.32 881.58 833.32 881.58 833.32 881.58 833.32 789.02 833.32 789.02 753.31 742.46 753.31 742.46 753.3 742.46 753.3 835.01 753.34 835.04 833.32 881.58"/><polygon class="cls-3" points="913.32 743 833.31 789 833.3 789.01 833.3 881.57 833.32 881.58 833.32 881.58 833.32 881.58 913.32 835.58 913.32 835.58 913.32 835.57 913.32 743 913.32 743 913.32 743"/><polygon class="cls-1" points="656.68 789.02 656.68 789.01 656.68 789.02 657.36 788.63 736.67 743 656.67 696.44 656.67 696.44 656.67 696.44 656.67 696.44 656.67 696.44 576.66 742.45 656.67 789.01 656.68 789.02"/><polygon class="cls-2" points="656.72 881.58 656.72 881.58 656.72 881.58 656.72 789.02 656.72 789.02 576.7 742.46 576.7 742.46 576.7 742.46 576.7 835.01 576.74 835.04 656.72 881.58"/><polygon class="cls-3" points="736.71 743 656.71 789 656.7 789.01 656.7 881.57 656.71 881.58 656.71 881.58 656.72 881.58 736.72 835.58 736.72 835.58 736.72 835.57 736.72 743 736.71 743 736.71 743"/><polygon class="cls-1" points="744.98 838.52 744.98 838.52 744.98 838.52 745.66 838.14 824.97 792.5 744.97 745.95 744.97 745.95 744.97 745.95 744.97 745.95 744.97 745.95 664.97 791.96 744.97 838.52 744.98 838.52"/><polygon class="cls-2" points="745.02 931.09 745.02 931.09 745.02 931.09 745.02 838.53 745.02 838.53 665 791.96 665 791.96 665 791.96 665 884.52 665.04 884.54 745.02 931.09"/><polygon class="cls-3" points="825.01 792.5 745.01 838.51 745 838.52 745 931.08 745.01 931.09 745.02 931.09 745.02 931.09 825.02 885.08 825.02 885.08 825.02 885.07 825.02 792.51 825.01 792.51 825.01 792.5"/><polygon class="cls-1" points="744.77 637.49 744.77 637.49 744.78 637.49 745.45 637.11 824.76 591.47 744.77 544.92 744.77 544.92 744.77 544.92 744.76 544.92 744.76 544.92 664.76 590.93 744.76 637.49 744.77 637.49"/><polygon class="cls-2" points="744.81 730.06 744.81 730.06 744.81 730.06 744.81 637.5 744.81 637.5 664.8 590.93 664.8 590.93 664.8 590.93 664.8 683.49 664.84 683.51 744.81 730.06"/><polygon class="cls-3" points="824.81 591.47 744.8 637.48 744.79 637.49 744.79 730.05 744.81 730.06 744.81 730.06 744.81 730.06 824.81 684.05 824.81 684.05 824.81 684.04 824.81 591.48 824.81 591.48 824.81 591.47"/><polygon class="cls-1" points="833.08 687 833.08 687 833.08 687 833.75 686.62 913.06 640.98 833.07 594.43 833.07 594.43 833.07 594.43 833.07 594.43 833.07 594.43 753.06 640.44 833.07 687 833.08 687"/><polygon class="cls-2" points="833.11 779.57 833.11 779.56 833.12 779.57 833.12 687.01 833.12 687.01 753.1 640.44 753.1 640.44 753.1 640.44 753.1 733 753.14 733.02 833.11 779.57"/><polygon class="cls-3" points="913.11 640.98 833.1 686.99 833.09 687 833.09 779.56 833.11 779.57 833.11 779.57 833.11 779.57 913.11 733.56 913.11 733.56 913.11 733.55 913.11 640.98 913.11 640.99 913.11 640.98"/><polygon class="cls-1" points="656.47 687 656.47 687 656.48 687 657.15 686.62 736.46 640.98 656.47 594.43 656.47 594.43 656.47 594.43 656.46 594.43 656.46 594.43 576.46 640.44 656.46 687 656.47 687"/><polygon class="cls-2" points="656.51 779.57 656.51 779.56 656.51 779.57 656.51 687.01 656.51 687.01 576.5 640.44 576.5 640.44 576.5 640.44 576.5 733 576.53 733.02 656.51 779.57"/><polygon class="cls-3" points="736.51 640.98 656.5 686.99 656.49 687 656.49 779.56 656.51 779.57 656.51 779.57 656.51 779.57 736.51 733.56 736.51 733.56 736.51 733.55 736.51 640.98 736.51 640.99 736.51 640.98"/><g class="cls-4"><polygon class="cls-6" points="744.77 736.51 744.77 736.51 744.78 736.51 745.45 736.12 824.76 690.49 744.77 643.94 744.77 643.94 744.77 643.94 744.76 643.94 744.76 643.94 664.76 689.94 744.76 736.5 744.77 736.51"/><polygon class="cls-8" points="744.81 829.07 744.81 829.07 744.81 829.07 744.81 736.51 744.81 736.51 664.8 689.95 664.8 689.95 664.8 689.95 664.8 782.51 664.84 782.53 744.81 829.07"/><polygon class="cls-9" points="824.81 690.49 744.8 736.5 744.79 736.5 744.79 829.06 744.81 829.07 744.81 829.07 744.81 829.07 824.81 783.07 824.81 783.07 824.81 783.06 824.81 690.49 824.81 690.49 824.81 690.49"/></g><g class="cls-4"><polygon class="cls-10" points="566.71 840.91 566.71 840.9 566.71 840.91 568.1 840.11 731.35 746.18 566.69 650.36 566.69 650.36 566.69 650.36 566.68 650.36 566.68 650.36 402 745.06 566.68 840.89 566.71 840.91"/><polygon class="cls-11" points="566.78 1031.44 566.78 1031.44 566.79 1031.44 566.79 840.92 566.79 840.92 402.09 745.07 402.09 745.07 402.08 745.07 402.08 935.59 402.16 935.64 566.78 1031.44"/><polygon class="cls-12" points="731.45 746.18 566.76 840.88 566.74 840.9 566.74 1031.42 566.78 1031.44 566.78 1031.44 566.78 1031.44 731.45 936.74 731.45 936.75 731.45 936.72 731.45 746.18 731.45 746.19 731.45 746.18"/></g><g class="cls-4"><polygon class="cls-13" points="748.21 529.02 748.21 529.01 748.22 529.02 749.61 528.22 912.86 434.29 748.2 338.47 748.2 338.47 748.2 338.47 748.19 338.47 748.19 338.47 583.51 433.17 748.19 529 748.21 529.02"/><polygon class="cls-14" points="748.29 719.55 748.29 719.54 748.29 719.55 748.29 529.03 748.29 529.03 583.59 433.18 583.59 433.18 583.59 433.18 583.59 623.7 583.67 623.75 748.29 719.55"/><polygon class="cls-15" points="912.95 434.29 748.27 528.99 748.25 529.01 748.25 719.53 748.28 719.55 748.28 719.55 748.29 719.55 912.96 624.85 912.96 624.85 912.96 624.83 912.96 434.29 912.95 434.3 912.95 434.29"/></g><polygon class="cls-1" points="566.65 632.02 566.65 632.02 566.66 632.02 568.05 631.22 731.3 537.29 566.64 441.47 566.64 441.47 566.64 441.47 566.63 441.47 566.63 441.47 401.95 536.17 566.63 632.01 566.65 632.02"/><polygon class="cls-2" points="566.73 822.55 566.73 822.55 566.74 822.55 566.74 632.03 566.74 632.03 402.04 536.18 402.04 536.18 402.03 536.18 402.03 726.7 402.11 726.75 566.73 822.55"/><polygon class="cls-3" points="731.39 537.29 566.71 632 566.69 632.01 566.69 822.53 566.73 822.55 566.73 822.55 566.73 822.55 731.4 727.86 731.4 727.86 731.4 727.83 731.4 537.3 731.39 537.3 731.39 537.29"/><path class="cls-13" d="M140.43,823.52v-11h41.06v11Z"/><path class="cls-13" d="M140.43,803.36V788.18c0-9.06,3.28-16.84,13.65-16.84,10,0,14.4,7.91,14.4,16.58v4.47h13v11Zm19.46-14.93c0-4.34-2.15-6.38-5.81-6.38s-5.06,2.43-5.06,6.64v3.7h10.87Z"/><path class="cls-13" d="M140.43,764.57V737.52h9.1V753.6h7.83V739.82h9.1V753.6h15v11Z"/><path class="cls-13" d="M176.37,734.84l-7.45-6.25c2.34-2.94,4-6.64,4-9.7,0-3.32-1.07-4.72-2.91-4.72s-2.59,2.1-4,5.61L163.87,725c-1.77,4.47-5.5,8.36-11.44,8.36-7,0-12.76-6.38-12.76-15.44a20,20,0,0,1,5.5-13.78l6.82,5.49c-2,2.8-3,5.23-3,8.29,0,2.68.95,4.34,2.78,4.34s2.65-2.36,4.11-6.13l2-5c2-5.16,5.56-8.1,11.25-8.1,6.95,0,13.14,5.87,13.14,16.21A24.16,24.16,0,0,1,176.37,734.84Z"/><path class="cls-13" d="M161,685c-13.52,0-21.55-8.55-21.55-19.11a16.68,16.68,0,0,1,5.23-12l4.72,4a10.93,10.93,0,0,0-3.58,7.91c0,6.78,5.68,11.66,15,11.66s15.13-4.49,15.13-11.48a11.8,11.8,0,0,0-4.24-8.91l4.6-4a16.74,16.74,0,0,1,6,13.15C182.25,676.7,174.64,685,161,685Z"/><path class="cls-13" d="M140.18,646.05v-7.4h35.15V621.33h6.16v24.72Z"/><path class="cls-13" d="M163.37,616.33H140.18v-7.4h23.75c9,0,11.95-3.39,11.95-8.44s-2.95-8.63-11.95-8.63H140.18v-7.12h23.19c13.57,0,18.88,6.08,18.88,15.75S176.94,616.33,163.37,616.33Z"/><path class="cls-13" d="M176.2,577.82l-5-4.31a16.43,16.43,0,0,0,4.71-10.87c0-4.7-2.11-7.27-5.33-7.27-3.4,0-4.49,2.69-6.08,6.48l-2.45,5.7c-1.69,4.11-4.91,8.44-11,8.44-6.58,0-11.65-5.87-11.65-14a18.37,18.37,0,0,1,5.27-12.86l4.65,3.8a13.47,13.47,0,0,0-3.55,9.06c0,3.95,1.83,6.53,4.85,6.53,3.25,0,4.45-3.18,5.85-6.64l2.34-5.62c2-5,5.15-8.44,11.14-8.44,6.7,0,12.28,5.62,12.28,15A21.61,21.61,0,0,1,176.2,577.82Z"/><path class="cls-13" d="M146.34,533.06v12.05h-6.16V513.62h6.16v12h35.15v7.4Z"/><path class="cls-13" d="M140.18,506.62V481.51h6.16v17.71h10.59v-15h6.17v15h12.23V480.87h6.16v25.75Z"/><path class="cls-13" d="M140.18,472.32V458.26c0-8.68,3-15.36,12.25-15.36,8.88,0,12.92,6.68,12.92,15.36v6.66h16.14v7.4ZM159.48,459c0-5.72-2.35-8.83-7-8.83S146,453.31,146,459v5.89h13.44Zm3.91.62L159,454.29l22.47-13v8.31Z"/></g></svg>