<svg xmlns="http://www.w3.org/2000/svg" viewBox="0 0 1077.32 1268"><defs><style>.cls-1{fill:#15154f;}.cls-2{fill:#e1fafb;}.cls-3{fill:#c3eaef;}.cls-4{fill:#9ddde3;}.cls-5{opacity:0.8;}.cls-6{fill:#fcd197;}.cls-7{fill:#f9c478;}.cls-8{fill:#f7b763;}.cls-9{fill:#f9ab55;}.cls-10{fill:#f9a035;}.cls-11{fill:#f99f93;}.cls-12{fill:#f96a58;}.cls-13{fill:#ef5c43;}.cls-14{fill:#5ab5bf;}.cls-15{fill:#46a0af;}.cls-16{fill:#3c8da0;}</style></defs><title>Obszar roboczy 10</title><g id="Warstwa_4" data-name="Warstwa 4"><rect class="cls-1" x="-15.55" y="-14.17" width="1108.41" height="1296.35"/><polygon class="cls-2" points="584.81 637.1 584.81 637.09 584.82 637.1 586.21 636.3 749.46 542.37 584.8 446.55 584.8 446.55 584.8 446.55 584.79 446.55 584.79 446.55 420.11 541.25 584.79 637.08 584.81 637.1"/><polygon class="cls-3" points="584.89 827.63 584.89 827.63 584.89 827.63 584.89 637.11 584.89 637.11 420.19 541.26 420.19 541.26 420.19 541.26 420.19 731.78 420.27 731.83 584.89 827.63"/><polygon class="cls-4" points="749.55 542.37 584.87 637.07 584.85 637.09 584.85 827.61 584.88 827.63 584.88 827.63 584.89 827.63 749.56 732.93 749.56 732.93 749.56 732.91 749.56 542.37 749.55 542.38 749.55 542.37"/><polygon class="cls-2" points="403.05 739 403.06 739 403.06 739 404.45 738.21 567.7 644.27 403.04 548.45 403.04 548.45 403.04 548.45 403.03 548.45 403.03 548.45 238.35 643.15 403.03 738.99 403.05 739"/><polygon class="cls-3" points="403.13 929.53 403.13 929.53 403.14 929.53 403.14 739.01 403.14 739.01 238.44 643.16 238.44 643.16 238.43 643.16 238.43 833.68 238.51 833.73 403.13 929.53"/><polygon class="cls-4" points="567.79 644.28 403.11 738.98 403.09 738.99 403.09 929.51 403.13 929.53 403.13 929.53 403.13 929.53 567.8 834.84 567.8 834.84 567.8 834.82 567.8 644.28 567.79 644.28 567.79 644.28"/><polygon class="cls-2" points="584.56 427.11 584.56 427.11 584.57 427.11 585.95 426.32 749.2 332.38 584.55 236.56 584.54 236.56 584.54 236.56 584.54 236.56 584.54 236.56 419.86 331.26 584.54 427.1 584.56 427.11"/><polygon class="cls-3" points="584.63 617.64 584.63 617.64 584.64 617.64 584.64 427.12 584.64 427.12 419.94 331.27 419.94 331.27 419.94 331.27 419.94 521.79 420.01 521.84 584.63 617.64"/><polygon class="cls-4" points="749.3 332.39 584.62 427.09 584.6 427.1 584.6 617.62 584.63 617.64 584.63 617.64 584.64 617.64 749.31 522.95 749.31 522.95 749.31 522.93 749.31 332.39 749.3 332.39 749.3 332.39"/><polygon class="cls-2" points="406.95 527.97 406.95 527.97 406.96 527.97 407.63 527.58 486.94 481.95 406.95 435.39 406.95 435.4 406.95 435.4 406.94 435.39 406.94 435.39 326.94 481.4 406.94 527.96 406.95 527.97"/><polygon class="cls-3" points="406.99 620.53 406.99 620.53 406.99 620.53 406.99 527.97 406.99 527.97 326.98 481.41 326.98 481.41 326.98 481.41 326.98 573.97 327.01 573.99 406.99 620.53"/><polygon class="cls-4" points="486.99 481.95 406.98 527.96 406.97 527.97 406.97 620.52 406.99 620.53 406.99 620.53 406.99 620.53 486.99 574.53 486.99 574.53 486.99 574.52 486.99 481.95 486.99 481.95 486.99 481.95"/><polygon class="cls-2" points="495.25 577.48 495.26 577.48 495.26 577.48 495.93 577.09 575.24 531.46 495.25 484.9 495.25 484.9 495.25 484.9 495.25 484.9 495.25 484.9 415.24 530.91 495.25 577.47 495.25 577.48"/><polygon class="cls-3" points="495.29 670.04 495.29 670.04 495.3 670.04 495.3 577.48 495.3 577.48 415.28 530.92 415.28 530.92 415.28 530.92 415.28 623.48 415.32 623.5 495.29 670.04"/><polygon class="cls-4" points="575.29 531.46 495.28 577.47 495.27 577.47 495.27 670.03 495.29 670.04 495.29 670.04 495.29 670.04 575.29 624.04 575.29 624.04 575.29 624.02 575.29 531.46 575.29 531.46 575.29 531.46"/><polygon class="cls-2" points="318.65 577.48 318.65 577.48 318.66 577.48 319.33 577.09 398.64 531.46 318.65 484.9 318.64 484.9 318.64 484.9 318.64 484.9 318.64 484.9 238.64 530.91 318.64 577.47 318.65 577.48"/><polygon class="cls-3" points="318.69 670.04 318.69 670.04 318.69 670.04 318.69 577.48 318.69 577.48 238.68 530.92 238.68 530.92 238.68 530.92 238.68 623.48 238.71 623.5 318.69 670.04"/><polygon class="cls-4" points="398.69 531.46 318.68 577.47 318.67 577.47 318.67 670.03 318.69 670.04 318.69 670.04 318.69 670.04 398.69 624.04 398.69 624.04 398.69 624.02 398.69 531.46 398.69 531.46 398.69 531.46"/><polygon class="cls-2" points="406.95 626.98 406.95 626.98 406.96 626.99 407.63 626.6 486.94 580.96 406.95 534.41 406.95 534.41 406.95 534.41 406.94 534.41 406.94 534.41 326.94 580.42 406.94 626.98 406.95 626.98"/><polygon class="cls-3" points="406.99 719.55 406.99 719.55 406.99 719.55 406.99 626.99 406.99 626.99 326.98 580.42 326.98 580.42 326.98 580.42 326.98 672.98 327.01 673 406.99 719.55"/><polygon class="cls-4" points="486.99 580.97 406.98 626.97 406.97 626.98 406.97 719.54 406.99 719.55 406.99 719.55 406.99 719.55 486.99 673.54 486.99 673.54 486.99 673.53 486.99 580.97 486.99 580.97 486.99 580.97"/><polygon class="cls-2" points="406.75 425.95 406.75 425.95 406.75 425.95 407.43 425.57 486.74 379.93 406.74 333.38 406.74 333.38 406.74 333.38 406.74 333.38 406.74 333.38 326.73 379.39 406.74 425.95 406.75 425.95"/><polygon class="cls-3" points="406.79 518.52 406.79 518.52 406.79 518.52 406.79 425.96 406.79 425.96 326.77 379.39 326.77 379.39 326.77 379.39 326.77 471.95 326.81 471.98 406.79 518.52"/><polygon class="cls-4" points="486.78 379.94 406.78 425.94 406.77 425.95 406.77 518.51 406.78 518.52 406.78 518.52 406.79 518.52 486.79 472.51 486.79 472.51 486.79 472.5 486.79 379.94 486.78 379.94 486.78 379.94"/><polygon class="cls-2" points="495.05 475.46 495.05 475.46 495.05 475.46 495.73 475.07 575.04 429.44 495.04 382.89 495.04 382.89 495.04 382.89 495.04 382.89 495.04 382.89 415.03 428.9 495.04 475.45 495.05 475.46"/><polygon class="cls-3" points="495.09 568.03 495.09 568.02 495.09 568.03 495.09 475.47 495.09 475.47 415.07 428.9 415.07 428.9 415.07 428.9 415.07 521.46 415.11 521.48 495.09 568.03"/><polygon class="cls-4" points="575.08 429.44 495.08 475.45 495.07 475.46 495.07 568.02 495.08 568.02 495.08 568.02 495.09 568.03 575.09 522.02 575.09 522.02 575.09 522.01 575.09 429.44 575.08 429.45 575.08 429.44"/><polygon class="cls-2" points="318.45 475.46 318.45 475.46 318.45 475.46 319.12 475.07 398.43 429.44 318.44 382.89 318.44 382.89 318.44 382.89 318.44 382.89 318.44 382.89 238.43 428.9 318.44 475.45 318.45 475.46"/><polygon class="cls-3" points="318.48 568.03 318.48 568.02 318.49 568.03 318.49 475.47 318.49 475.47 238.47 428.9 238.47 428.9 238.47 428.9 238.47 521.46 238.51 521.48 318.48 568.03"/><polygon class="cls-4" points="398.48 429.44 318.47 475.45 318.46 475.46 318.46 568.02 318.48 568.02 318.48 568.02 318.48 568.03 398.48 522.02 398.48 522.02 398.48 522.01 398.48 429.44 398.48 429.45 398.48 429.44"/><g class="cls-5"><polygon class="cls-6" points="406.75 524.97 406.75 524.97 406.75 524.97 407.43 524.58 486.74 478.95 406.74 432.4 406.74 432.4 406.74 432.4 406.74 432.4 406.74 432.4 326.73 478.4 406.74 524.96 406.75 524.97"/><polygon class="cls-7" points="406.79 617.53 406.79 617.53 406.79 617.53 406.79 524.98 406.79 524.98 326.77 478.41 326.77 478.41 326.77 478.41 326.77 570.97 326.81 570.99 406.79 617.53"/><polygon class="cls-8" points="486.78 478.95 406.78 524.96 406.77 524.97 406.77 617.52 406.78 617.53 406.78 617.53 406.79 617.53 486.79 571.53 486.79 571.53 486.79 571.52 486.79 478.95 486.78 478.95 486.78 478.95"/></g><polygon class="cls-2" points="763.09 739.51 763.09 739.51 763.09 739.51 763.76 739.12 843.07 693.49 763.08 646.93 763.08 646.94 763.08 646.94 763.08 646.93 763.08 646.93 683.07 692.94 763.08 739.5 763.09 739.51"/><polygon class="cls-3" points="763.12 832.07 763.12 832.07 763.13 832.07 763.13 739.51 763.13 739.51 683.11 692.95 683.11 692.95 683.11 692.95 683.11 785.51 683.15 785.53 763.12 832.07"/><polygon class="cls-4" points="843.12 693.49 763.11 739.5 763.11 739.5 763.11 832.06 763.12 832.07 763.12 832.07 763.12 832.07 843.12 786.07 843.12 786.07 843.12 786.06 843.12 693.49 843.12 693.49 843.12 693.49"/><polygon class="cls-2" points="851.39 789.02 851.39 789.01 851.39 789.02 852.07 788.63 931.38 743 851.38 696.44 851.38 696.44 851.38 696.44 851.38 696.44 851.38 696.44 771.37 742.45 851.38 789.01 851.39 789.02"/><polygon class="cls-3" points="851.42 881.58 851.42 881.58 851.43 881.58 851.43 789.02 851.43 789.02 771.41 742.46 771.41 742.46 771.41 742.46 771.41 835.01 771.45 835.04 851.42 881.58"/><polygon class="cls-4" points="931.42 743 851.42 789 851.41 789.01 851.41 881.57 851.42 881.58 851.42 881.58 851.42 881.58 931.43 835.58 931.43 835.58 931.43 835.57 931.43 743 931.42 743 931.42 743"/><polygon class="cls-2" points="674.78 789.02 674.78 789.01 674.79 789.02 675.46 788.63 754.77 743 674.78 696.44 674.78 696.44 674.78 696.44 674.77 696.44 674.77 696.44 594.77 742.45 674.77 789.01 674.78 789.02"/><polygon class="cls-3" points="674.82 881.58 674.82 881.58 674.83 881.58 674.83 789.02 674.83 789.02 594.81 742.46 594.81 742.46 594.81 742.46 594.81 835.01 594.85 835.04 674.82 881.58"/><polygon class="cls-4" points="754.82 743 674.81 789 674.8 789.01 674.8 881.57 674.82 881.58 674.82 881.58 674.82 881.58 754.82 835.58 754.82 835.58 754.82 835.57 754.82 743 754.82 743 754.82 743"/><polygon class="cls-2" points="763.09 838.52 763.09 838.52 763.09 838.52 763.76 838.14 843.07 792.5 763.08 745.95 763.08 745.95 763.08 745.95 763.08 745.95 763.08 745.95 683.07 791.96 763.08 838.52 763.09 838.52"/><polygon class="cls-3" points="763.12 931.09 763.12 931.09 763.13 931.09 763.13 838.53 763.13 838.53 683.11 791.96 683.11 791.96 683.11 791.96 683.11 884.52 683.15 884.54 763.12 931.09"/><polygon class="cls-4" points="843.12 792.5 763.11 838.51 763.11 838.52 763.11 931.08 763.12 931.09 763.12 931.09 763.12 931.09 843.12 885.08 843.12 885.08 843.12 885.07 843.12 792.51 843.12 792.51 843.12 792.5"/><polygon class="cls-2" points="762.88 637.49 762.88 637.49 762.88 637.49 763.56 637.11 842.87 591.47 762.87 544.92 762.87 544.92 762.87 544.92 762.87 544.92 762.87 544.92 682.86 590.93 762.87 637.49 762.88 637.49"/><polygon class="cls-3" points="762.92 730.06 762.92 730.06 762.92 730.06 762.92 637.5 762.92 637.5 682.9 590.93 682.9 590.93 682.9 590.93 682.9 683.49 682.94 683.51 762.92 730.06"/><polygon class="cls-4" points="842.91 591.47 762.91 637.48 762.9 637.49 762.9 730.05 762.91 730.06 762.92 730.06 762.92 730.06 842.92 684.05 842.92 684.05 842.92 684.04 842.92 591.48 842.91 591.48 842.91 591.47"/><polygon class="cls-2" points="851.18 687 851.18 687 851.18 687 851.86 686.62 931.17 640.98 851.17 594.43 851.17 594.43 851.17 594.43 851.17 594.43 851.17 594.43 771.17 640.44 851.17 687 851.18 687"/><polygon class="cls-3" points="851.22 779.57 851.22 779.56 851.22 779.57 851.22 687.01 851.22 687.01 771.21 640.44 771.21 640.44 771.2 640.44 771.2 733 771.24 733.02 851.22 779.57"/><polygon class="cls-4" points="931.22 640.98 851.21 686.99 851.2 687 851.2 779.56 851.22 779.57 851.22 779.57 851.22 779.57 931.22 733.56 931.22 733.56 931.22 733.55 931.22 640.98 931.22 640.99 931.22 640.98"/><polygon class="cls-2" points="674.58 687 674.58 687 674.58 687 675.26 686.62 754.57 640.98 674.57 594.43 674.57 594.43 674.57 594.43 674.57 594.43 674.57 594.43 594.56 640.44 674.57 687 674.58 687"/><polygon class="cls-3" points="674.62 779.57 674.62 779.56 674.62 779.57 674.62 687.01 674.62 687.01 594.6 640.44 594.6 640.44 594.6 640.44 594.6 733 594.64 733.02 674.62 779.57"/><polygon class="cls-4" points="754.61 640.98 674.61 686.99 674.6 687 674.6 779.56 674.61 779.57 674.61 779.57 674.62 779.57 754.62 733.56 754.62 733.56 754.62 733.55 754.62 640.98 754.61 640.99 754.61 640.98"/><g class="cls-5"><polygon class="cls-7" points="762.88 736.51 762.88 736.51 762.88 736.51 763.56 736.12 842.87 690.49 762.87 643.94 762.87 643.94 762.87 643.94 762.87 643.94 762.87 643.94 682.86 689.94 762.87 736.5 762.88 736.51"/><polygon class="cls-9" points="762.92 829.07 762.92 829.07 762.92 829.07 762.92 736.51 762.92 736.51 682.9 689.95 682.9 689.95 682.9 689.95 682.9 782.51 682.94 782.53 762.92 829.07"/><polygon class="cls-10" points="842.91 690.49 762.91 736.5 762.9 736.5 762.9 829.06 762.91 829.07 762.92 829.07 762.92 829.07 842.92 783.07 842.92 783.07 842.92 783.06 842.92 690.49 842.91 690.49 842.91 690.49"/></g><g class="cls-5"><polygon class="cls-11" points="584.81 840.91 584.81 840.9 584.82 840.91 586.21 840.11 749.46 746.18 584.8 650.36 584.8 650.36 584.8 650.36 584.79 650.36 584.79 650.36 420.11 745.06 584.79 840.89 584.81 840.91"/><polygon class="cls-12" points="584.89 1031.44 584.89 1031.44 584.89 1031.44 584.89 840.92 584.89 840.92 420.19 745.07 420.19 745.07 420.19 745.07 420.19 935.59 420.27 935.64 584.89 1031.44"/><polygon class="cls-13" points="749.55 746.18 584.87 840.88 584.85 840.9 584.85 1031.42 584.88 1031.44 584.88 1031.44 584.89 1031.44 749.56 936.74 749.56 936.75 749.56 936.72 749.56 746.18 749.55 746.19 749.55 746.18"/></g><g class="cls-5"><polygon class="cls-14" points="766.32 529.02 766.32 529.01 766.33 529.02 767.71 528.22 930.96 434.29 766.3 338.47 766.3 338.47 766.3 338.47 766.3 338.47 766.29 338.47 601.62 433.17 766.29 529 766.32 529.02"/><polygon class="cls-15" points="766.39 719.55 766.39 719.54 766.4 719.55 766.4 529.03 766.4 529.03 601.7 433.18 601.7 433.18 601.69 433.18 601.69 623.7 601.77 623.75 766.39 719.55"/><polygon class="cls-16" points="931.06 434.29 766.38 528.99 766.36 529.01 766.36 719.53 766.39 719.55 766.39 719.55 766.39 719.55 931.07 624.85 931.07 624.85 931.07 624.83 931.07 434.29 931.06 434.3 931.06 434.29"/></g><polygon class="cls-2" points="584.76 632.02 584.76 632.02 584.77 632.02 586.15 631.22 749.4 537.29 584.75 441.47 584.75 441.47 584.75 441.47 584.74 441.47 584.74 441.47 420.06 536.17 584.74 632.01 584.76 632.02"/><polygon class="cls-3" points="584.84 822.55 584.84 822.55 584.84 822.55 584.84 632.03 584.84 632.03 420.14 536.18 420.14 536.18 420.14 536.18 420.14 726.7 420.21 726.75 584.84 822.55"/><polygon class="cls-4" points="749.5 537.29 584.82 632 584.8 632.01 584.8 822.53 584.83 822.55 584.83 822.55 584.84 822.55 749.51 727.86 749.51 727.86 749.51 727.83 749.51 537.3 749.5 537.3 749.5 537.29"/><path class="cls-2" d="M157.26,823.52v-11h41.06v11Z"/><path class="cls-2" d="M157.26,803.36V788.18c0-9.06,3.28-16.84,13.64-16.84,10,0,14.4,7.91,14.4,16.58v4.47h13v11Zm19.45-14.93c0-4.34-2.14-6.38-5.81-6.38s-5.05,2.43-5.05,6.64v3.7h10.86Z"/><path class="cls-2" d="M157.26,764.57V737.52h9.09V753.6h7.84V739.82h9.09V753.6h15v11Z"/><path class="cls-2" d="M193.2,734.84l-7.45-6.25c2.33-2.94,4-6.64,4-9.7,0-3.32-1.08-4.72-2.91-4.72s-2.59,2.1-4,5.61L180.69,725c-1.77,4.47-5.49,8.36-11.43,8.36-7,0-12.76-6.38-12.76-15.44A20.07,20.07,0,0,1,162,704.09l6.83,5.49c-2,2.8-3,5.23-3,8.29,0,2.68.94,4.34,2.78,4.34s2.65-2.36,4.1-6.13l2-5c2-5.16,5.56-8.1,11.25-8.1,6.94,0,13.13,5.87,13.13,16.21A24.15,24.15,0,0,1,193.2,734.84Z"/><path class="cls-2" d="M177.8,685c-13.52,0-21.56-8.55-21.56-19.11a16.65,16.65,0,0,1,5.24-12l4.72,4a10.94,10.94,0,0,0-3.59,7.91c0,6.78,5.69,11.66,15,11.66,9.43,0,15.14-4.49,15.14-11.48a11.81,11.81,0,0,0-4.25-8.91l4.6-4a16.74,16.74,0,0,1,6,13.15C199.07,676.7,191.47,685,177.8,685Z"/><path class="cls-2" d="M157,646.05v-7.4h35.15V621.33h6.17v24.72Z"/><path class="cls-2" d="M180.2,616.34H157v-7.41h23.76c9,0,12-3.39,12-8.44s-3-8.63-12-8.63H157v-7.12h23.2c13.57,0,18.87,6.08,18.87,15.75S193.77,616.34,180.2,616.34Z"/><path class="cls-2" d="M193,577.82l-5-4.31a16.44,16.44,0,0,0,4.72-10.87c0-4.7-2.11-7.27-5.33-7.27-3.4,0-4.49,2.69-6.08,6.48l-2.45,5.7c-1.7,4.11-4.92,8.44-11,8.44-6.58,0-11.65-5.87-11.65-14a18.37,18.37,0,0,1,5.27-12.86l4.65,3.8a13.52,13.52,0,0,0-3.55,9.06c0,3.95,1.83,6.53,4.85,6.53,3.25,0,4.45-3.18,5.85-6.64l2.34-5.62c2-5,5.16-8.44,11.14-8.44,6.7,0,12.28,5.62,12.28,15A21.56,21.56,0,0,1,193,577.82Z"/><path class="cls-2" d="M163.17,533.06v12.05H157V513.62h6.17v12h35.15v7.4Z"/><path class="cls-2" d="M157,506.62V481.51h6.17v17.71h10.59v-15h6.16v15h12.23V480.87h6.17v25.75Z"/><path class="cls-2" d="M157,472.32V458.26c0-8.68,3-15.36,12.26-15.36,8.88,0,12.91,6.68,12.91,15.36v6.66h16.15v7.4ZM176.31,459c0-5.72-2.35-8.83-7.05-8.83s-6.4,3.11-6.4,8.83v5.89h13.45Zm3.9.62-4.37-5.36,22.48-13v8.31Z"/></g></svg>