<svg xmlns="http://www.w3.org/2000/svg" viewBox="0 0 1079.36 1268"><defs><style>.cls-1{fill:#e1fafb;}.cls-2{fill:#c3eaef;}.cls-3{fill:#9ddde3;}.cls-4{fill:#3c8da0;}.cls-5{fill:#20738c;}.cls-6{fill:#0e627c;}.cls-7{fill:#7fccd6;}.cls-8{fill:#6abacc;}.cls-9{fill:#5ab5bf;}.cls-10{fill:#46a0af;}.cls-11{fill:#0e516b;}</style></defs><title>Obszar roboczy 16</title><g id="Warstwa_4" data-name="Warstwa 4"><polygon class="cls-1" points="616.2 637.1 616.2 637.09 616.21 637.1 617.6 636.3 780.85 542.37 616.19 446.55 616.19 446.55 616.19 446.55 616.18 446.55 616.18 446.55 451.5 541.25 616.18 637.08 616.2 637.1"/><polygon class="cls-2" points="616.28 827.63 616.28 827.63 616.28 827.63 616.28 637.11 616.28 637.11 451.58 541.26 451.58 541.26 451.58 541.26 451.58 731.78 451.66 731.83 616.28 827.63"/><polygon class="cls-3" points="780.94 542.37 616.26 637.07 616.24 637.09 616.24 827.61 616.27 827.63 616.28 827.63 616.28 827.63 780.95 732.93 780.95 732.93 780.95 732.91 780.95 542.37 780.94 542.38 780.94 542.37"/><polygon class="cls-1" points="434.44 739 434.44 739 434.45 739 435.84 738.21 599.09 644.27 434.43 548.45 434.43 548.45 434.43 548.45 434.42 548.45 434.42 548.45 269.74 643.15 434.42 738.99 434.44 739"/><polygon class="cls-2" points="434.52 929.53 434.52 929.53 434.53 929.53 434.53 739.01 434.53 739.01 269.83 643.16 269.83 643.16 269.82 643.16 269.82 833.68 269.9 833.73 434.52 929.53"/><polygon class="cls-3" points="599.18 644.28 434.5 738.98 434.48 738.99 434.48 929.51 434.52 929.53 434.52 929.53 434.52 929.53 599.19 834.84 599.19 834.84 599.19 834.82 599.19 644.28 599.18 644.28 599.18 644.28"/><polygon class="cls-1" points="615.95 427.11 615.95 427.11 615.96 427.11 617.35 426.32 780.6 332.38 615.94 236.56 615.93 236.56 615.93 236.56 615.93 236.56 615.93 236.56 451.25 331.26 615.93 427.1 615.95 427.11"/><polygon class="cls-2" points="616.03 617.64 616.03 617.64 616.03 617.64 616.03 427.12 616.03 427.12 451.33 331.27 451.33 331.27 451.33 331.27 451.33 521.79 451.4 521.84 616.03 617.64"/><polygon class="cls-3" points="780.69 332.39 616.01 427.09 615.99 427.1 615.99 617.62 616.02 617.64 616.02 617.64 616.03 617.64 780.7 522.95 780.7 522.95 780.7 522.93 780.7 332.39 780.69 332.39 780.69 332.39"/><polygon class="cls-1" points="438.34 527.97 438.35 527.97 438.35 527.97 439.02 527.58 518.33 481.95 438.34 435.39 438.34 435.4 438.34 435.4 438.33 435.39 438.33 435.39 358.33 481.4 438.33 527.96 438.34 527.97"/><polygon class="cls-2" points="438.38 620.53 438.38 620.53 438.38 620.53 438.38 527.97 438.38 527.97 358.37 481.41 358.37 481.41 358.37 481.41 358.37 573.97 358.4 573.99 438.38 620.53"/><polygon class="cls-3" points="518.38 481.95 438.37 527.96 438.36 527.97 438.36 620.52 438.38 620.53 438.38 620.53 438.38 620.53 518.38 574.53 518.38 574.53 518.38 574.52 518.38 481.95 518.38 481.95 518.38 481.95"/><polygon class="cls-1" points="526.65 577.48 526.65 577.48 526.65 577.48 527.32 577.09 606.63 531.46 526.64 484.9 526.64 484.9 526.64 484.9 526.64 484.9 526.63 484.9 446.63 530.91 526.63 577.47 526.65 577.48"/><polygon class="cls-2" points="526.68 670.04 526.68 670.04 526.69 670.04 526.69 577.48 526.69 577.48 446.67 530.92 446.67 530.92 446.67 530.92 446.67 623.48 446.71 623.5 526.68 670.04"/><polygon class="cls-3" points="606.68 531.46 526.67 577.47 526.66 577.47 526.66 670.03 526.68 670.04 526.68 670.04 526.68 670.04 606.68 624.04 606.68 624.04 606.68 624.02 606.68 531.46 606.68 531.46 606.68 531.46"/><polygon class="cls-1" points="350.04 577.48 350.04 577.48 350.05 577.48 350.72 577.09 430.03 531.46 350.04 484.9 350.04 484.9 350.04 484.9 350.03 484.9 350.03 484.9 270.03 530.91 350.03 577.47 350.04 577.48"/><polygon class="cls-2" points="350.08 670.04 350.08 670.04 350.08 670.04 350.08 577.48 350.08 577.48 270.07 530.92 270.07 530.92 270.06 530.92 270.06 623.48 270.1 623.5 350.08 670.04"/><polygon class="cls-3" points="430.08 531.46 350.07 577.47 350.06 577.47 350.06 670.03 350.08 670.04 350.08 670.04 350.08 670.04 430.08 624.04 430.08 624.04 430.08 624.02 430.08 531.46 430.08 531.46 430.08 531.46"/><polygon class="cls-1" points="438.34 626.98 438.35 626.98 438.35 626.99 439.02 626.6 518.33 580.96 438.34 534.41 438.34 534.41 438.34 534.41 438.33 534.41 438.33 534.41 358.33 580.42 438.33 626.98 438.34 626.98"/><polygon class="cls-2" points="438.38 719.55 438.38 719.55 438.38 719.55 438.38 626.99 438.38 626.99 358.37 580.42 358.37 580.42 358.37 580.42 358.37 672.98 358.4 673 438.38 719.55"/><polygon class="cls-3" points="518.38 580.97 438.37 626.97 438.36 626.98 438.36 719.54 438.38 719.55 438.38 719.55 438.38 719.55 518.38 673.54 518.38 673.54 518.38 673.53 518.38 580.97 518.38 580.97 518.38 580.97"/><polygon class="cls-1" points="438.14 425.95 438.14 425.95 438.14 425.95 438.82 425.57 518.13 379.93 438.13 333.38 438.13 333.38 438.13 333.38 438.13 333.38 438.13 333.38 358.12 379.39 438.13 425.95 438.14 425.95"/><polygon class="cls-2" points="438.18 518.52 438.18 518.52 438.18 518.52 438.18 425.96 438.18 425.96 358.16 379.39 358.16 379.39 358.16 379.39 358.16 471.95 358.2 471.98 438.18 518.52"/><polygon class="cls-3" points="518.17 379.94 438.17 425.94 438.16 425.95 438.16 518.51 438.17 518.52 438.17 518.52 438.18 518.52 518.18 472.51 518.18 472.51 518.18 472.5 518.18 379.94 518.17 379.94 518.17 379.94"/><polygon class="cls-1" points="526.44 475.46 526.44 475.46 526.44 475.46 527.12 475.07 606.43 429.44 526.43 382.89 526.43 382.89 526.43 382.89 526.43 382.89 526.43 382.89 446.42 428.9 526.43 475.45 526.44 475.46"/><polygon class="cls-2" points="526.48 568.03 526.48 568.02 526.48 568.03 526.48 475.47 526.48 475.47 446.46 428.9 446.46 428.9 446.46 428.9 446.46 521.46 446.5 521.48 526.48 568.03"/><polygon class="cls-3" points="606.47 429.44 526.47 475.45 526.46 475.46 526.46 568.02 526.48 568.02 526.48 568.02 526.48 568.03 606.48 522.02 606.48 522.02 606.48 522.01 606.48 429.44 606.47 429.45 606.47 429.44"/><polygon class="cls-1" points="349.84 475.46 349.84 475.46 349.84 475.46 350.51 475.07 429.82 429.44 349.83 382.89 349.83 382.89 349.83 382.89 349.83 382.89 349.83 382.89 269.82 428.9 349.83 475.45 349.84 475.46"/><polygon class="cls-2" points="349.87 568.03 349.87 568.02 349.88 568.03 349.88 475.47 349.88 475.47 269.86 428.9 269.86 428.9 269.86 428.9 269.86 521.46 269.9 521.48 349.87 568.03"/><polygon class="cls-3" points="429.87 429.44 349.87 475.45 349.86 475.46 349.86 568.02 349.87 568.02 349.87 568.02 349.87 568.03 429.87 522.02 429.87 522.02 429.87 522.01 429.87 429.44 429.87 429.45 429.87 429.44"/><polygon class="cls-4" points="438.14 524.97 438.14 524.97 438.14 524.97 438.82 524.58 518.13 478.95 438.13 432.4 438.13 432.4 438.13 432.4 438.13 432.4 438.13 432.4 358.12 478.4 438.13 524.96 438.14 524.97"/><polygon class="cls-5" points="438.18 617.53 438.18 617.53 438.18 617.53 438.18 524.98 438.18 524.98 358.16 478.41 358.16 478.41 358.16 478.41 358.16 570.97 358.2 570.99 438.18 617.53"/><polygon class="cls-6" points="518.17 478.95 438.17 524.96 438.16 524.97 438.16 617.52 438.17 617.53 438.17 617.53 438.18 617.53 518.18 571.53 518.18 571.53 518.18 571.52 518.18 478.95 518.17 478.95 518.17 478.95"/><polygon class="cls-1" points="794.48 739.51 794.48 739.51 794.48 739.51 795.15 739.12 874.47 693.49 794.47 646.93 794.47 646.94 794.47 646.94 794.47 646.93 794.47 646.93 714.46 692.94 794.47 739.5 794.48 739.51"/><polygon class="cls-2" points="794.51 832.07 794.51 832.07 794.52 832.07 794.52 739.51 794.52 739.51 714.5 692.95 714.5 692.95 714.5 692.95 714.5 785.51 714.54 785.53 794.51 832.07"/><polygon class="cls-3" points="874.51 693.49 794.5 739.5 794.5 739.5 794.5 832.06 794.51 832.07 794.51 832.07 794.51 832.07 874.51 786.07 874.51 786.07 874.51 786.06 874.51 693.49 874.51 693.49 874.51 693.49"/><polygon class="cls-1" points="882.78 789.02 882.78 789.01 882.78 789.02 883.46 788.63 962.77 743 882.77 696.44 882.77 696.44 882.77 696.44 882.77 696.44 882.77 696.44 802.76 742.45 882.77 789.01 882.78 789.02"/><polygon class="cls-2" points="882.82 881.58 882.82 881.58 882.82 881.58 882.82 789.02 882.82 789.02 802.8 742.46 802.8 742.46 802.8 742.46 802.8 835.01 802.84 835.04 882.82 881.58"/><polygon class="cls-3" points="962.81 743 882.81 789 882.8 789.01 882.8 881.57 882.81 881.58 882.81 881.58 882.82 881.58 962.82 835.58 962.82 835.58 962.82 835.57 962.82 743 962.81 743 962.81 743"/><polygon class="cls-1" points="706.17 789.02 706.17 789.01 706.18 789.02 706.85 788.63 786.16 743 706.17 696.44 706.17 696.44 706.17 696.44 706.16 696.44 706.16 696.44 626.16 742.45 706.16 789.01 706.17 789.02"/><polygon class="cls-2" points="706.21 881.58 706.21 881.58 706.22 881.58 706.22 789.02 706.22 789.02 626.2 742.46 626.2 742.46 626.2 742.46 626.2 835.01 626.24 835.04 706.21 881.58"/><polygon class="cls-3" points="786.21 743 706.2 789 706.19 789.01 706.19 881.57 706.21 881.58 706.21 881.58 706.21 881.58 786.21 835.58 786.21 835.58 786.21 835.57 786.21 743 786.21 743 786.21 743"/><polygon class="cls-1" points="794.48 838.52 794.48 838.52 794.48 838.52 795.15 838.14 874.47 792.5 794.47 745.95 794.47 745.95 794.47 745.95 794.47 745.95 794.47 745.95 714.46 791.96 794.47 838.52 794.48 838.52"/><polygon class="cls-2" points="794.51 931.09 794.51 931.09 794.52 931.09 794.52 838.53 794.52 838.53 714.5 791.96 714.5 791.96 714.5 791.96 714.5 884.52 714.54 884.54 794.51 931.09"/><polygon class="cls-3" points="874.51 792.5 794.5 838.51 794.5 838.52 794.5 931.08 794.51 931.09 794.51 931.09 794.51 931.09 874.51 885.08 874.51 885.08 874.51 885.07 874.51 792.51 874.51 792.51 874.51 792.5"/><polygon class="cls-1" points="794.27 637.49 794.27 637.49 794.27 637.49 794.95 637.11 874.26 591.47 794.26 544.92 794.26 544.92 794.26 544.92 794.26 544.92 794.26 544.92 714.25 590.93 794.26 637.49 794.27 637.49"/><polygon class="cls-2" points="794.31 730.06 794.31 730.06 794.31 730.06 794.31 637.5 794.31 637.5 714.3 590.93 714.3 590.93 714.29 590.93 714.29 683.49 714.33 683.51 794.31 730.06"/><polygon class="cls-3" points="874.3 591.47 794.3 637.48 794.29 637.49 794.29 730.05 794.3 730.06 794.31 730.06 794.31 730.06 874.31 684.05 874.31 684.05 874.31 684.04 874.31 591.48 874.3 591.48 874.3 591.47"/><polygon class="cls-1" points="882.57 687 882.57 687 882.58 687 883.25 686.62 962.56 640.98 882.57 594.43 882.57 594.43 882.57 594.43 882.56 594.43 882.56 594.43 802.56 640.44 882.56 687 882.57 687"/><polygon class="cls-2" points="882.61 779.57 882.61 779.56 882.61 779.57 882.61 687.01 882.61 687.01 802.6 640.44 802.6 640.44 802.6 640.44 802.6 733 802.63 733.02 882.61 779.57"/><polygon class="cls-3" points="962.61 640.98 882.6 686.99 882.59 687 882.59 779.56 882.61 779.57 882.61 779.57 882.61 779.57 962.61 733.56 962.61 733.56 962.61 733.55 962.61 640.98 962.61 640.99 962.61 640.98"/><polygon class="cls-1" points="705.97 687 705.97 687 705.97 687 706.65 686.62 785.96 640.98 705.96 594.43 705.96 594.43 705.96 594.43 705.96 594.43 705.96 594.43 625.95 640.44 705.96 687 705.97 687"/><polygon class="cls-2" points="706.01 779.57 706.01 779.56 706.01 779.57 706.01 687.01 706.01 687.01 625.99 640.44 625.99 640.44 625.99 640.44 625.99 733 626.03 733.02 706.01 779.57"/><polygon class="cls-3" points="786 640.98 706 686.99 705.99 687 705.99 779.56 706 779.57 706 779.57 706.01 779.57 786.01 733.56 786.01 733.56 786.01 733.55 786.01 640.98 786 640.99 786 640.98"/><polygon class="cls-7" points="794.27 736.51 794.27 736.51 794.27 736.51 794.95 736.12 874.26 690.49 794.26 643.94 794.26 643.94 794.26 643.94 794.26 643.94 794.26 643.94 714.25 689.94 794.26 736.5 794.27 736.51"/><polygon class="cls-8" points="794.31 829.07 794.31 829.07 794.31 829.07 794.31 736.51 794.31 736.51 714.3 689.95 714.3 689.95 714.29 689.95 714.29 782.51 714.33 782.53 794.31 829.07"/><polygon class="cls-9" points="874.3 690.49 794.3 736.5 794.29 736.5 794.29 829.06 794.3 829.07 794.31 829.07 794.31 829.07 874.31 783.07 874.31 783.07 874.31 783.06 874.31 690.49 874.3 690.49 874.3 690.49"/><polygon class="cls-9" points="616.2 840.91 616.2 840.9 616.21 840.91 617.6 840.11 780.85 746.18 616.19 650.36 616.19 650.36 616.19 650.36 616.18 650.36 616.18 650.36 451.5 745.06 616.18 840.89 616.2 840.91"/><polygon class="cls-10" points="616.28 1031.44 616.28 1031.44 616.28 1031.44 616.28 840.92 616.28 840.92 451.58 745.07 451.58 745.07 451.58 745.07 451.58 935.59 451.66 935.64 616.28 1031.44"/><polygon class="cls-4" points="780.94 746.18 616.26 840.88 616.24 840.9 616.24 1031.42 616.27 1031.44 616.28 1031.44 616.28 1031.44 780.95 936.74 780.95 936.75 780.95 936.72 780.95 746.18 780.94 746.19 780.94 746.18"/><polygon class="cls-4" points="797.71 529.02 797.71 529.01 797.72 529.02 799.1 528.22 962.35 434.29 797.69 338.47 797.69 338.47 797.69 338.47 797.69 338.47 797.69 338.47 633.01 433.17 797.69 529 797.71 529.02"/><polygon class="cls-5" points="797.78 719.55 797.78 719.54 797.79 719.55 797.79 529.03 797.79 529.03 633.09 433.18 633.09 433.18 633.09 433.18 633.09 623.7 633.16 623.75 797.78 719.55"/><polygon class="cls-11" points="962.45 434.29 797.76 528.99 797.75 529.01 797.75 719.53 797.78 719.55 797.78 719.55 797.78 719.55 962.46 624.85 962.46 624.85 962.46 624.83 962.46 434.29 962.45 434.3 962.45 434.29"/><polygon class="cls-1" points="616.15 632.02 616.15 632.02 616.16 632.02 617.55 631.22 780.8 537.29 616.14 441.47 616.14 441.47 616.14 441.47 616.13 441.47 616.13 441.47 451.45 536.17 616.13 632.01 616.15 632.02"/><polygon class="cls-2" points="616.23 822.55 616.23 822.55 616.23 822.55 616.23 632.03 616.23 632.03 451.53 536.18 451.53 536.18 451.53 536.18 451.53 726.7 451.61 726.75 616.23 822.55"/><polygon class="cls-3" points="780.89 537.29 616.21 632 616.19 632.01 616.19 822.53 616.22 822.55 616.22 822.55 616.23 822.55 780.9 727.86 780.9 727.86 780.9 727.83 780.9 537.3 780.89 537.3 780.89 537.29"/><path class="cls-9" d="M195.42,819.45v-11h41.07v11Z"/><path class="cls-9" d="M195.42,799.29V784.1c0-9.05,3.29-16.84,13.65-16.84,10,0,14.4,7.91,14.4,16.59v4.47h13v11Zm19.46-14.93c0-4.34-2.15-6.38-5.81-6.38s-5,2.42-5,6.64v3.7h10.86Z"/><path class="cls-9" d="M195.42,760.5v-27h9.1v16.08h7.83V735.75h9.1v13.78h15v11Z"/><path class="cls-9" d="M231.37,730.77l-7.46-6.26c2.34-2.93,4-6.63,4-9.69,0-3.32-1.07-4.72-2.9-4.72s-2.59,2.1-4,5.61l-2.15,5.17c-1.77,4.46-5.49,8.36-11.43,8.36-7,0-12.76-6.38-12.76-15.44A20.05,20.05,0,0,1,200.16,700L207,705.5c-1.95,2.81-3,5.23-3,8.3,0,2.68.94,4.33,2.78,4.33s2.65-2.36,4.1-6.12l2-5c2-5.17,5.56-8.1,11.24-8.1,7,0,13.14,5.87,13.14,16.2A24.18,24.18,0,0,1,231.37,730.77Z"/><path class="cls-9" d="M216,681c-13.52,0-21.56-8.55-21.56-19.11a16.68,16.68,0,0,1,5.23-12l4.73,3.95a11,11,0,0,0-3.59,7.91c0,6.79,5.69,11.67,15,11.67,9.43,0,15.14-4.5,15.14-11.49a11.77,11.77,0,0,0-4.25-8.9l4.6-4a16.7,16.7,0,0,1,6,13.14C237.24,672.63,229.64,681,216,681Z"/><path class="cls-9" d="M195.17,642v-7.4h35.15V617.25h6.17V642Z"/><path class="cls-9" d="M218.37,612.26h-23.2v-7.4h23.75c9,0,12-3.39,12-8.45s-3-8.62-12-8.62H195.17v-7.12h23.2c13.57,0,18.87,6.07,18.87,15.74S231.94,612.26,218.37,612.26Z"/><path class="cls-9" d="M231.19,573.75l-5-4.31a16.46,16.46,0,0,0,4.72-10.87c0-4.7-2.11-7.28-5.33-7.28-3.4,0-4.49,2.7-6.08,6.49l-2.45,5.7c-1.7,4.11-4.92,8.43-11,8.43-6.58,0-11.65-5.87-11.65-14A18.4,18.4,0,0,1,199.68,545l4.65,3.8a13.56,13.56,0,0,0-3.55,9.06c0,4,1.83,6.54,4.85,6.54,3.25,0,4.45-3.18,5.85-6.64l2.34-5.63c2.05-5,5.15-8.43,11.14-8.43,6.7,0,12.28,5.61,12.28,15A21.56,21.56,0,0,1,231.19,573.75Z"/><path class="cls-9" d="M201.34,529v12h-6.17V509.54h6.17v12.05h35.15V529Z"/><path class="cls-9" d="M195.17,502.55V477.44h6.17v17.71h10.58v-15h6.17v15h12.23V476.8h6.17v25.75Z"/><path class="cls-9" d="M195.17,468.25V454.19c0-8.68,3-15.36,12.26-15.36,8.88,0,12.91,6.68,12.91,15.36v6.66h16.15v7.4ZM214.48,455c0-5.71-2.35-8.83-7-8.83S201,449.24,201,455v5.9h13.45Zm3.9.63L214,450.22l22.48-13v8.32Z"/></g></svg>