<?xml version="1.0" encoding="utf-8"?>
<!-- Generator: Adobe Illustrator 22.1.0, SVG Export Plug-In . SVG Version: 6.00 Build 0)  -->
<svg version="1.1" xmlns="http://www.w3.org/2000/svg" xmlns:xlink="http://www.w3.org/1999/xlink" x="0px" y="0px"
	 viewBox="0 0 1804.167 679.89" style="enable-background:new 0 0 1804.167 679.89;" xml:space="preserve">
<style type="text/css">
	.st0{fill:#E1FAFB;}
	.st1{fill:#C3EAEF;}
	.st2{fill:#9DDDE3;}
	.st3{fill:#FCD197;}
	.st4{fill:#F9C478;}
	.st5{fill:#F7B763;}
	.st6{fill:#F9AB55;}
	.st7{fill:#F9A035;}
	.st8{fill:#F99F93;}
	.st9{fill:#F96A58;}
	.st10{fill:#EF5C43;}
	.st11{fill:#5AB5BF;}
	.st12{fill:#46A0AF;}
	.st13{fill:#3C8DA0;}
	.st14{fill:#FFFFFF;}
</style>
<g id="Layer_1">
</g>
<g id="Warstwa_4">
	<g>
		<g>
			<g>
				<g>
					<polygon class="st0" points="304.484,342.179 304.485,342.177 304.49,342.181 305.491,341.605 423.313,273.812 
						304.475,204.654 304.474,204.655 304.474,204.655 304.47,204.654 304.469,204.654 185.615,273.003 304.469,342.17 					"/>
					<polygon class="st1" points="304.539,479.692 304.539,479.689 304.545,479.692 304.545,342.187 304.545,342.187 
						185.676,273.011 185.676,273.011 185.672,273.01 185.672,410.514 185.728,410.548 					"/>
					<polygon class="st2" points="423.381,273.815 304.526,342.163 304.512,342.173 304.512,479.678 304.536,479.69 304.538,479.69 
						304.54,479.692 423.388,411.347 423.388,411.348 423.388,411.331 423.388,273.816 423.381,273.82 					"/>
				</g>
				<g>
					<polygon class="st0" points="173.305,415.727 173.306,415.725 173.311,415.729 174.312,415.153 292.134,347.36 
						173.296,278.202 173.294,278.203 173.294,278.203 173.291,278.202 173.289,278.202 54.436,346.551 173.289,415.718 					"/>
					<polygon class="st1" points="173.36,553.24 173.36,553.237 173.365,553.24 173.365,415.735 173.365,415.735 54.496,346.559 
						54.496,346.559 54.492,346.558 54.492,484.062 54.549,484.095 					"/>
					<polygon class="st2" points="292.202,347.362 173.347,415.711 173.333,415.721 173.333,553.225 173.357,553.238 
						173.358,553.238 173.361,553.24 292.208,484.895 292.208,484.896 292.208,484.879 292.208,347.364 292.202,347.368 					"/>
				</g>
				<g>
					<polygon class="st0" points="304.302,190.627 304.303,190.626 304.308,190.629 305.309,190.054 423.131,122.26 304.293,53.102 
						304.292,53.104 304.292,53.104 304.288,53.102 304.286,53.102 185.433,121.451 304.286,190.618 					"/>
					<polygon class="st1" points="304.357,328.14 304.357,328.137 304.362,328.14 304.362,190.636 304.362,190.636 185.494,121.46 
						185.494,121.46 185.49,121.458 185.49,258.963 185.546,258.996 					"/>
					<polygon class="st2" points="423.199,122.263 304.344,190.611 304.33,190.622 304.33,328.126 304.354,328.139 304.356,328.139 
						304.358,328.14 423.205,259.795 423.205,259.796 423.205,259.78 423.205,122.264 423.199,122.268 					"/>
				</g>
				<g>
					<g>
						<g>
							<polygon class="st0" points="176.12,263.419 176.12,263.418 176.123,263.42 176.609,263.141 233.849,230.205 
								176.115,196.607 176.115,196.607 176.115,196.607 176.113,196.607 176.112,196.607 118.371,229.812 176.112,263.415 							
								"/>
							<polygon class="st1" points="176.147,330.226 176.147,330.224 176.149,330.226 176.149,263.423 176.149,263.423 
								118.4,229.816 118.4,229.816 118.398,229.816 118.398,296.618 118.426,296.634 							"/>
							<polygon class="st2" points="233.882,230.206 176.14,263.411 176.133,263.416 176.133,330.219 176.145,330.225 
								176.146,330.225 176.147,330.226 233.885,297.022 233.885,297.023 233.885,297.015 233.885,230.207 233.882,230.209 							
								"/>
						</g>
						<g>
							<g>
								<polygon class="st0" points="239.849,299.15 239.85,299.149 239.852,299.151 240.339,298.872 297.579,265.936 
									239.845,232.338 239.844,232.339 239.844,232.339 239.843,232.338 239.842,232.338 182.1,265.543 239.842,299.146 								
									"/>
								<polygon class="st1" points="239.876,365.957 239.876,365.955 239.879,365.957 239.879,299.154 239.879,299.154 
									182.13,265.547 182.13,265.547 182.128,265.547 182.128,332.349 182.155,332.365 								"/>
								<polygon class="st2" points="297.612,265.937 239.87,299.143 239.863,299.148 239.863,365.95 239.875,365.956 
									239.875,365.956 239.877,365.957 297.615,332.753 297.615,332.754 297.615,332.746 297.615,265.938 297.612,265.94 								
									"/>
							</g>
							<g>
								<polygon class="st0" points="112.39,299.15 112.391,299.149 112.393,299.151 112.88,298.872 170.12,265.936 
									112.386,232.338 112.385,232.339 112.385,232.339 112.383,232.338 112.383,232.338 54.641,265.543 112.383,299.146 								
									"/>
								<polygon class="st1" points="112.417,365.957 112.417,365.955 112.42,365.957 112.42,299.154 112.42,299.154 
									54.671,265.547 54.671,265.547 54.669,265.547 54.669,332.349 54.696,332.365 								"/>
								<polygon class="st2" points="170.153,265.937 112.411,299.143 112.404,299.148 112.404,365.95 112.416,365.956 
									112.416,365.956 112.417,365.957 170.156,332.753 170.156,332.754 170.156,332.746 170.156,265.938 170.153,265.94 								
									"/>
							</g>
						</g>
						<g>
							<polygon class="st0" points="176.12,334.881 176.12,334.881 176.123,334.882 176.609,334.603 233.849,301.667 
								176.115,268.069 176.115,268.07 176.115,268.07 176.113,268.069 176.112,268.069 118.371,301.274 176.112,334.877 							"/>
							<polygon class="st1" points="176.147,401.688 176.147,401.686 176.149,401.688 176.149,334.885 176.149,334.885 
								118.4,301.278 118.4,301.278 118.398,301.278 118.398,368.08 118.426,368.096 							"/>
							<polygon class="st2" points="233.882,301.668 176.14,334.874 176.133,334.879 176.133,401.681 176.145,401.687 
								176.146,401.687 176.147,401.688 233.885,368.484 233.885,368.485 233.885,368.477 233.885,301.669 233.882,301.671 							
								"/>
						</g>
					</g>
					<g>
						<g>
							<polygon class="st0" points="175.971,189.792 175.972,189.791 175.974,189.793 176.46,189.514 233.701,156.578 
								175.967,122.98 175.966,122.981 175.966,122.981 175.964,122.98 175.964,122.98 118.222,156.185 175.964,189.788 							"/>
							<polygon class="st1" points="175.998,256.599 175.998,256.597 176,256.599 176,189.796 176,189.796 118.251,156.189 
								118.251,156.189 118.25,156.189 118.25,222.991 118.277,223.007 							"/>
							<polygon class="st2" points="233.734,156.579 175.992,189.785 175.985,189.79 175.985,256.592 175.996,256.598 
								175.997,256.598 175.998,256.599 233.737,223.395 233.737,223.396 233.737,223.388 233.737,156.58 233.734,156.582 							
								"/>
						</g>
						<g>
							<g>
								<polygon class="st0" points="239.701,225.523 239.701,225.523 239.704,225.524 240.19,225.245 297.43,192.309 
									239.696,158.711 239.696,158.712 239.696,158.712 239.694,158.711 239.693,158.711 181.952,191.916 239.693,225.519 
																	"/>
								<polygon class="st1" points="239.728,292.33 239.728,292.328 239.73,292.33 239.73,225.527 239.73,225.527 181.981,191.92 
									181.981,191.92 181.979,191.92 181.979,258.722 182.007,258.738 								"/>
								<polygon class="st2" points="297.463,192.311 239.721,225.516 239.714,225.521 239.714,292.323 239.726,292.329 
									239.727,292.329 239.728,292.33 297.466,259.126 297.466,259.127 297.466,259.119 297.466,192.311 297.463,192.313 								
									"/>
							</g>
							<g>
								<polygon class="st0" points="112.241,225.523 112.242,225.523 112.244,225.524 112.731,225.245 169.971,192.309 
									112.237,158.711 112.236,158.712 112.236,158.712 112.235,158.711 112.234,158.711 54.492,191.916 112.234,225.519 								
									"/>
								<polygon class="st1" points="112.268,292.33 112.268,292.328 112.271,292.33 112.271,225.527 112.271,225.527 
									54.522,191.92 54.522,191.92 54.52,191.92 54.52,258.722 54.547,258.738 								"/>
								<polygon class="st2" points="170.004,192.311 112.262,225.516 112.255,225.521 112.255,292.323 112.267,292.329 
									112.267,292.329 112.269,292.33 170.007,259.126 170.007,259.127 170.007,259.119 170.007,192.311 170.004,192.313 								
									"/>
							</g>
						</g>
						<g>
							<polygon class="st3" points="175.971,261.254 175.972,261.254 175.974,261.255 176.46,260.976 233.701,228.04 
								175.967,194.442 175.966,194.443 175.966,194.443 175.964,194.442 175.964,194.442 118.222,227.647 175.964,261.25 							
								"/>
							<polygon class="st4" points="175.998,328.061 175.998,328.06 176,328.061 176,261.259 176,261.259 118.251,227.651 
								118.251,227.651 118.25,227.651 118.25,294.453 118.277,294.469 							"/>
							<polygon class="st5" points="233.734,228.042 175.992,261.247 175.985,261.252 175.985,328.054 175.996,328.06 
								175.997,328.06 175.998,328.061 233.737,294.858 233.737,294.858 233.737,294.85 233.737,228.042 233.734,228.044 							"/>
						</g>
					</g>
				</g>
				<g>
					<g>
						<g>
							<polygon class="st0" points="433.15,416.093 433.15,416.092 433.153,416.094 433.639,415.814 490.879,382.879 
								433.145,349.28 433.145,349.281 433.145,349.281 433.143,349.28 433.142,349.28 375.401,382.486 433.142,416.088 							"/>
							<polygon class="st1" points="433.177,482.899 433.177,482.898 433.179,482.899 433.179,416.097 433.179,416.097 
								375.43,382.49 375.43,382.49 375.428,382.489 375.428,449.291 375.456,449.308 							"/>
							<polygon class="st2" points="490.912,382.88 433.17,416.085 433.163,416.09 433.163,482.892 433.175,482.899 
								433.176,482.899 433.177,482.899 490.915,449.696 490.915,449.697 490.915,449.688 490.915,382.881 490.912,382.882 							
								"/>
						</g>
						<g>
							<g>
								<polygon class="st0" points="496.879,451.824 496.88,451.823 496.882,451.825 497.369,451.545 554.609,418.61 
									496.875,385.011 496.874,385.012 496.874,385.012 496.872,385.011 496.872,385.011 439.13,418.217 496.872,451.819 								
									"/>
								<polygon class="st1" points="496.906,518.63 496.906,518.629 496.909,518.63 496.909,451.828 496.909,451.828 
									439.16,418.221 439.16,418.221 439.158,418.22 439.158,485.023 439.185,485.039 								"/>
								<polygon class="st2" points="554.642,418.611 496.9,451.816 496.893,451.821 496.893,518.623 496.905,518.63 
									496.905,518.63 496.907,518.63 554.645,485.427 554.645,485.428 554.645,485.42 554.645,418.612 554.642,418.613 								
									"/>
							</g>
							<g>
								<polygon class="st0" points="369.42,451.824 369.421,451.823 369.423,451.825 369.909,451.545 427.15,418.61 
									369.416,385.011 369.415,385.012 369.415,385.012 369.413,385.011 369.413,385.011 311.671,418.217 369.413,451.819 
																	"/>
								<polygon class="st1" points="369.447,518.63 369.447,518.629 369.449,518.63 369.449,451.828 369.449,451.828 
									311.701,418.221 311.701,418.221 311.699,418.22 311.699,485.023 311.726,485.039 								"/>
								<polygon class="st2" points="427.183,418.611 369.441,451.816 369.434,451.821 369.434,518.623 369.445,518.63 
									369.446,518.63 369.447,518.63 427.186,485.427 427.186,485.428 427.186,485.42 427.186,418.612 427.183,418.613 								
									"/>
							</g>
						</g>
						<g>
							<polygon class="st0" points="433.15,487.555 433.15,487.554 433.153,487.556 433.639,487.276 490.879,454.341 
								433.145,420.743 433.145,420.743 433.145,420.743 433.143,420.743 433.142,420.743 375.401,453.948 433.142,487.55 							
								"/>
							<polygon class="st1" points="433.177,554.361 433.177,554.36 433.179,554.361 433.179,487.559 433.179,487.559 
								375.43,453.952 375.43,453.952 375.428,453.951 375.428,520.754 375.456,520.77 							"/>
							<polygon class="st2" points="490.912,454.342 433.17,487.547 433.163,487.552 433.163,554.354 433.175,554.361 
								433.176,554.361 433.177,554.361 490.915,521.158 490.915,521.159 490.915,521.151 490.915,454.343 490.912,454.345 							
								"/>
						</g>
					</g>
					<g>
						<g>
							<polygon class="st0" points="433.001,342.466 433.001,342.465 433.004,342.467 433.49,342.187 490.731,309.252 
								432.997,275.653 432.996,275.654 432.996,275.654 432.994,275.653 432.993,275.653 375.252,308.859 432.993,342.461 							
								"/>
							<polygon class="st1" points="433.028,409.272 433.028,409.271 433.03,409.272 433.03,342.47 433.03,342.47 375.281,308.863 
								375.281,308.863 375.279,308.862 375.279,375.665 375.307,375.681 							"/>
							<polygon class="st2" points="490.764,309.253 433.021,342.458 433.015,342.463 433.015,409.265 433.026,409.272 
								433.027,409.272 433.028,409.272 490.767,376.069 490.767,376.07 490.767,376.062 490.767,309.254 490.764,309.255 							
								"/>
						</g>
						<g>
							<g>
								<polygon class="st0" points="496.73,378.197 496.731,378.196 496.734,378.198 497.22,377.918 554.46,344.983 
									496.726,311.385 496.726,311.385 496.726,311.385 496.724,311.385 496.723,311.385 438.982,344.59 496.723,378.192 								
									"/>
								<polygon class="st1" points="496.757,445.003 496.757,445.002 496.76,445.003 496.76,378.201 496.76,378.201 
									439.011,344.594 439.011,344.594 439.009,344.593 439.009,411.396 439.036,411.412 								"/>
								<polygon class="st2" points="554.493,344.984 496.751,378.189 496.744,378.194 496.744,444.997 496.756,445.003 
									496.757,445.003 496.758,445.003 554.496,411.8 554.496,411.801 554.496,411.793 554.496,344.985 554.493,344.987 								
									"/>
							</g>
							<g>
								<polygon class="st0" points="369.271,378.197 369.272,378.196 369.274,378.198 369.761,377.918 427.001,344.983 
									369.267,311.385 369.266,311.385 369.266,311.385 369.264,311.385 369.264,311.385 311.522,344.59 369.264,378.192 								
									"/>
								<polygon class="st1" points="369.298,445.003 369.298,445.002 369.301,445.003 369.301,378.201 369.301,378.201 
									311.552,344.594 311.552,344.594 311.55,344.593 311.55,411.396 311.577,411.412 								"/>
								<polygon class="st2" points="427.034,344.984 369.292,378.189 369.285,378.194 369.285,444.997 369.297,445.003 
									369.297,445.003 369.299,445.003 427.037,411.8 427.037,411.801 427.037,411.793 427.037,344.985 427.034,344.987 								
									"/>
							</g>
						</g>
						<g>
							<polygon class="st4" points="433.001,413.928 433.001,413.927 433.004,413.929 433.49,413.649 490.731,380.714 
								432.997,347.116 432.996,347.116 432.996,347.116 432.994,347.116 432.993,347.116 375.252,380.321 432.993,413.924 							
								"/>
							<polygon class="st6" points="433.028,480.734 433.028,480.733 433.03,480.734 433.03,413.932 433.03,413.932 
								375.281,380.325 375.281,380.325 375.279,380.324 375.279,447.127 375.307,447.143 							"/>
							<polygon class="st7" points="490.764,380.715 433.021,413.92 433.015,413.925 433.015,480.728 433.026,480.734 
								433.027,480.734 433.028,480.734 490.767,447.531 490.767,447.532 490.767,447.524 490.767,380.716 490.764,380.718 							
								"/>
						</g>
					</g>
				</g>
				<g>
					<polygon class="st8" points="304.484,489.275 304.485,489.273 304.49,489.277 305.491,488.701 423.313,420.908 304.475,351.75 
						304.474,351.751 304.474,351.751 304.47,351.75 304.469,351.75 185.615,420.099 304.469,489.266 					"/>
					<polygon class="st9" points="304.539,626.787 304.539,626.785 304.545,626.787 304.545,489.283 304.545,489.283 
						185.676,420.107 185.676,420.107 185.672,420.106 185.672,557.61 185.728,557.643 					"/>
					<polygon class="st10" points="423.381,420.91 304.526,489.259 304.512,489.269 304.512,626.773 304.536,626.786 
						304.538,626.786 304.54,626.787 423.388,558.443 423.388,558.444 423.388,558.427 423.388,420.912 423.381,420.915 					"/>
				</g>
				<g>
					<polygon class="st11" points="435.481,264.175 435.483,264.174 435.488,264.177 436.489,263.602 554.311,195.808 
						435.472,126.65 435.471,126.652 435.471,126.652 435.467,126.65 435.466,126.65 316.612,194.999 435.466,264.166 					"/>
					<polygon class="st12" points="435.537,401.688 435.537,401.685 435.542,401.688 435.542,264.184 435.542,264.184 
						316.673,195.008 316.673,195.008 316.669,195.006 316.669,332.51 316.725,332.544 					"/>
					<polygon class="st13" points="554.378,195.811 435.523,264.159 435.509,264.17 435.509,401.674 435.534,401.686 
						435.535,401.686 435.538,401.688 554.385,333.343 554.385,333.344 554.385,333.328 554.385,195.812 554.378,195.816 					"/>
				</g>
				<g>
					<polygon class="st0" points="304.447,338.515 304.448,338.513 304.453,338.517 305.454,337.941 423.276,270.148 
						304.438,200.99 304.437,200.991 304.437,200.991 304.433,200.99 304.432,200.99 185.578,269.339 304.432,338.506 					"/>
					<polygon class="st1" points="304.502,476.028 304.502,476.025 304.508,476.028 304.508,338.523 304.508,338.523 
						185.639,269.348 185.639,269.348 185.635,269.346 185.635,406.85 185.691,406.884 					"/>
					<polygon class="st2" points="423.344,270.151 304.489,338.499 304.475,338.509 304.475,476.014 304.499,476.026 
						304.501,476.026 304.503,476.028 423.35,407.683 423.35,407.684 423.35,407.668 423.35,270.152 423.344,270.156 					"/>
				</g>
			</g>
		</g>
		<g>
			<path class="st14" d="M670.255,272.339h30.99v115.944h-30.99V272.339z"/>
			<path class="st14" d="M727.189,272.339h42.882c25.585,0,47.566,9.276,47.566,38.529c0,28.362-22.342,40.67-46.846,40.67h-12.612
				v36.745h-30.99V272.339z M769.35,327.28c12.252,0,18.018-6.065,18.018-16.411s-6.847-14.27-18.738-14.27h-10.45v30.681H769.35z"
				/>
			<path class="st14" d="M836.73,272.339h76.395v25.687H867.72v22.118h38.918v25.687H867.72v42.453h-30.99V272.339z"/>
			<path class="st14" d="M920.69,373.835l17.657-21.049c8.288,6.601,18.738,11.238,27.387,11.238c9.369,0,13.333-3.032,13.333-8.205
				c0-5.53-5.946-7.313-15.855-11.238l-14.595-6.064c-12.611-4.994-23.603-15.519-23.603-32.286c0-19.8,18.018-36.031,43.603-36.031
				c13.333,0,28.107,4.994,38.918,15.519l-15.495,19.265c-7.928-5.53-14.774-8.384-23.423-8.384c-7.567,0-12.252,2.676-12.252,7.849
				c0,5.529,6.666,7.491,17.297,11.594l14.234,5.53c14.594,5.708,22.882,15.696,22.882,31.75c0,19.622-16.576,37.103-45.765,37.103
				C950.239,390.424,933.302,385.073,920.69,373.835z"/>
			<path class="st14" d="M1061.367,330.347c0-38.172,24.144-60.861,53.98-60.861c14.774,0,26.521,6.992,33.945,14.77l-11.171,13.343
				c-6.055-5.994-13.117-10.132-22.342-10.132c-19.171,0-32.937,16.054-32.937,42.239c0,26.613,12.685,42.738,32.432,42.738
				c10.45,0,18.522-4.78,25.152-11.986l11.171,12.985c-9.549,10.988-21.837,16.981-37.116,16.981
				C1084.861,390.424,1061.367,368.948,1061.367,330.347z"/>
			<path class="st14" d="M1171.412,271.626h20.901v99.248h48.936v17.409h-69.837V271.626z"/>
			<path class="st14" d="M1255.338,337.125v-65.499h20.9v67.069c0,25.4,9.585,33.748,23.855,33.748
				c14.414,0,24.359-8.348,24.359-33.748v-67.069h20.107v65.499c0,38.315-17.152,53.299-44.467,53.299
				S1255.338,375.441,1255.338,337.125z"/>
			<path class="st14" d="M1364.09,373.335l12.18-14.198c8.433,7.955,19.747,13.307,30.702,13.307c13.261,0,20.54-5.958,20.54-15.055
				c0-9.597-7.604-12.665-18.306-17.16l-16.108-6.921c-11.604-4.78-23.819-13.877-23.819-30.93
				c0-18.587,16.576-32.893,39.567-32.893c13.765,0,27.098,5.637,36.323,14.876l-10.738,13.129
				c-7.496-6.314-15.495-10.024-25.585-10.024c-11.171,0-18.45,5.173-18.45,13.699c0,9.168,8.973,12.558,18.738,16.518l15.892,6.6
				c14.018,5.779,23.819,14.556,23.819,31.465c0,18.908-15.855,34.677-42.306,34.677
				C1390.612,390.424,1375.261,384.216,1364.09,373.335z"/>
			<path class="st14" d="M1490.5,289.036h-34.017v-17.409h88.935v17.409h-34.017v99.248H1490.5V289.036z"/>
			<path class="st14" d="M1565.161,271.626h70.918v17.409h-50.017v29.896h42.377v17.41h-42.377v34.533h51.818v17.409h-72.72V271.626
				z"/>
			<path class="st14" d="M1662.021,271.626h39.711c24.504,0,43.387,8.562,43.387,34.604c0,25.08-18.883,36.46-43.387,36.46h-18.81
				v45.593h-20.901V271.626z M1699.57,326.138c16.144,0,24.937-6.636,24.937-19.907c0-13.414-8.793-18.052-24.937-18.052h-16.647
				v37.959H1699.57z M1697.804,337.162l15.135-12.344l36.792,63.466h-23.495L1697.804,337.162z"/>
		</g>
	</g>
</g>
</svg>
