<?xml version="1.0" standalone="no"?>
<!DOCTYPE svg PUBLIC "-//W3C//DTD SVG 20010904//EN"
 "http://www.w3.org/TR/2001/REC-SVG-20010904/DTD/svg10.dtd">
<svg version="1.0" xmlns="http://www.w3.org/2000/svg"
 width="3421.000000pt" height="3421.000000pt" viewBox="0 0 3421.000000 3421.000000"
 preserveAspectRatio="xMidYMid meet">
<metadata>
Created by potrace 1.11, written by Peter Selinger 2001-2013
</metadata>
<g transform="translate(0.000000,3421.000000) scale(0.100000,-0.100000)"
fill="#000000" stroke="none">
<path d="M0 17105 l0 -17105 17105 0 17105 0 0 17105 0 17105 -17105 0 -17105
0 0 -17105z m20398 13985 l3291 -1915 3 -311 3 -311 330 190 c273 157 333 188
351 181 12 -5 1499 -868 3303 -1919 l3281 -1910 0 -3810 0 -3810 -261 -149
c-143 -82 -267 -154 -275 -160 -11 -9 43 -44 261 -171 l275 -159 -2 -1860 -3
-1859 -153 -87 -154 -88 119 -70 c65 -38 137 -80 160 -93 l43 -24 -3 -1858 -2
-1859 -1590 -915 c-874 -503 -1595 -917 -1601 -919 -6 -3 -77 34 -158 81 -81
47 -153 88 -161 92 -13 4 -15 -19 -15 -155 l0 -160 -1587 -913 c-874 -502
-1595 -917 -1604 -922 -12 -8 -78 26 -282 146 l-267 155 -2 -265 -3 -266
-3275 -1884 c-1801 -1036 -3285 -1889 -3297 -1895 -18 -9 -435 230 -3317 1908
l-3296 1918 0 312 0 313 -338 -195 -339 -194 -3296 1918 -3296 1917 2 3819 2
3819 332 190 c182 105 330 194 328 197 -2 4 -150 91 -329 196 l-326 189 0
1857 0 1856 156 90 157 90 -30 19 c-17 10 -89 52 -161 93 l-132 75 3 1858 2
1858 1599 920 c879 505 1600 919 1602 919 1 0 72 -40 157 -90 86 -49 158 -90
161 -90 3 0 6 71 6 159 l0 158 1598 918 c878 505 1600 920 1604 922 4 2 124
-64 265 -146 l258 -150 3 192 2 192 3288 1892 c1808 1041 3294 1891 3303 1890
9 -1 1497 -864 3307 -1917z"/>
</g>
</svg>
